<?xml version="1.0" encoding="UTF-8" standalone="no"?><svg xmlns="http://www.w3.org/2000/svg" xmlns:xlink="http://www.w3.org/1999/xlink" contentStyleType="text/css" height="1793px" preserveAspectRatio="none" style="width:1538px;height:1793px;background:#FFFFFF;" version="1.1" viewBox="0 0 1538 1793" width="1538px" zoomAndPan="magnify"><defs/><g><!--MD5=[36c1942e8942a3e4f47e6de3733e3d18]
class Endereco--><g id="elem_Endereco"><rect codeLine="2" fill="#F1F1F1" height="224.0938" id="Endereco" rx="2.5" ry="2.5" style="stroke:#181818;stroke-width:0.5;" width="155" x="334.5" y="1365"/><ellipse cx="377.4" cy="1381" fill="#ADD1B2" rx="11" ry="11" style="stroke:#181818;stroke-width:1.0;"/><path d="M380.1656,1376.875 Q380.3219,1376.6563 380.5094,1376.5469 Q380.6969,1376.4375 380.9156,1376.4375 Q381.2906,1376.4375 381.525,1376.7031 Q381.7594,1376.9531 381.7594,1377.5625 L381.7594,1379.0156 Q381.7594,1379.625 381.525,1379.8906 Q381.2906,1380.1563 380.9156,1380.1563 Q380.5719,1380.1563 380.3688,1379.9531 Q380.1656,1379.7656 380.0563,1379.25 Q380.0094,1378.8906 379.8219,1378.7031 Q379.4938,1378.3281 378.8844,1378.1094 Q378.275,1377.8906 377.65,1377.8906 Q376.8844,1377.8906 376.2438,1378.2188 Q375.6188,1378.5469 375.1188,1379.2969 Q374.6344,1380.0469 374.6344,1381.0781 L374.6344,1382.1719 Q374.6344,1383.4063 375.525,1384.2344 Q376.4156,1385.0469 378.0094,1385.0469 Q378.9469,1385.0469 379.6031,1384.7969 Q379.9938,1384.6406 380.4156,1384.2031 Q380.6813,1383.9375 380.8219,1383.8594 Q380.9781,1383.7813 381.1813,1383.7813 Q381.5094,1383.7813 381.7594,1384.0469 Q382.025,1384.2969 382.025,1384.6406 Q382.025,1384.9844 381.6813,1385.3906 Q381.1813,1385.9688 380.3844,1386.2969 Q379.3063,1386.75 378.0094,1386.75 Q376.4938,1386.75 375.2906,1386.125 Q374.3063,1385.625 373.6188,1384.5625 Q372.9313,1383.4844 372.9313,1382.2031 L372.9313,1381.0469 Q372.9313,1379.7188 373.5406,1378.5781 Q374.1656,1377.4219 375.2594,1376.8125 Q376.3531,1376.1875 377.5875,1376.1875 Q378.3219,1376.1875 378.9625,1376.3594 Q379.6188,1376.5156 380.1656,1376.875 Z " fill="#000000"/><text fill="#000000" font-family="sans-serif" font-size="14" lengthAdjust="spacing" textLength="61" x="397.6" y="1386.7285">Endereco</text><line style="stroke:#181818;stroke-width:0.5;" x1="335.5" x2="488.5" y1="1397" y2="1397"/><rect fill="none" height="6" style="stroke:#C82930;stroke-width:1.0;" width="6" x="342.5" y="1408.3047"/><text fill="#000000" font-family="sans-serif" font-size="14" lengthAdjust="spacing" textLength="51" x="354.5" y="1415.5332">id: Long</text><rect fill="none" height="6" style="stroke:#C82930;stroke-width:1.0;" width="6" x="342.5" y="1425.9141"/><text fill="#000000" font-family="sans-serif" font-size="14" lengthAdjust="spacing" textLength="66" x="354.5" y="1433.1426">rua: String</text><rect fill="none" height="6" style="stroke:#C82930;stroke-width:1.0;" width="6" x="342.5" y="1443.5234"/><text fill="#000000" font-family="sans-serif" font-size="14" lengthAdjust="spacing" textLength="93" x="354.5" y="1450.752">numero: String</text><rect fill="none" height="6" style="stroke:#C82930;stroke-width:1.0;" width="6" x="342.5" y="1461.1328"/><text fill="#000000" font-family="sans-serif" font-size="14" lengthAdjust="spacing" textLength="68" x="354.5" y="1468.3613">lote: String</text><rect fill="none" height="6" style="stroke:#C82930;stroke-width:1.0;" width="6" x="342.5" y="1478.7422"/><text fill="#000000" font-family="sans-serif" font-size="14" lengthAdjust="spacing" textLength="82" x="354.5" y="1485.9707">bairro: String</text><rect fill="none" height="6" style="stroke:#C82930;stroke-width:1.0;" width="6" x="342.5" y="1496.3516"/><text fill="#000000" font-family="sans-serif" font-size="14" lengthAdjust="spacing" textLength="129" x="354.5" y="1503.5801">complemento: String</text><rect fill="none" height="6" style="stroke:#C82930;stroke-width:1.0;" width="6" x="342.5" y="1513.9609"/><text fill="#000000" font-family="sans-serif" font-size="14" lengthAdjust="spacing" textLength="68" x="354.5" y="1521.1895">cep: String</text><rect fill="none" height="6" style="stroke:#C82930;stroke-width:1.0;" width="6" x="342.5" y="1531.5703"/><text fill="#000000" font-family="sans-serif" font-size="14" lengthAdjust="spacing" textLength="104" x="354.5" y="1538.7988">municipio: String</text><rect fill="none" height="6" style="stroke:#C82930;stroke-width:1.0;" width="6" x="342.5" y="1549.1797"/><text fill="#000000" font-family="sans-serif" font-size="14" lengthAdjust="spacing" textLength="88" x="354.5" y="1556.4082">estado: String</text><rect fill="none" height="6" style="stroke:#C82930;stroke-width:1.0;" width="6" x="342.5" y="1566.7891"/><text fill="#000000" font-family="sans-serif" font-size="14" lengthAdjust="spacing" textLength="71" x="354.5" y="1574.0176">pais: String</text><line style="stroke:#181818;stroke-width:0.5;" x1="335.5" x2="488.5" y1="1581.0938" y2="1581.0938"/></g><!--MD5=[09da7f27b36ab6000039850faa070beb]
class Telefone--><g id="elem_Telefone"><rect codeLine="15" fill="#F1F1F1" height="100.8281" id="Telefone" rx="2.5" ry="2.5" style="stroke:#181818;stroke-width:0.5;" width="119" x="143.5" y="1426.5"/><ellipse cx="172.45" cy="1442.5" fill="#ADD1B2" rx="11" ry="11" style="stroke:#181818;stroke-width:1.0;"/><path d="M175.2156,1438.375 Q175.3719,1438.1563 175.5594,1438.0469 Q175.7469,1437.9375 175.9656,1437.9375 Q176.3406,1437.9375 176.575,1438.2031 Q176.8094,1438.4531 176.8094,1439.0625 L176.8094,1440.5156 Q176.8094,1441.125 176.575,1441.3906 Q176.3406,1441.6563 175.9656,1441.6563 Q175.6219,1441.6563 175.4188,1441.4531 Q175.2156,1441.2656 175.1063,1440.75 Q175.0594,1440.3906 174.8719,1440.2031 Q174.5438,1439.8281 173.9344,1439.6094 Q173.325,1439.3906 172.7,1439.3906 Q171.9344,1439.3906 171.2938,1439.7188 Q170.6688,1440.0469 170.1688,1440.7969 Q169.6844,1441.5469 169.6844,1442.5781 L169.6844,1443.6719 Q169.6844,1444.9063 170.575,1445.7344 Q171.4656,1446.5469 173.0594,1446.5469 Q173.9969,1446.5469 174.6531,1446.2969 Q175.0438,1446.1406 175.4656,1445.7031 Q175.7313,1445.4375 175.8719,1445.3594 Q176.0281,1445.2813 176.2313,1445.2813 Q176.5594,1445.2813 176.8094,1445.5469 Q177.075,1445.7969 177.075,1446.1406 Q177.075,1446.4844 176.7313,1446.8906 Q176.2313,1447.4688 175.4344,1447.7969 Q174.3563,1448.25 173.0594,1448.25 Q171.5438,1448.25 170.3406,1447.625 Q169.3563,1447.125 168.6688,1446.0625 Q167.9813,1444.9844 167.9813,1443.7031 L167.9813,1442.5469 Q167.9813,1441.2188 168.5906,1440.0781 Q169.2156,1438.9219 170.3094,1438.3125 Q171.4031,1437.6875 172.6375,1437.6875 Q173.3719,1437.6875 174.0125,1437.8594 Q174.6688,1438.0156 175.2156,1438.375 Z " fill="#000000"/><text fill="#000000" font-family="sans-serif" font-size="14" lengthAdjust="spacing" textLength="56" x="189.55" y="1448.2285">Telefone</text><line style="stroke:#181818;stroke-width:0.5;" x1="144.5" x2="261.5" y1="1458.5" y2="1458.5"/><rect fill="none" height="6" style="stroke:#C82930;stroke-width:1.0;" width="6" x="151.5" y="1469.8047"/><text fill="#000000" font-family="sans-serif" font-size="14" lengthAdjust="spacing" textLength="51" x="163.5" y="1477.0332">id: Long</text><rect fill="none" height="6" style="stroke:#C82930;stroke-width:1.0;" width="6" x="151.5" y="1487.4141"/><text fill="#000000" font-family="sans-serif" font-size="14" lengthAdjust="spacing" textLength="69" x="163.5" y="1494.6426">ddd: String</text><rect fill="none" height="6" style="stroke:#C82930;stroke-width:1.0;" width="6" x="151.5" y="1505.0234"/><text fill="#000000" font-family="sans-serif" font-size="14" lengthAdjust="spacing" textLength="93" x="163.5" y="1512.252">numero: String</text><line style="stroke:#181818;stroke-width:0.5;" x1="144.5" x2="261.5" y1="1519.3281" y2="1519.3281"/></g><!--MD5=[20a748d5ee336a9a91751b0a3d4f0beb]
class Cliente--><g id="elem_Cliente"><rect codeLine="21" fill="#F1F1F1" height="188.875" id="Cliente" rx="2.5" ry="2.5" style="stroke:#181818;stroke-width:0.5;" width="199" x="211.5" y="7"/><ellipse cx="284.75" cy="23" fill="#ADD1B2" rx="11" ry="11" style="stroke:#181818;stroke-width:1.0;"/><path d="M287.5156,18.875 Q287.6719,18.6563 287.8594,18.5469 Q288.0469,18.4375 288.2656,18.4375 Q288.6406,18.4375 288.875,18.7031 Q289.1094,18.9531 289.1094,19.5625 L289.1094,21.0156 Q289.1094,21.625 288.875,21.8906 Q288.6406,22.1563 288.2656,22.1563 Q287.9219,22.1563 287.7188,21.9531 Q287.5156,21.7656 287.4063,21.25 Q287.3594,20.8906 287.1719,20.7031 Q286.8438,20.3281 286.2344,20.1094 Q285.625,19.8906 285,19.8906 Q284.2344,19.8906 283.5938,20.2188 Q282.9688,20.5469 282.4688,21.2969 Q281.9844,22.0469 281.9844,23.0781 L281.9844,24.1719 Q281.9844,25.4063 282.875,26.2344 Q283.7656,27.0469 285.3594,27.0469 Q286.2969,27.0469 286.9531,26.7969 Q287.3438,26.6406 287.7656,26.2031 Q288.0313,25.9375 288.1719,25.8594 Q288.3281,25.7813 288.5313,25.7813 Q288.8594,25.7813 289.1094,26.0469 Q289.375,26.2969 289.375,26.6406 Q289.375,26.9844 289.0313,27.3906 Q288.5313,27.9688 287.7344,28.2969 Q286.6563,28.75 285.3594,28.75 Q283.8438,28.75 282.6406,28.125 Q281.6563,27.625 280.9688,26.5625 Q280.2813,25.4844 280.2813,24.2031 L280.2813,23.0469 Q280.2813,21.7188 280.8906,20.5781 Q281.5156,19.4219 282.6094,18.8125 Q283.7031,18.1875 284.9375,18.1875 Q285.6719,18.1875 286.3125,18.3594 Q286.9688,18.5156 287.5156,18.875 Z " fill="#000000"/><text fill="#000000" font-family="sans-serif" font-size="14" lengthAdjust="spacing" textLength="44" x="305.25" y="28.7285">Cliente</text><line style="stroke:#181818;stroke-width:0.5;" x1="212.5" x2="409.5" y1="39" y2="39"/><rect fill="none" height="6" style="stroke:#C82930;stroke-width:1.0;" width="6" x="219.5" y="50.3047"/><text fill="#000000" font-family="sans-serif" font-size="14" lengthAdjust="spacing" textLength="51" x="231.5" y="57.5332">id: Long</text><rect fill="none" height="6" style="stroke:#C82930;stroke-width:1.0;" width="6" x="219.5" y="67.9141"/><text fill="#000000" font-family="sans-serif" font-size="14" lengthAdjust="spacing" textLength="80" x="231.5" y="75.1426">nome: String</text><rect fill="none" height="6" style="stroke:#C82930;stroke-width:1.0;" width="6" x="219.5" y="85.5234"/><text fill="#000000" font-family="sans-serif" font-size="14" lengthAdjust="spacing" textLength="173" x="231.5" y="92.752">dataNascimento: LocalDate</text><rect fill="none" height="6" style="stroke:#C82930;stroke-width:1.0;" width="6" x="219.5" y="103.1328"/><text fill="#000000" font-family="sans-serif" font-size="14" lengthAdjust="spacing" textLength="64" x="231.5" y="110.3613">cpf: String</text><rect fill="none" height="6" style="stroke:#C82930;stroke-width:1.0;" width="6" x="219.5" y="120.7422"/><text fill="#000000" font-family="sans-serif" font-size="14" lengthAdjust="spacing" textLength="74" x="231.5" y="127.9707">sexo: String</text><rect fill="none" height="6" style="stroke:#C82930;stroke-width:1.0;" width="6" x="219.5" y="138.3516"/><text fill="#000000" font-family="sans-serif" font-size="14" lengthAdjust="spacing" textLength="75" x="231.5" y="145.5801">login: String</text><rect fill="none" height="6" style="stroke:#C82930;stroke-width:1.0;" width="6" x="219.5" y="155.9609"/><text fill="#000000" font-family="sans-serif" font-size="14" lengthAdjust="spacing" textLength="84" x="231.5" y="163.1895">senha: String</text><rect fill="none" height="6" style="stroke:#C82930;stroke-width:1.0;" width="6" x="219.5" y="173.5703"/><text fill="#000000" font-family="sans-serif" font-size="14" lengthAdjust="spacing" textLength="78" x="231.5" y="180.7988">email: String</text><line style="stroke:#181818;stroke-width:0.5;" x1="212.5" x2="409.5" y1="187.875" y2="187.875"/></g><!--MD5=[cf98b8104f7f757d2a3327e9c712e420]
class Funcionario--><g id="elem_Funcionario"><rect codeLine="32" fill="#F1F1F1" height="188.875" id="Funcionario" rx="2.5" ry="2.5" style="stroke:#181818;stroke-width:0.5;" width="163" x="59.5" y="1115"/><ellipse cx="99.7" cy="1131" fill="#ADD1B2" rx="11" ry="11" style="stroke:#181818;stroke-width:1.0;"/><path d="M102.4656,1126.875 Q102.6219,1126.6563 102.8094,1126.5469 Q102.9969,1126.4375 103.2156,1126.4375 Q103.5906,1126.4375 103.825,1126.7031 Q104.0594,1126.9531 104.0594,1127.5625 L104.0594,1129.0156 Q104.0594,1129.625 103.825,1129.8906 Q103.5906,1130.1563 103.2156,1130.1563 Q102.8719,1130.1563 102.6688,1129.9531 Q102.4656,1129.7656 102.3563,1129.25 Q102.3094,1128.8906 102.1219,1128.7031 Q101.7938,1128.3281 101.1844,1128.1094 Q100.575,1127.8906 99.95,1127.8906 Q99.1844,1127.8906 98.5438,1128.2188 Q97.9188,1128.5469 97.4188,1129.2969 Q96.9344,1130.0469 96.9344,1131.0781 L96.9344,1132.1719 Q96.9344,1133.4063 97.825,1134.2344 Q98.7156,1135.0469 100.3094,1135.0469 Q101.2469,1135.0469 101.9031,1134.7969 Q102.2938,1134.6406 102.7156,1134.2031 Q102.9813,1133.9375 103.1219,1133.8594 Q103.2781,1133.7813 103.4813,1133.7813 Q103.8094,1133.7813 104.0594,1134.0469 Q104.325,1134.2969 104.325,1134.6406 Q104.325,1134.9844 103.9813,1135.3906 Q103.4813,1135.9688 102.6844,1136.2969 Q101.6063,1136.75 100.3094,1136.75 Q98.7938,1136.75 97.5906,1136.125 Q96.6063,1135.625 95.9188,1134.5625 Q95.2313,1133.4844 95.2313,1132.2031 L95.2313,1131.0469 Q95.2313,1129.7188 95.8406,1128.5781 Q96.4656,1127.4219 97.5594,1126.8125 Q98.6531,1126.1875 99.8875,1126.1875 Q100.6219,1126.1875 101.2625,1126.3594 Q101.9188,1126.5156 102.4656,1126.875 Z " fill="#000000"/><text fill="#000000" font-family="sans-serif" font-size="14" lengthAdjust="spacing" textLength="75" x="119.3" y="1136.7285">Funcionario</text><line style="stroke:#181818;stroke-width:0.5;" x1="60.5" x2="221.5" y1="1147" y2="1147"/><rect fill="none" height="6" style="stroke:#C82930;stroke-width:1.0;" width="6" x="67.5" y="1158.3047"/><text fill="#000000" font-family="sans-serif" font-size="14" lengthAdjust="spacing" textLength="51" x="79.5" y="1165.5332">id: Long</text><rect fill="none" height="6" style="stroke:#C82930;stroke-width:1.0;" width="6" x="67.5" y="1175.9141"/><text fill="#000000" font-family="sans-serif" font-size="14" lengthAdjust="spacing" textLength="80" x="79.5" y="1183.1426">nome: String</text><rect fill="none" height="6" style="stroke:#C82930;stroke-width:1.0;" width="6" x="67.5" y="1193.5234"/><text fill="#000000" font-family="sans-serif" font-size="14" lengthAdjust="spacing" textLength="137" x="79.5" y="1200.752">dataNascimento: date</text><rect fill="none" height="6" style="stroke:#C82930;stroke-width:1.0;" width="6" x="67.5" y="1211.1328"/><text fill="#000000" font-family="sans-serif" font-size="14" lengthAdjust="spacing" textLength="64" x="79.5" y="1218.3613">cpf: String</text><rect fill="none" height="6" style="stroke:#C82930;stroke-width:1.0;" width="6" x="67.5" y="1228.7422"/><text fill="#000000" font-family="sans-serif" font-size="14" lengthAdjust="spacing" textLength="74" x="79.5" y="1235.9707">sexo: String</text><rect fill="none" height="6" style="stroke:#C82930;stroke-width:1.0;" width="6" x="67.5" y="1246.3516"/><text fill="#000000" font-family="sans-serif" font-size="14" lengthAdjust="spacing" textLength="75" x="79.5" y="1253.5801">login: String</text><rect fill="none" height="6" style="stroke:#C82930;stroke-width:1.0;" width="6" x="67.5" y="1263.9609"/><text fill="#000000" font-family="sans-serif" font-size="14" lengthAdjust="spacing" textLength="84" x="79.5" y="1271.1895">senha: String</text><rect fill="none" height="6" style="stroke:#C82930;stroke-width:1.0;" width="6" x="67.5" y="1281.5703"/><text fill="#000000" font-family="sans-serif" font-size="14" lengthAdjust="spacing" textLength="78" x="79.5" y="1288.7988">email: String</text><line style="stroke:#181818;stroke-width:0.5;" x1="60.5" x2="221.5" y1="1295.875" y2="1295.875"/></g><!--MD5=[d4dacc50d49878ba7c621dfc80a2e1ce]
class Produto--><g id="elem_Produto"><rect codeLine="43" fill="#F1F1F1" height="276.9219" id="Produto" rx="2.5" ry="2.5" style="stroke:#181818;stroke-width:0.5;" width="166" x="329" y="633"/><ellipse cx="382.75" cy="649" fill="#ADD1B2" rx="11" ry="11" style="stroke:#181818;stroke-width:1.0;"/><path d="M385.5156,644.875 Q385.6719,644.6563 385.8594,644.5469 Q386.0469,644.4375 386.2656,644.4375 Q386.6406,644.4375 386.875,644.7031 Q387.1094,644.9531 387.1094,645.5625 L387.1094,647.0156 Q387.1094,647.625 386.875,647.8906 Q386.6406,648.1563 386.2656,648.1563 Q385.9219,648.1563 385.7188,647.9531 Q385.5156,647.7656 385.4063,647.25 Q385.3594,646.8906 385.1719,646.7031 Q384.8438,646.3281 384.2344,646.1094 Q383.625,645.8906 383,645.8906 Q382.2344,645.8906 381.5938,646.2188 Q380.9688,646.5469 380.4688,647.2969 Q379.9844,648.0469 379.9844,649.0781 L379.9844,650.1719 Q379.9844,651.4063 380.875,652.2344 Q381.7656,653.0469 383.3594,653.0469 Q384.2969,653.0469 384.9531,652.7969 Q385.3438,652.6406 385.7656,652.2031 Q386.0313,651.9375 386.1719,651.8594 Q386.3281,651.7813 386.5313,651.7813 Q386.8594,651.7813 387.1094,652.0469 Q387.375,652.2969 387.375,652.6406 Q387.375,652.9844 387.0313,653.3906 Q386.5313,653.9688 385.7344,654.2969 Q384.6563,654.75 383.3594,654.75 Q381.8438,654.75 380.6406,654.125 Q379.6563,653.625 378.9688,652.5625 Q378.2813,651.4844 378.2813,650.2031 L378.2813,649.0469 Q378.2813,647.7188 378.8906,646.5781 Q379.5156,645.4219 380.6094,644.8125 Q381.7031,644.1875 382.9375,644.1875 Q383.6719,644.1875 384.3125,644.3594 Q384.9688,644.5156 385.5156,644.875 Z " fill="#000000"/><text fill="#000000" font-family="sans-serif" font-size="14" lengthAdjust="spacing" textLength="50" x="403.25" y="654.7285">Produto</text><line style="stroke:#181818;stroke-width:0.5;" x1="330" x2="494" y1="665" y2="665"/><rect fill="none" height="6" style="stroke:#C82930;stroke-width:1.0;" width="6" x="337" y="676.3047"/><text fill="#000000" font-family="sans-serif" font-size="14" lengthAdjust="spacing" textLength="51" x="349" y="683.5332">id: Long</text><rect fill="none" height="6" style="stroke:#C82930;stroke-width:1.0;" width="6" x="337" y="693.9141"/><text fill="#000000" font-family="sans-serif" font-size="14" lengthAdjust="spacing" textLength="80" x="349" y="701.1426">nome: String</text><rect fill="none" height="6" style="stroke:#C82930;stroke-width:1.0;" width="6" x="337" y="711.5234"/><text fill="#000000" font-family="sans-serif" font-size="14" lengthAdjust="spacing" textLength="106" x="349" y="718.752">descricao: String</text><rect fill="none" height="6" style="stroke:#C82930;stroke-width:1.0;" width="6" x="337" y="729.1328"/><text fill="#000000" font-family="sans-serif" font-size="14" lengthAdjust="spacing" textLength="140" x="349" y="736.3613">codigoDeBarra: String</text><rect fill="none" height="6" style="stroke:#C82930;stroke-width:1.0;" width="6" x="337" y="746.7422"/><text fill="#000000" font-family="sans-serif" font-size="14" lengthAdjust="spacing" textLength="84" x="349" y="753.9707">marca: String</text><rect fill="none" height="6" style="stroke:#C82930;stroke-width:1.0;" width="6" x="337" y="764.3516"/><text fill="#000000" font-family="sans-serif" font-size="14" lengthAdjust="spacing" textLength="94" x="349" y="771.5801">imagem: String</text><rect fill="none" height="6" style="stroke:#C82930;stroke-width:1.0;" width="6" x="337" y="781.9609"/><text fill="#000000" font-family="sans-serif" font-size="14" lengthAdjust="spacing" textLength="89" x="349" y="789.1895">altura: Double</text><rect fill="none" height="6" style="stroke:#C82930;stroke-width:1.0;" width="6" x="337" y="799.5703"/><text fill="#000000" font-family="sans-serif" font-size="14" lengthAdjust="spacing" textLength="98" x="349" y="806.7988">largura: Double</text><rect fill="none" height="6" style="stroke:#C82930;stroke-width:1.0;" width="6" x="337" y="817.1797"/><text fill="#000000" font-family="sans-serif" font-size="14" lengthAdjust="spacing" textLength="134" x="349" y="824.4082">comprimento: Double</text><rect fill="none" height="6" style="stroke:#C82930;stroke-width:1.0;" width="6" x="337" y="834.7891"/><text fill="#000000" font-family="sans-serif" font-size="14" lengthAdjust="spacing" textLength="84" x="349" y="842.0176">peso: Double</text><rect fill="none" height="6" style="stroke:#C82930;stroke-width:1.0;" width="6" x="337" y="852.3984"/><text fill="#000000" font-family="sans-serif" font-size="14" lengthAdjust="spacing" textLength="137" x="349" y="859.627">custoCompra: Double</text><rect fill="none" height="6" style="stroke:#C82930;stroke-width:1.0;" width="6" x="337" y="870.0078"/><text fill="#000000" font-family="sans-serif" font-size="14" lengthAdjust="spacing" textLength="125" x="349" y="877.2363">valorVenda: Double</text><rect fill="none" height="6" style="stroke:#C82930;stroke-width:1.0;" width="6" x="337" y="887.6172"/><text fill="#000000" font-family="sans-serif" font-size="14" lengthAdjust="spacing" textLength="111" x="349" y="894.8457">quantidade: Long</text><line style="stroke:#181818;stroke-width:0.5;" x1="330" x2="494" y1="901.9219" y2="901.9219"/></g><!--MD5=[998c786a3ec01e3a4cd64978ede0c0df]
class Lote--><g id="elem_Lote"><rect codeLine="59" fill="#F1F1F1" height="83.2188" id="Lote" rx="2.5" ry="2.5" style="stroke:#181818;stroke-width:0.5;" width="103" x="360.5" y="971"/><ellipse cx="394.85" cy="987" fill="#ADD1B2" rx="11" ry="11" style="stroke:#181818;stroke-width:1.0;"/><path d="M397.6156,982.875 Q397.7719,982.6563 397.9594,982.5469 Q398.1469,982.4375 398.3656,982.4375 Q398.7406,982.4375 398.975,982.7031 Q399.2094,982.9531 399.2094,983.5625 L399.2094,985.0156 Q399.2094,985.625 398.975,985.8906 Q398.7406,986.1563 398.3656,986.1563 Q398.0219,986.1563 397.8188,985.9531 Q397.6156,985.7656 397.5063,985.25 Q397.4594,984.8906 397.2719,984.7031 Q396.9438,984.3281 396.3344,984.1094 Q395.725,983.8906 395.1,983.8906 Q394.3344,983.8906 393.6938,984.2188 Q393.0688,984.5469 392.5688,985.2969 Q392.0844,986.0469 392.0844,987.0781 L392.0844,988.1719 Q392.0844,989.4063 392.975,990.2344 Q393.8656,991.0469 395.4594,991.0469 Q396.3969,991.0469 397.0531,990.7969 Q397.4438,990.6406 397.8656,990.2031 Q398.1313,989.9375 398.2719,989.8594 Q398.4281,989.7813 398.6313,989.7813 Q398.9594,989.7813 399.2094,990.0469 Q399.475,990.2969 399.475,990.6406 Q399.475,990.9844 399.1313,991.3906 Q398.6313,991.9688 397.8344,992.2969 Q396.7563,992.75 395.4594,992.75 Q393.9438,992.75 392.7406,992.125 Q391.7563,991.625 391.0688,990.5625 Q390.3813,989.4844 390.3813,988.2031 L390.3813,987.0469 Q390.3813,985.7188 390.9906,984.5781 Q391.6156,983.4219 392.7094,982.8125 Q393.8031,982.1875 395.0375,982.1875 Q395.7719,982.1875 396.4125,982.3594 Q397.0688,982.5156 397.6156,982.875 Z " fill="#000000"/><text fill="#000000" font-family="sans-serif" font-size="14" lengthAdjust="spacing" textLength="28" x="413.15" y="992.7285">Lote</text><line style="stroke:#181818;stroke-width:0.5;" x1="361.5" x2="462.5" y1="1003" y2="1003"/><rect fill="none" height="6" style="stroke:#C82930;stroke-width:1.0;" width="6" x="368.5" y="1014.3047"/><text fill="#000000" font-family="sans-serif" font-size="14" lengthAdjust="spacing" textLength="55" x="380.5" y="1021.5332">id : Long</text><rect fill="none" height="6" style="stroke:#C82930;stroke-width:1.0;" width="6" x="368.5" y="1031.9141"/><text fill="#000000" font-family="sans-serif" font-size="14" lengthAdjust="spacing" textLength="77" x="380.5" y="1039.1426">Lote : String</text><line style="stroke:#181818;stroke-width:0.5;" x1="361.5" x2="462.5" y1="1046.2188" y2="1046.2188"/></g><!--MD5=[a26d7a8585b446db7fc8ab4626d8ca8a]
class Pedido--><g id="elem_Pedido"><rect codeLine="64" fill="#F1F1F1" height="83.2188" id="Pedido" rx="2.5" ry="2.5" style="stroke:#181818;stroke-width:0.5;" width="224" x="591" y="292.5"/><ellipse cx="676.75" cy="308.5" fill="#ADD1B2" rx="11" ry="11" style="stroke:#181818;stroke-width:1.0;"/><path d="M679.5156,304.375 Q679.6719,304.1563 679.8594,304.0469 Q680.0469,303.9375 680.2656,303.9375 Q680.6406,303.9375 680.875,304.2031 Q681.1094,304.4531 681.1094,305.0625 L681.1094,306.5156 Q681.1094,307.125 680.875,307.3906 Q680.6406,307.6563 680.2656,307.6563 Q679.9219,307.6563 679.7188,307.4531 Q679.5156,307.2656 679.4063,306.75 Q679.3594,306.3906 679.1719,306.2031 Q678.8438,305.8281 678.2344,305.6094 Q677.625,305.3906 677,305.3906 Q676.2344,305.3906 675.5938,305.7188 Q674.9688,306.0469 674.4688,306.7969 Q673.9844,307.5469 673.9844,308.5781 L673.9844,309.6719 Q673.9844,310.9063 674.875,311.7344 Q675.7656,312.5469 677.3594,312.5469 Q678.2969,312.5469 678.9531,312.2969 Q679.3438,312.1406 679.7656,311.7031 Q680.0313,311.4375 680.1719,311.3594 Q680.3281,311.2813 680.5313,311.2813 Q680.8594,311.2813 681.1094,311.5469 Q681.375,311.7969 681.375,312.1406 Q681.375,312.4844 681.0313,312.8906 Q680.5313,313.4688 679.7344,313.7969 Q678.6563,314.25 677.3594,314.25 Q675.8438,314.25 674.6406,313.625 Q673.6563,313.125 672.9688,312.0625 Q672.2813,310.9844 672.2813,309.7031 L672.2813,308.5469 Q672.2813,307.2188 672.8906,306.0781 Q673.5156,304.9219 674.6094,304.3125 Q675.7031,303.6875 676.9375,303.6875 Q677.6719,303.6875 678.3125,303.8594 Q678.9688,304.0156 679.5156,304.375 Z " fill="#000000"/><text fill="#000000" font-family="sans-serif" font-size="14" lengthAdjust="spacing" textLength="44" x="697.25" y="314.2285">Pedido</text><line style="stroke:#181818;stroke-width:0.5;" x1="592" x2="814" y1="324.5" y2="324.5"/><rect fill="none" height="6" style="stroke:#C82930;stroke-width:1.0;" width="6" x="599" y="335.8047"/><text fill="#000000" font-family="sans-serif" font-size="14" lengthAdjust="spacing" textLength="51" x="611" y="343.0332">id: Long</text><rect fill="none" height="6" style="stroke:#C82930;stroke-width:1.0;" width="6" x="599" y="353.4141"/><text fill="#000000" font-family="sans-serif" font-size="14" lengthAdjust="spacing" textLength="198" x="611" y="360.6426">codigoDeRastreamento : String</text><line style="stroke:#181818;stroke-width:0.5;" x1="592" x2="814" y1="367.7188" y2="367.7188"/></g><!--MD5=[8176294b3acce9010a4085be6f56b615]
class ItemDaVenda--><g id="elem_ItemDaVenda"><rect codeLine="69" fill="#F1F1F1" height="83.2188" id="ItemDaVenda" rx="2.5" ry="2.5" style="stroke:#181818;stroke-width:0.5;" width="137" x="419.5" y="489"/><ellipse cx="443.5" cy="505" fill="#ADD1B2" rx="11" ry="11" style="stroke:#181818;stroke-width:1.0;"/><path d="M446.2656,500.875 Q446.4219,500.6563 446.6094,500.5469 Q446.7969,500.4375 447.0156,500.4375 Q447.3906,500.4375 447.625,500.7031 Q447.8594,500.9531 447.8594,501.5625 L447.8594,503.0156 Q447.8594,503.625 447.625,503.8906 Q447.3906,504.1563 447.0156,504.1563 Q446.6719,504.1563 446.4688,503.9531 Q446.2656,503.7656 446.1563,503.25 Q446.1094,502.8906 445.9219,502.7031 Q445.5938,502.3281 444.9844,502.1094 Q444.375,501.8906 443.75,501.8906 Q442.9844,501.8906 442.3438,502.2188 Q441.7188,502.5469 441.2188,503.2969 Q440.7344,504.0469 440.7344,505.0781 L440.7344,506.1719 Q440.7344,507.4063 441.625,508.2344 Q442.5156,509.0469 444.1094,509.0469 Q445.0469,509.0469 445.7031,508.7969 Q446.0938,508.6406 446.5156,508.2031 Q446.7813,507.9375 446.9219,507.8594 Q447.0781,507.7813 447.2813,507.7813 Q447.6094,507.7813 447.8594,508.0469 Q448.125,508.2969 448.125,508.6406 Q448.125,508.9844 447.7813,509.3906 Q447.2813,509.9688 446.4844,510.2969 Q445.4063,510.75 444.1094,510.75 Q442.5938,510.75 441.3906,510.125 Q440.4063,509.625 439.7188,508.5625 Q439.0313,507.4844 439.0313,506.2031 L439.0313,505.0469 Q439.0313,503.7188 439.6406,502.5781 Q440.2656,501.4219 441.3594,500.8125 Q442.4531,500.1875 443.6875,500.1875 Q444.4219,500.1875 445.0625,500.3594 Q445.7188,500.5156 446.2656,500.875 Z " fill="#000000"/><text fill="#000000" font-family="sans-serif" font-size="14" lengthAdjust="spacing" textLength="85" x="459.5" y="510.7285">ItemDaVenda</text><line style="stroke:#181818;stroke-width:0.5;" x1="420.5" x2="555.5" y1="521" y2="521"/><rect fill="none" height="6" style="stroke:#C82930;stroke-width:1.0;" width="6" x="427.5" y="532.3047"/><text fill="#000000" font-family="sans-serif" font-size="14" lengthAdjust="spacing" textLength="89" x="439.5" y="539.5332">preco: Double</text><rect fill="none" height="6" style="stroke:#C82930;stroke-width:1.0;" width="6" x="427.5" y="549.9141"/><text fill="#000000" font-family="sans-serif" font-size="14" lengthAdjust="spacing" textLength="111" x="439.5" y="557.1426">quantidade: Long</text><line style="stroke:#181818;stroke-width:0.5;" x1="420.5" x2="555.5" y1="564.2188" y2="564.2188"/></g><!--MD5=[2e7fe3accda1b291f0868f59fa248502]
class Pix--><g id="elem_Pix"><rect codeLine="74" fill="#F1F1F1" height="136.0469" id="Pix" rx="2.5" ry="2.5" style="stroke:#181818;stroke-width:0.5;" width="179" x="1154.5" y="266"/><ellipse cx="1230.75" cy="282" fill="#ADD1B2" rx="11" ry="11" style="stroke:#181818;stroke-width:1.0;"/><path d="M1233.5156,277.875 Q1233.6719,277.6563 1233.8594,277.5469 Q1234.0469,277.4375 1234.2656,277.4375 Q1234.6406,277.4375 1234.875,277.7031 Q1235.1094,277.9531 1235.1094,278.5625 L1235.1094,280.0156 Q1235.1094,280.625 1234.875,280.8906 Q1234.6406,281.1563 1234.2656,281.1563 Q1233.9219,281.1563 1233.7188,280.9531 Q1233.5156,280.7656 1233.4063,280.25 Q1233.3594,279.8906 1233.1719,279.7031 Q1232.8438,279.3281 1232.2344,279.1094 Q1231.625,278.8906 1231,278.8906 Q1230.2344,278.8906 1229.5938,279.2188 Q1228.9688,279.5469 1228.4688,280.2969 Q1227.9844,281.0469 1227.9844,282.0781 L1227.9844,283.1719 Q1227.9844,284.4063 1228.875,285.2344 Q1229.7656,286.0469 1231.3594,286.0469 Q1232.2969,286.0469 1232.9531,285.7969 Q1233.3438,285.6406 1233.7656,285.2031 Q1234.0313,284.9375 1234.1719,284.8594 Q1234.3281,284.7813 1234.5313,284.7813 Q1234.8594,284.7813 1235.1094,285.0469 Q1235.375,285.2969 1235.375,285.6406 Q1235.375,285.9844 1235.0313,286.3906 Q1234.5313,286.9688 1233.7344,287.2969 Q1232.6563,287.75 1231.3594,287.75 Q1229.8438,287.75 1228.6406,287.125 Q1227.6563,286.625 1226.9688,285.5625 Q1226.2813,284.4844 1226.2813,283.2031 L1226.2813,282.0469 Q1226.2813,280.7188 1226.8906,279.5781 Q1227.5156,278.4219 1228.6094,277.8125 Q1229.7031,277.1875 1230.9375,277.1875 Q1231.6719,277.1875 1232.3125,277.3594 Q1232.9688,277.5156 1233.5156,277.875 Z " fill="#000000"/><text fill="#000000" font-family="sans-serif" font-size="14" lengthAdjust="spacing" textLength="18" x="1251.25" y="287.7285">Pix</text><line style="stroke:#181818;stroke-width:0.5;" x1="1155.5" x2="1332.5" y1="298" y2="298"/><rect fill="none" height="6" style="stroke:#C82930;stroke-width:1.0;" width="6" x="1162.5" y="309.3047"/><text fill="#000000" font-family="sans-serif" font-size="14" lengthAdjust="spacing" textLength="51" x="1174.5" y="316.5332">id: Long</text><rect fill="none" height="6" style="stroke:#C82930;stroke-width:1.0;" width="6" x="1162.5" y="326.9141"/><text fill="#000000" font-family="sans-serif" font-size="14" lengthAdjust="spacing" textLength="124" x="1174.5" y="334.1426">nomeCliente: String</text><rect fill="none" height="6" style="stroke:#C82930;stroke-width:1.0;" width="6" x="1162.5" y="344.5234"/><text fill="#000000" font-family="sans-serif" font-size="14" lengthAdjust="spacing" textLength="150" x="1174.5" y="351.752">nomeRecebedor: String</text><rect fill="none" height="6" style="stroke:#C82930;stroke-width:1.0;" width="6" x="1162.5" y="362.1328"/><text fill="#000000" font-family="sans-serif" font-size="14" lengthAdjust="spacing" textLength="153" x="1174.5" y="369.3613">chaveRecebedor: String</text><rect fill="none" height="6" style="stroke:#C82930;stroke-width:1.0;" width="6" x="1162.5" y="379.7422"/><text fill="#000000" font-family="sans-serif" font-size="14" lengthAdjust="spacing" textLength="84" x="1174.5" y="386.9707">valor: Double</text><line style="stroke:#181818;stroke-width:0.5;" x1="1155.5" x2="1332.5" y1="394.0469" y2="394.0469"/></g><!--MD5=[519639aa9d22978486c2f078178806cf]
class CartaoDeCredito--><g id="elem_CartaoDeCredito"><rect codeLine="82" fill="#F1F1F1" height="153.6563" id="CartaoDeCredito" rx="2.5" ry="2.5" style="stroke:#181818;stroke-width:0.5;" width="162" x="1369" y="257"/><ellipse cx="1394.35" cy="273" fill="#ADD1B2" rx="11" ry="11" style="stroke:#181818;stroke-width:1.0;"/><path d="M1397.1156,268.875 Q1397.2719,268.6563 1397.4594,268.5469 Q1397.6469,268.4375 1397.8656,268.4375 Q1398.2406,268.4375 1398.475,268.7031 Q1398.7094,268.9531 1398.7094,269.5625 L1398.7094,271.0156 Q1398.7094,271.625 1398.475,271.8906 Q1398.2406,272.1563 1397.8656,272.1563 Q1397.5219,272.1563 1397.3188,271.9531 Q1397.1156,271.7656 1397.0063,271.25 Q1396.9594,270.8906 1396.7719,270.7031 Q1396.4438,270.3281 1395.8344,270.1094 Q1395.225,269.8906 1394.6,269.8906 Q1393.8344,269.8906 1393.1938,270.2188 Q1392.5688,270.5469 1392.0688,271.2969 Q1391.5844,272.0469 1391.5844,273.0781 L1391.5844,274.1719 Q1391.5844,275.4063 1392.475,276.2344 Q1393.3656,277.0469 1394.9594,277.0469 Q1395.8969,277.0469 1396.5531,276.7969 Q1396.9438,276.6406 1397.3656,276.2031 Q1397.6313,275.9375 1397.7719,275.8594 Q1397.9281,275.7813 1398.1313,275.7813 Q1398.4594,275.7813 1398.7094,276.0469 Q1398.975,276.2969 1398.975,276.6406 Q1398.975,276.9844 1398.6313,277.3906 Q1398.1313,277.9688 1397.3344,278.2969 Q1396.2563,278.75 1394.9594,278.75 Q1393.4438,278.75 1392.2406,278.125 Q1391.2563,277.625 1390.5688,276.5625 Q1389.8813,275.4844 1389.8813,274.2031 L1389.8813,273.0469 Q1389.8813,271.7188 1390.4906,270.5781 Q1391.1156,269.4219 1392.2094,268.8125 Q1393.3031,268.1875 1394.5375,268.1875 Q1395.2719,268.1875 1395.9125,268.3594 Q1396.5688,268.5156 1397.1156,268.875 Z " fill="#000000"/><text fill="#000000" font-family="sans-serif" font-size="14" lengthAdjust="spacing" textLength="107" x="1410.65" y="278.7285">CartaoDeCredito</text><line style="stroke:#181818;stroke-width:0.5;" x1="1370" x2="1530" y1="289" y2="289"/><rect fill="none" height="6" style="stroke:#C82930;stroke-width:1.0;" width="6" x="1377" y="300.3047"/><text fill="#000000" font-family="sans-serif" font-size="14" lengthAdjust="spacing" textLength="51" x="1389" y="307.5332">id: Long</text><rect fill="none" height="6" style="stroke:#C82930;stroke-width:1.0;" width="6" x="1377" y="317.9141"/><text fill="#000000" font-family="sans-serif" font-size="14" lengthAdjust="spacing" textLength="136" x="1389" y="325.1426">numeroCartao: String</text><rect fill="none" height="6" style="stroke:#C82930;stroke-width:1.0;" width="6" x="1377" y="335.5234"/><text fill="#000000" font-family="sans-serif" font-size="14" lengthAdjust="spacing" textLength="121" x="1389" y="342.752">mesValidade: Long</text><rect fill="none" height="6" style="stroke:#C82930;stroke-width:1.0;" width="6" x="1377" y="353.1328"/><text fill="#000000" font-family="sans-serif" font-size="14" lengthAdjust="spacing" textLength="119" x="1389" y="360.3613">anoValidade: Long</text><rect fill="none" height="6" style="stroke:#C82930;stroke-width:1.0;" width="6" x="1377" y="370.7422"/><text fill="#000000" font-family="sans-serif" font-size="14" lengthAdjust="spacing" textLength="136" x="1389" y="377.9707">codSeguranca : Long</text><rect fill="none" height="6" style="stroke:#C82930;stroke-width:1.0;" width="6" x="1377" y="388.3516"/><text fill="#000000" font-family="sans-serif" font-size="14" lengthAdjust="spacing" textLength="84" x="1389" y="395.5801">valor: Double</text><line style="stroke:#181818;stroke-width:0.5;" x1="1370" x2="1530" y1="402.6563" y2="402.6563"/></g><!--MD5=[62dce695040643920268b1c722f5a660]
class Boleto--><g id="elem_Boleto"><rect codeLine="91" fill="#F1F1F1" height="136.0469" id="Boleto" rx="2.5" ry="2.5" style="stroke:#181818;stroke-width:0.5;" width="242" x="877" y="266"/><ellipse cx="973.75" cy="282" fill="#ADD1B2" rx="11" ry="11" style="stroke:#181818;stroke-width:1.0;"/><path d="M976.5156,277.875 Q976.6719,277.6563 976.8594,277.5469 Q977.0469,277.4375 977.2656,277.4375 Q977.6406,277.4375 977.875,277.7031 Q978.1094,277.9531 978.1094,278.5625 L978.1094,280.0156 Q978.1094,280.625 977.875,280.8906 Q977.6406,281.1563 977.2656,281.1563 Q976.9219,281.1563 976.7188,280.9531 Q976.5156,280.7656 976.4063,280.25 Q976.3594,279.8906 976.1719,279.7031 Q975.8438,279.3281 975.2344,279.1094 Q974.625,278.8906 974,278.8906 Q973.2344,278.8906 972.5938,279.2188 Q971.9688,279.5469 971.4688,280.2969 Q970.9844,281.0469 970.9844,282.0781 L970.9844,283.1719 Q970.9844,284.4063 971.875,285.2344 Q972.7656,286.0469 974.3594,286.0469 Q975.2969,286.0469 975.9531,285.7969 Q976.3438,285.6406 976.7656,285.2031 Q977.0313,284.9375 977.1719,284.8594 Q977.3281,284.7813 977.5313,284.7813 Q977.8594,284.7813 978.1094,285.0469 Q978.375,285.2969 978.375,285.6406 Q978.375,285.9844 978.0313,286.3906 Q977.5313,286.9688 976.7344,287.2969 Q975.6563,287.75 974.3594,287.75 Q972.8438,287.75 971.6406,287.125 Q970.6563,286.625 969.9688,285.5625 Q969.2813,284.4844 969.2813,283.2031 L969.2813,282.0469 Q969.2813,280.7188 969.8906,279.5781 Q970.5156,278.4219 971.6094,277.8125 Q972.7031,277.1875 973.9375,277.1875 Q974.6719,277.1875 975.3125,277.3594 Q975.9688,277.5156 976.5156,277.875 Z " fill="#000000"/><text fill="#000000" font-family="sans-serif" font-size="14" lengthAdjust="spacing" textLength="40" x="994.25" y="287.7285">Boleto</text><line style="stroke:#181818;stroke-width:0.5;" x1="878" x2="1118" y1="298" y2="298"/><rect fill="none" height="6" style="stroke:#C82930;stroke-width:1.0;" width="6" x="885" y="309.3047"/><text fill="#000000" font-family="sans-serif" font-size="14" lengthAdjust="spacing" textLength="51" x="897" y="316.5332">id: Long</text><rect fill="none" height="6" style="stroke:#C82930;stroke-width:1.0;" width="6" x="885" y="326.9141"/><text fill="#000000" font-family="sans-serif" font-size="14" lengthAdjust="spacing" textLength="120" x="897" y="334.1426">nomeBanco: String</text><rect fill="none" height="6" style="stroke:#C82930;stroke-width:1.0;" width="6" x="885" y="344.5234"/><text fill="#000000" font-family="sans-serif" font-size="14" lengthAdjust="spacing" textLength="216" x="897" y="351.752">dataHoraGeracao: LocalDateTime</text><rect fill="none" height="6" style="stroke:#C82930;stroke-width:1.0;" width="6" x="885" y="362.1328"/><text fill="#000000" font-family="sans-serif" font-size="14" lengthAdjust="spacing" textLength="198" x="897" y="369.3613">dataHoraLimite: LocalDateTime</text><rect fill="none" height="6" style="stroke:#C82930;stroke-width:1.0;" width="6" x="885" y="379.7422"/><text fill="#000000" font-family="sans-serif" font-size="14" lengthAdjust="spacing" textLength="84" x="897" y="386.9707">valor: Double</text><line style="stroke:#181818;stroke-width:0.5;" x1="878" x2="1118" y1="394.0469" y2="394.0469"/></g><!--MD5=[dec5c48edfb884ca3667398a47526670]
class FormaDePagamento--><g id="elem_FormaDePagamento"><rect codeLine="99" fill="#F1F1F1" height="83.2188" id="FormaDePagamento" rx="2.5" ry="2.5" style="stroke:#181818;stroke-width:0.5;" width="163" x="1068.5" y="489"/><ellipse cx="1083.5" cy="505" fill="#ADD1B2" rx="11" ry="11" style="stroke:#181818;stroke-width:1.0;"/><path d="M1086.2656,500.875 Q1086.4219,500.6563 1086.6094,500.5469 Q1086.7969,500.4375 1087.0156,500.4375 Q1087.3906,500.4375 1087.625,500.7031 Q1087.8594,500.9531 1087.8594,501.5625 L1087.8594,503.0156 Q1087.8594,503.625 1087.625,503.8906 Q1087.3906,504.1563 1087.0156,504.1563 Q1086.6719,504.1563 1086.4688,503.9531 Q1086.2656,503.7656 1086.1563,503.25 Q1086.1094,502.8906 1085.9219,502.7031 Q1085.5938,502.3281 1084.9844,502.1094 Q1084.375,501.8906 1083.75,501.8906 Q1082.9844,501.8906 1082.3438,502.2188 Q1081.7188,502.5469 1081.2188,503.2969 Q1080.7344,504.0469 1080.7344,505.0781 L1080.7344,506.1719 Q1080.7344,507.4063 1081.625,508.2344 Q1082.5156,509.0469 1084.1094,509.0469 Q1085.0469,509.0469 1085.7031,508.7969 Q1086.0938,508.6406 1086.5156,508.2031 Q1086.7813,507.9375 1086.9219,507.8594 Q1087.0781,507.7813 1087.2813,507.7813 Q1087.6094,507.7813 1087.8594,508.0469 Q1088.125,508.2969 1088.125,508.6406 Q1088.125,508.9844 1087.7813,509.3906 Q1087.2813,509.9688 1086.4844,510.2969 Q1085.4063,510.75 1084.1094,510.75 Q1082.5938,510.75 1081.3906,510.125 Q1080.4063,509.625 1079.7188,508.5625 Q1079.0313,507.4844 1079.0313,506.2031 L1079.0313,505.0469 Q1079.0313,503.7188 1079.6406,502.5781 Q1080.2656,501.4219 1081.3594,500.8125 Q1082.4531,500.1875 1083.6875,500.1875 Q1084.4219,500.1875 1085.0625,500.3594 Q1085.7188,500.5156 1086.2656,500.875 Z " fill="#000000"/><text fill="#000000" font-family="sans-serif" font-size="14" lengthAdjust="spacing" textLength="131" x="1097.5" y="510.7285">FormaDePagamento</text><line style="stroke:#181818;stroke-width:0.5;" x1="1069.5" x2="1230.5" y1="521" y2="521"/><rect fill="none" height="6" style="stroke:#C82930;stroke-width:1.0;" width="6" x="1076.5" y="532.3047"/><text fill="#000000" font-family="sans-serif" font-size="14" lengthAdjust="spacing" textLength="55" x="1088.5" y="539.5332">id : Long</text><rect fill="none" height="6" style="stroke:#C82930;stroke-width:1.0;" width="6" x="1076.5" y="549.9141"/><text fill="#000000" font-family="sans-serif" font-size="14" lengthAdjust="spacing" textLength="128" x="1088.5" y="557.1426">nomeCliente : String</text><line style="stroke:#181818;stroke-width:0.5;" x1="1069.5" x2="1230.5" y1="564.2188" y2="564.2188"/></g><!--MD5=[e3d83ec5fd90ea9f3f2bfe265cb53458]
class Status--><g id="elem_Status"><rect codeLine="104" fill="#F1F1F1" height="136.0469" id="Status" rx="2.5" ry="2.5" style="stroke:#181818;stroke-width:0.5;" width="264" x="530" y="703.5"/><ellipse cx="637.75" cy="719.5" fill="#EB937F" rx="11" ry="11" style="stroke:#181818;stroke-width:1.0;"/><path d="M636.6094,720.2969 L636.6094,722.7969 L640.9375,722.7969 L640.9375,721.875 Q640.9375,721.2656 641.1719,721 Q641.4219,720.7344 641.7969,720.7344 Q642.1719,720.7344 642.4063,721 Q642.6406,721.2656 642.6406,721.875 L642.6406,724.5 L634.6406,724.5 Q634.0156,724.5 633.75,724.2656 Q633.5,724.0313 633.5,723.6406 Q633.5,723.2656 633.7656,723.0313 Q634.0313,722.7969 634.6406,722.7969 L634.9063,722.7969 L634.9063,716.1406 L634.6406,716.1406 Q634.0156,716.1406 633.75,715.9063 Q633.5,715.6719 633.5,715.2813 Q633.5,714.9063 633.75,714.6719 Q634.0156,714.4375 634.6406,714.4375 L642.2656,714.4375 L642.2656,717.0313 Q642.2656,717.6406 642.0313,717.9063 Q641.8125,718.1563 641.4219,718.1563 Q641.0469,718.1563 640.8125,717.9063 Q640.5781,717.6406 640.5781,717.0313 L640.5781,716.1406 L636.6094,716.1406 L636.6094,718.5938 L638.0938,718.5938 Q638.0938,717.9375 638.2188,717.75 Q638.4844,717.3438 638.9531,717.3438 Q639.3281,717.3438 639.5625,717.6094 Q639.7969,717.8594 639.7969,718.4688 L639.7969,720.4375 Q639.7969,720.9844 639.6719,721.1719 Q639.4063,721.5625 638.9531,721.5625 Q638.4844,721.5625 638.2188,721.1563 Q638.0938,720.9688 638.0938,720.2969 L636.6094,720.2969 Z " fill="#000000"/><text fill="#000000" font-family="sans-serif" font-size="14" lengthAdjust="spacing" textLength="40" x="658.25" y="725.2285">Status</text><line style="stroke:#181818;stroke-width:0.5;" x1="531" x2="793" y1="735.5" y2="735.5"/><ellipse cx="541" cy="749.8047" fill="none" rx="3" ry="3" style="stroke:#038048;stroke-width:1.0;"/><text fill="#000000" font-family="sans-serif" font-size="14" lengthAdjust="spacing" textLength="203" x="550" y="754.0332">Aguardando Pagamento : String</text><ellipse cx="541" cy="767.4141" fill="none" rx="3" ry="3" style="stroke:#038048;stroke-width:1.0;"/><text fill="#000000" font-family="sans-serif" font-size="14" lengthAdjust="spacing" textLength="82" x="550" y="771.6426">Pago : String</text><ellipse cx="541" cy="785.0234" fill="none" rx="3" ry="3" style="stroke:#038048;stroke-width:1.0;"/><text fill="#000000" font-family="sans-serif" font-size="14" lengthAdjust="spacing" textLength="179" x="550" y="789.252">Retirado do Estoque : String</text><ellipse cx="541" cy="802.6328" fill="none" rx="3" ry="3" style="stroke:#038048;stroke-width:1.0;"/><text fill="#000000" font-family="sans-serif" font-size="14" lengthAdjust="spacing" textLength="238" x="550" y="806.8613">Recebido pela transportadora : String</text><ellipse cx="541" cy="820.2422" fill="none" rx="3" ry="3" style="stroke:#038048;stroke-width:1.0;"/><text fill="#000000" font-family="sans-serif" font-size="14" lengthAdjust="spacing" textLength="107" x="550" y="824.4707">Entregue : String</text><line style="stroke:#181818;stroke-width:0.5;" x1="531" x2="793" y1="831.5469" y2="831.5469"/></g><!--MD5=[f163b030761c5079e67a75f8b0aff7d2]
class TipoTelefone--><g id="elem_TipoTelefone"><rect codeLine="112" fill="#F1F1F1" height="136.0469" id="TipoTelefone" rx="2.5" ry="2.5" style="stroke:#181818;stroke-width:0.5;" width="244" x="81" y="1650"/><ellipse cx="156.75" cy="1666" fill="#EB937F" rx="11" ry="11" style="stroke:#181818;stroke-width:1.0;"/><path d="M155.6094,1666.7969 L155.6094,1669.2969 L159.9375,1669.2969 L159.9375,1668.375 Q159.9375,1667.7656 160.1719,1667.5 Q160.4219,1667.2344 160.7969,1667.2344 Q161.1719,1667.2344 161.4063,1667.5 Q161.6406,1667.7656 161.6406,1668.375 L161.6406,1671 L153.6406,1671 Q153.0156,1671 152.75,1670.7656 Q152.5,1670.5313 152.5,1670.1406 Q152.5,1669.7656 152.7656,1669.5313 Q153.0313,1669.2969 153.6406,1669.2969 L153.9063,1669.2969 L153.9063,1662.6406 L153.6406,1662.6406 Q153.0156,1662.6406 152.75,1662.4063 Q152.5,1662.1719 152.5,1661.7813 Q152.5,1661.4063 152.75,1661.1719 Q153.0156,1660.9375 153.6406,1660.9375 L161.2656,1660.9375 L161.2656,1663.5313 Q161.2656,1664.1406 161.0313,1664.4063 Q160.8125,1664.6563 160.4219,1664.6563 Q160.0469,1664.6563 159.8125,1664.4063 Q159.5781,1664.1406 159.5781,1663.5313 L159.5781,1662.6406 L155.6094,1662.6406 L155.6094,1665.0938 L157.0938,1665.0938 Q157.0938,1664.4375 157.2188,1664.25 Q157.4844,1663.8438 157.9531,1663.8438 Q158.3281,1663.8438 158.5625,1664.1094 Q158.7969,1664.3594 158.7969,1664.9688 L158.7969,1666.9375 Q158.7969,1667.4844 158.6719,1667.6719 Q158.4063,1668.0625 157.9531,1668.0625 Q157.4844,1668.0625 157.2188,1667.6563 Q157.0938,1667.4688 157.0938,1666.7969 L155.6094,1666.7969 Z " fill="#000000"/><text fill="#000000" font-family="sans-serif" font-size="14" lengthAdjust="spacing" textLength="84" x="177.25" y="1671.7285">TipoTelefone</text><line style="stroke:#181818;stroke-width:0.5;" x1="82" x2="324" y1="1682" y2="1682"/><ellipse cx="92" cy="1696.3047" fill="none" rx="3" ry="3" style="stroke:#038048;stroke-width:1.0;"/><text fill="#000000" font-family="sans-serif" font-size="14" lengthAdjust="spacing" textLength="152" x="101" y="1700.5332">Fixo Residencial : String</text><ellipse cx="92" cy="1713.9141" fill="none" rx="3" ry="3" style="stroke:#038048;stroke-width:1.0;"/><text fill="#000000" font-family="sans-serif" font-size="14" lengthAdjust="spacing" textLength="142" x="101" y="1718.1426">Fixo Comercial : String</text><ellipse cx="92" cy="1731.5234" fill="none" rx="3" ry="3" style="stroke:#038048;stroke-width:1.0;"/><text fill="#000000" font-family="sans-serif" font-size="14" lengthAdjust="spacing" textLength="158" x="101" y="1735.752">Celular Particular : String</text><ellipse cx="92" cy="1749.1328" fill="none" rx="3" ry="3" style="stroke:#038048;stroke-width:1.0;"/><text fill="#000000" font-family="sans-serif" font-size="14" lengthAdjust="spacing" textLength="161" x="101" y="1753.3613">Celular Comercial : String</text><ellipse cx="92" cy="1766.7422" fill="none" rx="3" ry="3" style="stroke:#038048;stroke-width:1.0;"/><text fill="#000000" font-family="sans-serif" font-size="14" lengthAdjust="spacing" textLength="218" x="101" y="1770.9707">Telefone De Outra Pessoa : String</text><line style="stroke:#181818;stroke-width:0.5;" x1="82" x2="324" y1="1778.0469" y2="1778.0469"/></g><!--MD5=[2e63fdea7e8996b75d60685fedfaf46b]
class StatusDoPedido--><g id="elem_StatusDoPedido"><rect codeLine="120" fill="#F1F1F1" height="83.2188" id="StatusDoPedido" rx="2.5" ry="2.5" style="stroke:#181818;stroke-width:0.5;" width="187" x="594.5" y="489"/><ellipse cx="633.35" cy="505" fill="#ADD1B2" rx="11" ry="11" style="stroke:#181818;stroke-width:1.0;"/><path d="M636.1156,500.875 Q636.2719,500.6563 636.4594,500.5469 Q636.6469,500.4375 636.8656,500.4375 Q637.2406,500.4375 637.475,500.7031 Q637.7094,500.9531 637.7094,501.5625 L637.7094,503.0156 Q637.7094,503.625 637.475,503.8906 Q637.2406,504.1563 636.8656,504.1563 Q636.5219,504.1563 636.3188,503.9531 Q636.1156,503.7656 636.0063,503.25 Q635.9594,502.8906 635.7719,502.7031 Q635.4438,502.3281 634.8344,502.1094 Q634.225,501.8906 633.6,501.8906 Q632.8344,501.8906 632.1938,502.2188 Q631.5688,502.5469 631.0688,503.2969 Q630.5844,504.0469 630.5844,505.0781 L630.5844,506.1719 Q630.5844,507.4063 631.475,508.2344 Q632.3656,509.0469 633.9594,509.0469 Q634.8969,509.0469 635.5531,508.7969 Q635.9438,508.6406 636.3656,508.2031 Q636.6313,507.9375 636.7719,507.8594 Q636.9281,507.7813 637.1313,507.7813 Q637.4594,507.7813 637.7094,508.0469 Q637.975,508.2969 637.975,508.6406 Q637.975,508.9844 637.6313,509.3906 Q637.1313,509.9688 636.3344,510.2969 Q635.2563,510.75 633.9594,510.75 Q632.4438,510.75 631.2406,510.125 Q630.2563,509.625 629.5688,508.5625 Q628.8813,507.4844 628.8813,506.2031 L628.8813,505.0469 Q628.8813,503.7188 629.4906,502.5781 Q630.1156,501.4219 631.2094,500.8125 Q632.3031,500.1875 633.5375,500.1875 Q634.2719,500.1875 634.9125,500.3594 Q635.5688,500.5156 636.1156,500.875 Z " fill="#000000"/><text fill="#000000" font-family="sans-serif" font-size="14" lengthAdjust="spacing" textLength="102" x="652.65" y="510.7285">StatusDoPedido</text><line style="stroke:#181818;stroke-width:0.5;" x1="595.5" x2="780.5" y1="521" y2="521"/><rect fill="none" height="6" style="stroke:#C82930;stroke-width:1.0;" width="6" x="602.5" y="532.3047"/><text fill="#000000" font-family="sans-serif" font-size="14" lengthAdjust="spacing" textLength="55" x="614.5" y="539.5332">id : Long</text><rect fill="none" height="6" style="stroke:#C82930;stroke-width:1.0;" width="6" x="602.5" y="549.9141"/><text fill="#000000" font-family="sans-serif" font-size="14" lengthAdjust="spacing" textLength="161" x="614.5" y="557.1426">dataHora: LocalDateTime</text><line style="stroke:#181818;stroke-width:0.5;" x1="595.5" x2="780.5" y1="564.2188" y2="564.2188"/></g><!--MD5=[cf9f33789cda161594144eefa407441c]
class Logistica--><g id="elem_Logistica"><rect codeLine="125" fill="#F1F1F1" height="118.4375" id="Logistica" rx="2.5" ry="2.5" style="stroke:#181818;stroke-width:0.5;" width="165" x="529.5" y="1150.5"/><ellipse cx="579.75" cy="1166.5" fill="#ADD1B2" rx="11" ry="11" style="stroke:#181818;stroke-width:1.0;"/><path d="M582.5156,1162.375 Q582.6719,1162.1563 582.8594,1162.0469 Q583.0469,1161.9375 583.2656,1161.9375 Q583.6406,1161.9375 583.875,1162.2031 Q584.1094,1162.4531 584.1094,1163.0625 L584.1094,1164.5156 Q584.1094,1165.125 583.875,1165.3906 Q583.6406,1165.6563 583.2656,1165.6563 Q582.9219,1165.6563 582.7188,1165.4531 Q582.5156,1165.2656 582.4063,1164.75 Q582.3594,1164.3906 582.1719,1164.2031 Q581.8438,1163.8281 581.2344,1163.6094 Q580.625,1163.3906 580,1163.3906 Q579.2344,1163.3906 578.5938,1163.7188 Q577.9688,1164.0469 577.4688,1164.7969 Q576.9844,1165.5469 576.9844,1166.5781 L576.9844,1167.6719 Q576.9844,1168.9063 577.875,1169.7344 Q578.7656,1170.5469 580.3594,1170.5469 Q581.2969,1170.5469 581.9531,1170.2969 Q582.3438,1170.1406 582.7656,1169.7031 Q583.0313,1169.4375 583.1719,1169.3594 Q583.3281,1169.2813 583.5313,1169.2813 Q583.8594,1169.2813 584.1094,1169.5469 Q584.375,1169.7969 584.375,1170.1406 Q584.375,1170.4844 584.0313,1170.8906 Q583.5313,1171.4688 582.7344,1171.7969 Q581.6563,1172.25 580.3594,1172.25 Q578.8438,1172.25 577.6406,1171.625 Q576.6563,1171.125 575.9688,1170.0625 Q575.2813,1168.9844 575.2813,1167.7031 L575.2813,1166.5469 Q575.2813,1165.2188 575.8906,1164.0781 Q576.5156,1162.9219 577.6094,1162.3125 Q578.7031,1161.6875 579.9375,1161.6875 Q580.6719,1161.6875 581.3125,1161.8594 Q581.9688,1162.0156 582.5156,1162.375 Z " fill="#000000"/><text fill="#000000" font-family="sans-serif" font-size="14" lengthAdjust="spacing" textLength="56" x="600.25" y="1172.2285">Logistica</text><line style="stroke:#181818;stroke-width:0.5;" x1="530.5" x2="693.5" y1="1182.5" y2="1182.5"/><rect fill="none" height="6" style="stroke:#C82930;stroke-width:1.0;" width="6" x="537.5" y="1193.8047"/><text fill="#000000" font-family="sans-serif" font-size="14" lengthAdjust="spacing" textLength="55" x="549.5" y="1201.0332">id : Long</text><rect fill="none" height="6" style="stroke:#C82930;stroke-width:1.0;" width="6" x="537.5" y="1211.4141"/><text fill="#000000" font-family="sans-serif" font-size="14" lengthAdjust="spacing" textLength="139" x="549.5" y="1218.6426">nomeFantasia : String</text><rect fill="none" height="6" style="stroke:#C82930;stroke-width:1.0;" width="6" x="537.5" y="1229.0234"/><text fill="#000000" font-family="sans-serif" font-size="14" lengthAdjust="spacing" textLength="137" x="549.5" y="1236.252">nomeRegistro : String</text><rect fill="none" height="6" style="stroke:#C82930;stroke-width:1.0;" width="6" x="537.5" y="1246.6328"/><text fill="#000000" font-family="sans-serif" font-size="14" lengthAdjust="spacing" textLength="97" x="549.5" y="1253.8613">endSite : String</text><line style="stroke:#181818;stroke-width:0.5;" x1="530.5" x2="693.5" y1="1260.9375" y2="1260.9375"/></g><!--MD5=[1bca349f942a9114993652444a9c5fbf]
class Fornecedor--><g id="elem_Fornecedor"><rect codeLine="132" fill="#F1F1F1" height="118.4375" id="Fornecedor" rx="2.5" ry="2.5" style="stroke:#181818;stroke-width:0.5;" width="165" x="329.5" y="1150.5"/><ellipse cx="371.05" cy="1166.5" fill="#ADD1B2" rx="11" ry="11" style="stroke:#181818;stroke-width:1.0;"/><path d="M373.8156,1162.375 Q373.9719,1162.1563 374.1594,1162.0469 Q374.3469,1161.9375 374.5656,1161.9375 Q374.9406,1161.9375 375.175,1162.2031 Q375.4094,1162.4531 375.4094,1163.0625 L375.4094,1164.5156 Q375.4094,1165.125 375.175,1165.3906 Q374.9406,1165.6563 374.5656,1165.6563 Q374.2219,1165.6563 374.0188,1165.4531 Q373.8156,1165.2656 373.7063,1164.75 Q373.6594,1164.3906 373.4719,1164.2031 Q373.1438,1163.8281 372.5344,1163.6094 Q371.925,1163.3906 371.3,1163.3906 Q370.5344,1163.3906 369.8938,1163.7188 Q369.2688,1164.0469 368.7688,1164.7969 Q368.2844,1165.5469 368.2844,1166.5781 L368.2844,1167.6719 Q368.2844,1168.9063 369.175,1169.7344 Q370.0656,1170.5469 371.6594,1170.5469 Q372.5969,1170.5469 373.2531,1170.2969 Q373.6438,1170.1406 374.0656,1169.7031 Q374.3313,1169.4375 374.4719,1169.3594 Q374.6281,1169.2813 374.8313,1169.2813 Q375.1594,1169.2813 375.4094,1169.5469 Q375.675,1169.7969 375.675,1170.1406 Q375.675,1170.4844 375.3313,1170.8906 Q374.8313,1171.4688 374.0344,1171.7969 Q372.9563,1172.25 371.6594,1172.25 Q370.1438,1172.25 368.9406,1171.625 Q367.9563,1171.125 367.2688,1170.0625 Q366.5813,1168.9844 366.5813,1167.7031 L366.5813,1166.5469 Q366.5813,1165.2188 367.1906,1164.0781 Q367.8156,1162.9219 368.9094,1162.3125 Q370.0031,1161.6875 371.2375,1161.6875 Q371.9719,1161.6875 372.6125,1161.8594 Q373.2688,1162.0156 373.8156,1162.375 Z " fill="#000000"/><text fill="#000000" font-family="sans-serif" font-size="14" lengthAdjust="spacing" textLength="74" x="390.95" y="1172.2285">Fornecedor</text><line style="stroke:#181818;stroke-width:0.5;" x1="330.5" x2="493.5" y1="1182.5" y2="1182.5"/><rect fill="none" height="6" style="stroke:#C82930;stroke-width:1.0;" width="6" x="337.5" y="1193.8047"/><text fill="#000000" font-family="sans-serif" font-size="14" lengthAdjust="spacing" textLength="55" x="349.5" y="1201.0332">id : Long</text><rect fill="none" height="6" style="stroke:#C82930;stroke-width:1.0;" width="6" x="337.5" y="1211.4141"/><text fill="#000000" font-family="sans-serif" font-size="14" lengthAdjust="spacing" textLength="139" x="349.5" y="1218.6426">nomeFantasia : String</text><rect fill="none" height="6" style="stroke:#C82930;stroke-width:1.0;" width="6" x="337.5" y="1229.0234"/><text fill="#000000" font-family="sans-serif" font-size="14" lengthAdjust="spacing" textLength="137" x="349.5" y="1236.252">nomeRegistro : String</text><rect fill="none" height="6" style="stroke:#C82930;stroke-width:1.0;" width="6" x="337.5" y="1246.6328"/><text fill="#000000" font-family="sans-serif" font-size="14" lengthAdjust="spacing" textLength="97" x="349.5" y="1253.8613">endSite : String</text><line style="stroke:#181818;stroke-width:0.5;" x1="330.5" x2="493.5" y1="1260.9375" y2="1260.9375"/></g><!--MD5=[716bba0e94eea125d5a66a891f2c3c34]
class Classificacao--><g id="elem_Classificacao"><rect codeLine="139" fill="#F1F1F1" height="83.2188" id="Classificacao" rx="2.5" ry="2.5" style="stroke:#181818;stroke-width:0.5;" width="115" x="498.5" y="971"/><ellipse cx="513.5" cy="987" fill="#ADD1B2" rx="11" ry="11" style="stroke:#181818;stroke-width:1.0;"/><path d="M516.2656,982.875 Q516.4219,982.6563 516.6094,982.5469 Q516.7969,982.4375 517.0156,982.4375 Q517.3906,982.4375 517.625,982.7031 Q517.8594,982.9531 517.8594,983.5625 L517.8594,985.0156 Q517.8594,985.625 517.625,985.8906 Q517.3906,986.1563 517.0156,986.1563 Q516.6719,986.1563 516.4688,985.9531 Q516.2656,985.7656 516.1563,985.25 Q516.1094,984.8906 515.9219,984.7031 Q515.5938,984.3281 514.9844,984.1094 Q514.375,983.8906 513.75,983.8906 Q512.9844,983.8906 512.3438,984.2188 Q511.7188,984.5469 511.2188,985.2969 Q510.7344,986.0469 510.7344,987.0781 L510.7344,988.1719 Q510.7344,989.4063 511.625,990.2344 Q512.5156,991.0469 514.1094,991.0469 Q515.0469,991.0469 515.7031,990.7969 Q516.0938,990.6406 516.5156,990.2031 Q516.7813,989.9375 516.9219,989.8594 Q517.0781,989.7813 517.2813,989.7813 Q517.6094,989.7813 517.8594,990.0469 Q518.125,990.2969 518.125,990.6406 Q518.125,990.9844 517.7813,991.3906 Q517.2813,991.9688 516.4844,992.2969 Q515.4063,992.75 514.1094,992.75 Q512.5938,992.75 511.3906,992.125 Q510.4063,991.625 509.7188,990.5625 Q509.0313,989.4844 509.0313,988.2031 L509.0313,987.0469 Q509.0313,985.7188 509.6406,984.5781 Q510.2656,983.4219 511.3594,982.8125 Q512.4531,982.1875 513.6875,982.1875 Q514.4219,982.1875 515.0625,982.3594 Q515.7188,982.5156 516.2656,982.875 Z " fill="#000000"/><text fill="#000000" font-family="sans-serif" font-size="14" lengthAdjust="spacing" textLength="83" x="527.5" y="992.7285">Classificacao</text><line style="stroke:#181818;stroke-width:0.5;" x1="499.5" x2="612.5" y1="1003" y2="1003"/><rect fill="none" height="6" style="stroke:#C82930;stroke-width:1.0;" width="6" x="506.5" y="1014.3047"/><text fill="#000000" font-family="sans-serif" font-size="14" lengthAdjust="spacing" textLength="55" x="518.5" y="1021.5332">id : Long</text><rect fill="none" height="6" style="stroke:#C82930;stroke-width:1.0;" width="6" x="506.5" y="1031.9141"/><text fill="#000000" font-family="sans-serif" font-size="14" lengthAdjust="spacing" textLength="84" x="518.5" y="1039.1426">nome : String</text><line style="stroke:#181818;stroke-width:0.5;" x1="499.5" x2="612.5" y1="1046.2188" y2="1046.2188"/></g><!--MD5=[43a7c1a046aa41d1c9842e3954366be4]
link Cliente to Endereco--><g id="link_Cliente_Endereco"><path codeLine="144" d="M288.1711,208.0403 C288.1711,208.0403 276,292.27 276,333 C276,333 276,333 276,1210.5 C276,1266 299.83,1321.56 327.54,1367.4 " fill="none" id="Cliente-Endereco" style="stroke:#181818;stroke-width:1.0;"/><polygon fill="#181818" points="334.47,1378.54,333.1113,1368.7853,331.8284,1374.2948,326.3189,1373.0119,334.47,1378.54" style="stroke:#181818;stroke-width:1.0;"/><line style="stroke:#181818;stroke-width:1.0;" x1="331.8284" x2="327.605" y1="1374.2948" y2="1367.495"/><polygon fill="#181818" points="290.24,196.22,285.2655,201.4405,288.1711,208.0403,293.1457,202.8198,290.24,196.22" style="stroke:#181818;stroke-width:1.0;"/><text fill="#000000" font-family="sans-serif" font-size="13" lengthAdjust="spacing" textLength="7" x="281.4584" y="217.2761">1</text><text fill="#000000" font-family="sans-serif" font-size="13" lengthAdjust="spacing" textLength="5" x="321.592" y="1365.5682">*</text></g><!--MD5=[0eee670c931bdcb457362ad9482be0da]
link Cliente to Telefone--><g id="link_Cliente_Telefone"><path codeLine="145" d="M199.9214,136.1556 C199.9214,136.1556 6,232.95 6,333 C6,333 6,333 6,1210.5 C6,1298.49 76.64,1376.3 133.32,1424.57 " fill="none" id="Cliente-Telefone" style="stroke:#181818;stroke-width:1.0;"/><polygon fill="#181818" points="143.36,1432.95,139.0105,1424.1136,139.5202,1429.7475,133.8864,1430.2572,143.36,1432.95" style="stroke:#181818;stroke-width:1.0;"/><line style="stroke:#181818;stroke-width:1.0;" x1="139.5202" x2="133.375" y1="1429.7475" y2="1424.625"/><polygon fill="#181818" points="211.13,131.87,204.0971,130.2766,199.9214,136.1556,206.9542,137.749,211.13,131.87" style="stroke:#181818;stroke-width:1.0;"/><text fill="#000000" font-family="sans-serif" font-size="13" lengthAdjust="spacing" textLength="7" x="196.5388" y="131.0254">1</text><text fill="#000000" font-family="sans-serif" font-size="13" lengthAdjust="spacing" textLength="5" x="130.3983" y="1423.8097">*</text></g><!--MD5=[2e02b9c779ffd8644f3abfac3c5837c2]
link Funcionario to Endereco--><g id="link_Funcionario_Endereco"><path codeLine="146" d="M228.7629,1313.0259 C228.7629,1313.0259 243.29,1328.31 250,1335 C273.21,1358.14 299.57,1382.01 324.19,1403.38 " fill="none" id="Funcionario-Endereco" style="stroke:#181818;stroke-width:1.0;"/><polygon fill="#181818" points="334.26,1412.06,330.0627,1403.1503,330.4758,1408.792,324.834,1409.2051,334.26,1412.06" style="stroke:#181818;stroke-width:1.0;"/><line style="stroke:#181818;stroke-width:1.0;" x1="330.4758" x2="324.415" y1="1408.792" y2="1403.575"/><polygon fill="#181818" points="220.6,1304.23,221.7495,1311.3489,228.7629,1313.0259,227.6134,1305.907,220.6,1304.23" style="stroke:#181818;stroke-width:1.0;"/><text fill="#000000" font-family="sans-serif" font-size="13" lengthAdjust="spacing" textLength="7" x="219.1886" y="1325.2869">1</text><text fill="#000000" font-family="sans-serif" font-size="13" lengthAdjust="spacing" textLength="7" x="319.5168" y="1402.6153">1</text></g><!--MD5=[b0a86644d144d699e14fe65f35a37764]
link Funcionario to Telefone--><g id="link_Funcionario_Telefone"><path codeLine="147" d="M165.5872,1315.796 C165.5872,1315.796 181.69,1384.73 188.42,1413.58 " fill="none" id="Funcionario-Telefone" style="stroke:#181818;stroke-width:1.0;"/><polygon fill="#181818" points="191.41,1426.37,193.2575,1416.696,190.2725,1421.5011,185.4673,1418.516,191.41,1426.37" style="stroke:#181818;stroke-width:1.0;"/><line style="stroke:#181818;stroke-width:1.0;" x1="190.2725" x2="188.45" y1="1421.5011" y2="1413.705"/><polygon fill="#181818" points="162.86,1304.11,160.3283,1310.8621,165.5872,1315.796,168.1189,1309.0439,162.86,1304.11" style="stroke:#181818;stroke-width:1.0;"/><text fill="#000000" font-family="sans-serif" font-size="13" lengthAdjust="spacing" textLength="7" x="157.2657" y="1325.4794">1</text><text fill="#000000" font-family="sans-serif" font-size="13" lengthAdjust="spacing" textLength="7" x="182.288" y="1415.6571">1</text></g><!--MD5=[fa4150dfb20d23696d4e07f0bb87481e]
link Pedido to Endereco--><g id="link_Pedido_Endereco"><path codeLine="148" d="M806.4567,381.535 C806.4567,381.535 918,463.81 918,529.5 C918,529.5 918,529.5 918,1210.5 C918,1395.81 648.6,1452.05 502.95,1468.91 " fill="none" id="Pedido-Endereco" style="stroke:#181818;stroke-width:1.0;"/><polygon fill="#181818" points="489.68,1470.38,499.0652,1473.3662,494.6497,1469.8303,498.1856,1465.4147,489.68,1470.38" style="stroke:#181818;stroke-width:1.0;"/><line style="stroke:#181818;stroke-width:1.0;" x1="494.6497" x2="502.6" y1="1469.8303" y2="1468.95"/><polygon fill="#181818" points="796.05,375.56,799.2617,382.0164,806.4567,381.535,803.245,375.0786,796.05,375.56" style="stroke:#181818;stroke-width:1.0;"/><text fill="#000000" font-family="sans-serif" font-size="13" lengthAdjust="spacing" textLength="7" x="803.8817" y="397.2745">1</text><text fill="#000000" font-family="sans-serif" font-size="13" lengthAdjust="spacing" textLength="7" x="497.4175" y="1466.4939">1</text></g><!--MD5=[96f11265b4dc7e9444360e8abe2d8977]
link Pedido to ItemDaVenda--><g id="link_Pedido_ItemDaVenda"><path codeLine="149" d="M649.2869,383.5858 C649.2869,383.5858 575.26,450.56 542.88,479.85 " fill="none" id="Pedido-ItemDaVenda" style="stroke:#181818;stroke-width:1.0;"/><polygon fill="#181818" points="533.12,488.68,542.477,485.6065,536.8272,485.3249,537.1088,479.675,533.12,488.68" style="stroke:#181818;stroke-width:1.0;"/><line style="stroke:#181818;stroke-width:1.0;" x1="536.8272" x2="542.76" y1="485.3249" y2="479.96"/><polygon fill="#181818" points="658.19,375.54,651.0565,376.5952,649.2869,383.5858,656.4204,382.5306,658.19,375.54" style="stroke:#181818;stroke-width:1.0;"/><text fill="#000000" font-family="sans-serif" font-size="13" lengthAdjust="spacing" textLength="7" x="643.1887" y="397.2512">1</text><text fill="#000000" font-family="sans-serif" font-size="13" lengthAdjust="spacing" textLength="5" x="534.9126" y="478.2456">*</text></g><!--MD5=[7b21975196ed2737ee780839d12b9bdd]
link ItemDaVenda to Produto--><g id="link_ItemDaVenda_Produto"><path codeLine="150" d="M471.4699,583.4746 C471.4699,583.4746 463.75,607.75 459.79,620.23 " fill="none" id="ItemDaVenda-Produto" style="stroke:#181818;stroke-width:1.0;"/><polygon fill="#181818" points="455.77,632.84,462.3116,625.4774,457.2867,628.0756,454.6885,623.0507,455.77,632.84" style="stroke:#181818;stroke-width:1.0;"/><line style="stroke:#181818;stroke-width:1.0;" x1="457.2867" x2="459.715" y1="628.0756" y2="620.45"/><polygon fill="none" points="475.11,572.04,469.4784,576.5439,471.4699,583.4746,477.1015,578.9707,475.11,572.04" style="stroke:#181818;stroke-width:1.0;"/><text fill="#000000" font-family="sans-serif" font-size="13" lengthAdjust="spacing" textLength="7" x="465.3954" y="593.7512">1</text><text fill="#000000" font-family="sans-serif" font-size="13" lengthAdjust="spacing" textLength="7" x="450.9723" y="622.3264">1</text></g><!--MD5=[cfc280b314fef7d61c6224c39a811578]
link Cliente to Produto--><g id="link_Cliente_Produto"><path codeLine="151" d="M325.15,196.09 C342.11,308.29 370.72,497.49 390.44,627.92 " fill="none" id="Cliente-to-Produto" style="stroke:#181818;stroke-width:1.0;"/><polygon fill="#181818" points="391.2,632.92,393.7912,623.4181,390.4429,627.9776,385.8834,624.6294,391.2,632.92" style="stroke:#181818;stroke-width:1.0;"/><text fill="#000000" font-family="sans-serif" font-size="13" lengthAdjust="spacing" textLength="75" x="366" y="455.4951">ListaDesejos</text><text fill="#000000" font-family="sans-serif" font-size="13" lengthAdjust="spacing" textLength="5" x="321.042" y="217.4579">*</text><text fill="#000000" font-family="sans-serif" font-size="13" lengthAdjust="spacing" textLength="5" x="384.853" y="621.9534">*</text></g><!--MD5=[60b024f7c78289d0274b49226ba5b3ef]
link Pix to FormaDePagamento--><g id="link_Pix_FormaDePagamento"><path codeLine="152" d="M1211.52,402.21 C1200.72,424.54 1188.8,449.22 1178.34,470.86 " fill="none" id="Pix-to-FormaDePagamento" style="stroke:#181818;stroke-width:1.0;"/><polygon fill="none" points="1184.6,473.99,1169.6,488.95,1172,467.9,1184.6,473.99" style="stroke:#181818;stroke-width:1.0;"/></g><!--MD5=[af2c7fa3c3d88b4673b4d73970692df4]
link CartaoDeCredito to FormaDePagamento--><g id="link_CartaoDeCredito_FormaDePagamento"><path codeLine="153" d="M1368.73,398.63 C1362.79,402.9 1356.84,407.06 1351,411 C1316.12,434.54 1276.44,458.49 1241.61,478.64 " fill="none" id="CartaoDeCredito-to-FormaDePagamento" style="stroke:#181818;stroke-width:1.0;"/><polygon fill="none" points="1244.72,484.93,1223.89,488.81,1237.75,472.79,1244.72,484.93" style="stroke:#181818;stroke-width:1.0;"/></g><!--MD5=[39e7a58e29f4327994f6c5ffe331c89c]
link Boleto to FormaDePagamento--><g id="link_Boleto_FormaDePagamento"><path codeLine="154" d="M1050.52,402.21 C1068.59,425.33 1088.63,450.97 1105.96,473.14 " fill="none" id="Boleto-to-FormaDePagamento" style="stroke:#181818;stroke-width:1.0;"/><polygon fill="none" points="1111.51,468.89,1118.31,488.95,1100.48,477.51,1111.51,468.89" style="stroke:#181818;stroke-width:1.0;"/></g><!--MD5=[0a56df7a48cfd95b11daa2b7387fc806]
link Pedido to StatusDoPedido--><g id="link_Pedido_StatusDoPedido"><path codeLine="155" d="M698.9497,387.7354 C698.9497,387.7354 694.24,448.54 692.16,475.6 " fill="none" id="Pedido-StatusDoPedido" style="stroke:#181818;stroke-width:1.0;"/><polygon fill="#181818" points="691.14,488.78,695.8199,480.1141,691.5243,483.7948,687.8436,479.4992,691.14,488.78" style="stroke:#181818;stroke-width:1.0;"/><line style="stroke:#181818;stroke-width:1.0;" x1="691.5243" x2="692.14" y1="483.7948" y2="475.82"/><polygon fill="#181818" points="699.86,375.77,695.4164,381.4493,698.9497,387.7354,703.3933,382.0561,699.86,375.77" style="stroke:#181818;stroke-width:1.0;"/><text fill="#000000" font-family="sans-serif" font-size="13" lengthAdjust="spacing" textLength="7" x="691.8018" y="397.2078">1</text><text fill="#000000" font-family="sans-serif" font-size="13" lengthAdjust="spacing" textLength="5" x="686.246" y="478.0512">*</text></g><!--MD5=[37734383bd686b6cf59ee548d1e1047c]
link StatusDoPedido to Status--><g id="link_StatusDoPedido_Status"><path codeLine="156" d="M682.2851,583.9688 C682.2851,583.9688 674.5,655.57 670.75,690.08 " fill="none" id="StatusDoPedido-Status" style="stroke:#181818;stroke-width:1.0;"/><polygon fill="#181818" points="669.34,703.03,674.2857,694.5129,669.8783,698.0591,666.3322,693.6517,669.34,703.03" style="stroke:#181818;stroke-width:1.0;"/><line style="stroke:#181818;stroke-width:1.0;" x1="669.8783" x2="670.745" y1="698.0591" y2="690.11"/><polygon fill="none" points="683.59,572.04,678.9613,577.5694,682.2851,583.9688,686.9138,578.4394,683.59,572.04" style="stroke:#181818;stroke-width:1.0;"/><text fill="#000000" font-family="sans-serif" font-size="13" lengthAdjust="spacing" textLength="5" x="677.4455" y="593.7512">*</text><text fill="#000000" font-family="sans-serif" font-size="13" lengthAdjust="spacing" textLength="7" x="662.736" y="692.6549">1</text></g><!--MD5=[b41e02207a4491454b9f208e6271e55c]
link Telefone to TipoTelefone--><g id="link_Telefone_TipoTelefone"><path codeLine="157" d="M203,1539.52 C203,1539.52 203,1605.51 203,1636.75 " fill="none" id="Telefone-TipoTelefone" style="stroke:#181818;stroke-width:1.0;"/><polygon fill="#181818" points="203,1649.87,207,1640.87,203,1644.87,199,1640.87,203,1649.87" style="stroke:#181818;stroke-width:1.0;"/><line style="stroke:#181818;stroke-width:1.0;" x1="203" x2="203" y1="1644.87" y2="1636.87"/><polygon fill="none" points="203,1527.52,199,1533.52,203,1539.52,207,1533.52,203,1527.52" style="stroke:#181818;stroke-width:1.0;"/><text fill="#000000" font-family="sans-serif" font-size="13" lengthAdjust="spacing" textLength="7" x="195.5297" y="1548.9139">1</text><text fill="#000000" font-family="sans-serif" font-size="13" lengthAdjust="spacing" textLength="7" x="195.6172" y="1639.0551">1</text></g><!--MD5=[08a05f3c74b68a2d87dca00480f291ac]
link Cliente to Pedido--><g id="link_Cliente_Pedido"><path codeLine="158" d="M421.0242,167.1925 C421.0242,167.1925 564.81,251.74 622.74,285.81 " fill="none" id="Cliente-Pedido" style="stroke:#181818;stroke-width:1.0;"/><polygon fill="#181818" points="634.03,292.45,628.2993,284.44,629.7199,289.9156,624.2443,291.3362,634.03,292.45" style="stroke:#181818;stroke-width:1.0;"/><line style="stroke:#181818;stroke-width:1.0;" x1="629.7199" x2="622.825" y1="289.9156" y2="285.86"/><polygon fill="none" points="410.68,161.11,413.8246,167.5993,421.0242,167.1925,417.8796,160.7032,410.68,161.11" style="stroke:#181818;stroke-width:1.0;"/><text fill="#000000" font-family="sans-serif" font-size="13" lengthAdjust="spacing" textLength="7" x="418.5797" y="162.5748">1</text><text fill="#000000" font-family="sans-serif" font-size="13" lengthAdjust="spacing" textLength="5" x="617.1928" y="281.7494">*</text></g><!--MD5=[347aa595ba08237deb754d2f6e3fc66e]
link Produto to Classificacao--><g id="link_Produto_Classificacao"><path codeLine="159" d="M501.1233,920.4183 C501.1233,920.4183 517.57,947.72 524.58,959.36 " fill="none" id="Produto-Classificacao" style="stroke:#181818;stroke-width:1.0;"/><polygon fill="#181818" points="531.32,970.54,530.1048,960.7664,528.7411,966.2564,523.251,964.8927,531.32,970.54" style="stroke:#181818;stroke-width:1.0;"/><line style="stroke:#181818;stroke-width:1.0;" x1="528.7411" x2="524.615" y1="966.2564" y2="959.405"/><polygon fill="none" points="494.93,910.14,494.6006,917.3436,501.1233,920.4183,501.4527,913.2147,494.93,910.14" style="stroke:#181818;stroke-width:1.0;"/><text fill="#000000" font-family="sans-serif" font-size="13" lengthAdjust="spacing" textLength="5" x="494.0772" y="931.2073">*</text><text fill="#000000" font-family="sans-serif" font-size="13" lengthAdjust="spacing" textLength="7" x="519.8288" y="960.0833">1</text></g><!--MD5=[a99c41469a14a70edfdad7f0a228fad9]
link Pedido to FormaDePagamento--><g id="link_Pedido_FormaDePagamento"><path codeLine="160" d="M794.7259,380.8985 C794.7259,380.8985 839.02,401.85 860,411 C893.67,425.68 902.93,427.29 937,441 C976.13,456.75 1019.13,474.52 1056.18,489.99 " fill="none" id="Pedido-FormaDePagamento" style="stroke:#181818;stroke-width:1.0;"/><polygon fill="#181818" points="1068.5,495.14,1061.7411,487.9764,1063.8874,493.2103,1058.6535,495.3566,1068.5,495.14" style="stroke:#181818;stroke-width:1.0;"/><line style="stroke:#181818;stroke-width:1.0;" x1="1063.8874" x2="1056.505" y1="493.2103" y2="490.125"/><polygon fill="#181818" points="783.92,375.68,787.5835,381.8912,794.7259,380.8985,791.0624,374.6873,783.92,375.68" style="stroke:#181818;stroke-width:1.0;"/><text fill="#000000" font-family="sans-serif" font-size="13" lengthAdjust="spacing" textLength="7" x="789.2588" y="397.1035">1</text><text fill="#000000" font-family="sans-serif" font-size="13" lengthAdjust="spacing" textLength="7" x="1053.3984" y="488.5087">1</text></g><!--MD5=[19f7711bfd524d1c7474506702452adf]
link Pedido to Logistica--><g id="link_Pedido_Logistica"><path codeLine="161" d="M766.368,383.7381 C766.368,383.7381 847,471.79 847,529.5 C847,529.5 847,529.5 847,1013.5 C847,1090.24 771.88,1142.53 706.58,1173.5 " fill="none" id="Pedido-Logistica" style="stroke:#181818;stroke-width:1.0;"/><polygon fill="#181818" points="694.52,1179.04,704.3682,1178.9268,699.0654,1176.9569,701.0353,1171.6541,694.52,1179.04" style="stroke:#181818;stroke-width:1.0;"/><line style="stroke:#181818;stroke-width:1.0;" x1="699.0654" x2="706.335" y1="1176.9569" y2="1173.615"/><polygon fill="none" points="757.44,375.72,759.2313,382.7051,766.368,383.7381,764.5767,376.753,757.44,375.72" style="stroke:#181818;stroke-width:1.0;"/><text fill="#000000" font-family="sans-serif" font-size="13" lengthAdjust="spacing" textLength="7" x="758.5586" y="397.1498">1</text><text fill="#000000" font-family="sans-serif" font-size="13" lengthAdjust="spacing" textLength="7" x="702.45" y="1172.9856">1</text></g><!--MD5=[99680fb880723d863f8b0e9561d6ce5d]
link Produto to Lote--><g id="link_Produto_Lote"><path codeLine="162" d="M412,910.14 C412,929.91 412,948.99 412,965.17 " fill="none" id="Produto-to-Lote" style="stroke:#181818;stroke-width:1.0;"/><polygon fill="#181818" points="412,970.54,416,961.54,412,965.54,408,961.54,412,970.54" style="stroke:#181818;stroke-width:1.0;"/><text fill="#000000" font-family="sans-serif" font-size="13" lengthAdjust="spacing" textLength="5" x="406.8711" y="931.2073">*</text><text fill="#000000" font-family="sans-serif" font-size="13" lengthAdjust="spacing" textLength="5" x="406.6016" y="960.0833">*</text></g><!--MD5=[499c3788325715b5110397f79dad054b]
link Lote to Fornecedor--><g id="link_Lote_Fornecedor"><path codeLine="163" d="M412,1066.38 C412,1066.38 412,1114.16 412,1137.08 " fill="none" id="Lote-Fornecedor" style="stroke:#181818;stroke-width:1.0;"/><polygon fill="#181818" points="412,1150.29,416,1141.29,412,1145.29,408,1141.29,412,1150.29" style="stroke:#181818;stroke-width:1.0;"/><line style="stroke:#181818;stroke-width:1.0;" x1="412" x2="412" y1="1145.29" y2="1137.29"/><polygon fill="#181818" points="412,1054.38,408,1060.38,412,1066.38,416,1060.38,412,1054.38" style="stroke:#181818;stroke-width:1.0;"/><text fill="#000000" font-family="sans-serif" font-size="13" lengthAdjust="spacing" textLength="5" x="406.6016" y="1075.8353">*</text><text fill="#000000" font-family="sans-serif" font-size="13" lengthAdjust="spacing" textLength="7" x="404.5734" y="1139.5887">1</text></g><!--MD5=[6b2d4a4bc8b352453d2309a51214d053]
link Logistica to Endereco--><g id="link_Logistica_Endereco"><path codeLine="164" d="M560.8868,1278.3526 C560.8868,1278.3526 518.94,1334.04 497.72,1362.21 " fill="none" id="Logistica-Endereco" style="stroke:#181818;stroke-width:1.0;"/><polygon fill="#181818" points="489.64,1372.94,498.2547,1368.1665,492.6523,1368.9493,491.8695,1363.3468,489.64,1372.94" style="stroke:#181818;stroke-width:1.0;"/><line style="stroke:#181818;stroke-width:1.0;" x1="492.6523" x2="497.46" y1="1368.9493" y2="1362.55"/><polygon fill="#181818" points="568.11,1268.77,561.3042,1271.1536,560.8868,1278.3526,567.6926,1275.969,568.11,1268.77" style="stroke:#181818;stroke-width:1.0;"/><text fill="#000000" font-family="sans-serif" font-size="13" lengthAdjust="spacing" textLength="7" x="555.3343" y="1290.4584">1</text><text fill="#000000" font-family="sans-serif" font-size="13" lengthAdjust="spacing" textLength="7" x="497.3737" y="1359.7667">1</text></g><!--MD5=[2568b9613cee427ef88907afb1579c46]
link Logistica to Telefone--><g id="link_Logistica_Telefone"><path codeLine="165" d="M549.5124,1276.7025 C549.5124,1276.7025 524.71,1296.6 512,1304 C433.54,1349.71 395,1318.5 317,1365 C293.86,1378.8 271.81,1398.19 253.37,1416.91 " fill="none" id="Logistica-Telefone" style="stroke:#181818;stroke-width:1.0;"/><polygon fill="#181818" points="244.35,1426.32,253.469,1422.5994,247.8133,1422.7137,247.699,1417.058,244.35,1426.32" style="stroke:#181818;stroke-width:1.0;"/><line style="stroke:#181818;stroke-width:1.0;" x1="247.8133" x2="253.35" y1="1422.7137" y2="1416.94"/><polygon fill="#181818" points="558.49,1268.74,551.347,1269.7287,549.5124,1276.7025,556.6554,1275.7138,558.49,1268.74" style="stroke:#181818;stroke-width:1.0;"/><text fill="#000000" font-family="sans-serif" font-size="13" lengthAdjust="spacing" textLength="7" x="544.5419" y="1290.4248">1</text><text fill="#000000" font-family="sans-serif" font-size="13" lengthAdjust="spacing" textLength="7" x="242.6727" y="1415.6">1</text></g><!--MD5=[efdb86c0701f1f37ca0472dfe8f9a1b2]
link Fornecedor to Endereco--><g id="link_Fornecedor_Endereco"><path codeLine="166" d="M412,1280.77 C412,1280.77 412,1327.85 412,1351.73 " fill="none" id="Fornecedor-Endereco" style="stroke:#181818;stroke-width:1.0;"/><polygon fill="#181818" points="412,1364.94,416,1355.94,412,1359.94,408,1355.94,412,1364.94" style="stroke:#181818;stroke-width:1.0;"/><line style="stroke:#181818;stroke-width:1.0;" x1="412" x2="412" y1="1359.94" y2="1351.94"/><polygon fill="#181818" points="412,1268.77,408,1274.77,412,1280.77,416,1274.77,412,1268.77" style="stroke:#181818;stroke-width:1.0;"/><text fill="#000000" font-family="sans-serif" font-size="13" lengthAdjust="spacing" textLength="7" x="404.5734" y="1290.4584">1</text><text fill="#000000" font-family="sans-serif" font-size="13" lengthAdjust="spacing" textLength="7" x="404.7539" y="1354.0025">1</text></g><!--MD5=[d88692d6d486189d58e7853ead2e7008]
link Fornecedor to Telefone--><g id="link_Fornecedor_Telefone"><path codeLine="167" d="M358.7144,1278.2044 C358.7144,1278.2044 282.17,1375.43 250.19,1416.05 " fill="none" id="Fornecedor-Telefone" style="stroke:#181818;stroke-width:1.0;"/><polygon fill="#181818" points="242.09,1426.34,250.7965,1421.736,245.1798,1422.409,244.5069,1416.7923,242.09,1426.34" style="stroke:#181818;stroke-width:1.0;"/><line style="stroke:#181818;stroke-width:1.0;" x1="245.1798" x2="250.125" y1="1422.409" y2="1416.13"/><polygon fill="#181818" points="366.13,1268.77,359.2774,1271.0154,358.7144,1278.2044,365.567,1275.9591,366.13,1268.77" style="stroke:#181818;stroke-width:1.0;"/><text fill="#000000" font-family="sans-serif" font-size="13" lengthAdjust="spacing" textLength="7" x="353.113" y="1290.4584">1</text><text fill="#000000" font-family="sans-serif" font-size="13" lengthAdjust="spacing" textLength="7" x="248.0792" y="1415.6229">1</text></g><!--MD5=[a74f453bed348301f78cbed47f4c8e23]
@startuml Desenho

class Endereco {
    - id: Long
    - rua: String
    - numero: String
    - lote: String
    - bairro: String
    - complemento: String
    - cep: String
    - municipio: String
    - estado: String
    - pais: String
}

class Telefone {
    - id: Long
    - ddd: String
    - numero: String
}

class Cliente {
    - id: Long
    - nome: String
    - dataNascimento: LocalDate
    - cpf: String
    - sexo: String
    - login: String
    - senha: String
    - email: String
}

class Funcionario {
    - id: Long
    - nome: String
    - dataNascimento: date
    - cpf: String
    - sexo: String
    - login: String
    - senha: String
    - email: String
}

class Produto {
    - id: Long
    - nome: String
    - descricao: String
    - codigoDeBarra: String
    - marca: String
    - imagem: String
    - altura: Double
    - largura: Double
    - comprimento: Double
    - peso: Double
    - custoCompra: Double
    - valorVenda: Double
    - quantidade: Long
}

class Lote {
    - id : Long
    - Lote : String
}

class Pedido {
    - id: Long
    - codigoDeRastreamento : String
}

class ItemDaVenda {
    - preco: Double
    - quantidade: Long
}

class Pix {
    - id: Long
    - nomeCliente: String
    - nomeRecebedor: String
    - chaveRecebedor: String
    - valor: Double
}

class CartaoDeCredito {
    - id: Long
    - numeroCartao: String
    - mesValidade: Long
    - anoValidade: Long
    - codSeguranca : Long
    - valor: Double
}

class Boleto {
    - id: Long
    - nomeBanco: String
    - dataHoraGeracao: LocalDateTime
    - dataHoraLimite: LocalDateTime
    - valor: Double
}

class FormaDePagamento {
    - id : Long
    - nomeCliente : String
}

enum Status {
    + Aguardando Pagamento : String
    + Pago : String
    + Retirado do Estoque : String
    + Recebido pela transportadora : String
    + Entregue : String
}

enum TipoTelefone {
    + Fixo Residencial : String
    + Fixo Comercial : String
    + Celular Particular : String
    + Celular Comercial : String
    + Telefone De Outra Pessoa : String
}

class StatusDoPedido {
    - id : Long
    - dataHora: LocalDateTime
}

class Logistica {
    - id : Long
    - nomeFantasia : String
    - nomeRegistro : String
    - endSite : String
}

class Fornecedor {
    - id : Long
    - nomeFantasia : String
    - nomeRegistro : String
    - endSite : String
}

class Classificacao {
    - id : Long
    - nome : String
}

Cliente "1" *- -> "*" Endereco
Cliente "1" *- -> "*" Telefone
Funcionario "1" *- -> "1" Endereco
Funcionario "1" *- -> "1" Telefone
Pedido "1" *- -> "1" Endereco
Pedido "1" *- -> "*" ItemDaVenda
ItemDaVenda "1" o- -> "1" Produto
Cliente "*" - -> "*" Produto : ListaDesejos
Pix  - -|> FormaDePagamento
CartaoDeCredito - -|> FormaDePagamento
Boleto - -|> FormaDePagamento
Pedido "1" *- -> "*" StatusDoPedido
StatusDoPedido "*" o- -> "1" Status
Telefone "1" o- -> "1" TipoTelefone
Cliente "1" o- -> "*" Pedido
Produto "*" o- -> "1" Classificacao
Pedido "1" *- -> "1" FormaDePagamento
Pedido "1" o- -> "1" Logistica
Produto "*" - -> "*" Lote
Lote "*" *- -> "1" Fornecedor
Logistica "1" *- -> "1" Endereco
Logistica "1" *- -> "1" Telefone
Fornecedor "1" *- -> "1" Endereco
Fornecedor "1" *- -> "1" Telefone

@enduml

PlantUML version 1.2022.7(Mon Aug 22 14:01:30 BRT 2022)
(GPL source distribution)
Java Runtime: Java(TM) SE Runtime Environment
JVM: Java HotSpot(TM) 64-Bit Server VM
Default Encoding: UTF-8
Language: pt
Country: BR
--></g></svg>