<?xml version="1.0" encoding="us-ascii" standalone="no"?><svg xmlns="http://www.w3.org/2000/svg" xmlns:xlink="http://www.w3.org/1999/xlink" contentStyleType="text/css" height="1895px" preserveAspectRatio="none" style="width:1764px;height:1895px;background:#FFFFFF;" version="1.1" viewBox="0 0 1764 1895" width="1764px" zoomAndPan="magnify"><defs/><g><!--class Endereco--><g id="elem_Endereco"><rect codeLine="2" fill="#F1F1F1" height="241.7031" id="Endereco" rx="2.5" ry="2.5" style="stroke:#181818;stroke-width:0.5;" width="190" x="690.52" y="1449"/><ellipse cx="750.77" cy="1465" fill="#ADD1B2" rx="11" ry="11" style="stroke:#181818;stroke-width:1.0;"/><path d="M753.5356,1460.875 Q753.6919,1460.6563 753.8794,1460.5469 Q754.0669,1460.4375 754.2856,1460.4375 Q754.6606,1460.4375 754.895,1460.7031 Q755.1294,1460.9531 755.1294,1461.5625 L755.1294,1463.0156 Q755.1294,1463.625 754.895,1463.8906 Q754.6606,1464.1563 754.2856,1464.1563 Q753.9419,1464.1563 753.7388,1463.9531 Q753.5356,1463.7656 753.4263,1463.25 Q753.3794,1462.8906 753.1919,1462.7031 Q752.8638,1462.3281 752.2544,1462.1094 Q751.645,1461.8906 751.02,1461.8906 Q750.2544,1461.8906 749.6138,1462.2188 Q748.9888,1462.5469 748.4888,1463.2969 Q748.0044,1464.0469 748.0044,1465.0781 L748.0044,1466.1719 Q748.0044,1467.4063 748.895,1468.2344 Q749.7856,1469.0469 751.3794,1469.0469 Q752.3169,1469.0469 752.9731,1468.7969 Q753.3638,1468.6406 753.7856,1468.2031 Q754.0513,1467.9375 754.1919,1467.8594 Q754.3481,1467.7813 754.5513,1467.7813 Q754.8794,1467.7813 755.1294,1468.0469 Q755.395,1468.2969 755.395,1468.6406 Q755.395,1468.9844 755.0513,1469.3906 Q754.5513,1469.9688 753.7544,1470.2969 Q752.6763,1470.75 751.3794,1470.75 Q749.8638,1470.75 748.6606,1470.125 Q747.6763,1469.625 746.9888,1468.5625 Q746.3013,1467.4844 746.3013,1466.2031 L746.3013,1465.0469 Q746.3013,1463.7188 746.9106,1462.5781 Q747.5356,1461.4219 748.6294,1460.8125 Q749.7231,1460.1875 750.9575,1460.1875 Q751.6919,1460.1875 752.3325,1460.3594 Q752.9888,1460.5156 753.5356,1460.875 Z " fill="#000000"/><text fill="#000000" font-family="sans-serif" font-size="14" lengthAdjust="spacing" textLength="61" x="771.27" y="1470.7285">Endereco</text><line style="stroke:#181818;stroke-width:0.5;" x1="691.52" x2="879.52" y1="1481" y2="1481"/><rect fill="none" height="6" style="stroke:#C82930;stroke-width:1.0;" width="6" x="698.52" y="1492.3047"/><text fill="#000000" font-family="sans-serif" font-size="14" lengthAdjust="spacing" textLength="51" x="710.52" y="1499.5332">id: Long</text><rect fill="none" height="6" style="stroke:#C82930;stroke-width:1.0;" width="6" x="698.52" y="1509.9141"/><text fill="#000000" font-family="sans-serif" font-size="14" lengthAdjust="spacing" textLength="80" x="710.52" y="1517.1426">nome: String</text><rect fill="none" height="6" style="stroke:#C82930;stroke-width:1.0;" width="6" x="698.52" y="1527.5234"/><text fill="#000000" font-family="sans-serif" font-size="14" lengthAdjust="spacing" textLength="114" x="710.52" y="1534.752">logradouro: String</text><rect fill="none" height="6" style="stroke:#C82930;stroke-width:1.0;" width="6" x="698.52" y="1545.1328"/><text fill="#000000" font-family="sans-serif" font-size="14" lengthAdjust="spacing" textLength="93" x="710.52" y="1552.3613">numero: String</text><rect fill="none" height="6" style="stroke:#C82930;stroke-width:1.0;" width="6" x="698.52" y="1562.7422"/><text fill="#000000" font-family="sans-serif" font-size="14" lengthAdjust="spacing" textLength="68" x="710.52" y="1569.9707">lote: String</text><rect fill="none" height="6" style="stroke:#C82930;stroke-width:1.0;" width="6" x="698.52" y="1580.3516"/><text fill="#000000" font-family="sans-serif" font-size="14" lengthAdjust="spacing" textLength="82" x="710.52" y="1587.5801">bairro: String</text><rect fill="none" height="6" style="stroke:#C82930;stroke-width:1.0;" width="6" x="698.52" y="1597.9609"/><text fill="#000000" font-family="sans-serif" font-size="14" lengthAdjust="spacing" textLength="129" x="710.52" y="1605.1895">complemento: String</text><rect fill="none" height="6" style="stroke:#C82930;stroke-width:1.0;" width="6" x="698.52" y="1615.5703"/><text fill="#000000" font-family="sans-serif" font-size="14" lengthAdjust="spacing" textLength="68" x="710.52" y="1622.7988">cep: String</text><rect fill="none" height="6" style="stroke:#C82930;stroke-width:1.0;" width="6" x="698.52" y="1633.1797"/><text fill="#000000" font-family="sans-serif" font-size="14" lengthAdjust="spacing" textLength="109" x="710.52" y="1640.4082">localidade: String</text><rect fill="none" height="6" style="stroke:#C82930;stroke-width:1.0;" width="6" x="698.52" y="1650.7891"/><text fill="#000000" font-family="sans-serif" font-size="14" lengthAdjust="spacing" textLength="164" x="710.52" y="1658.0176">unidadeFederativa: String</text><rect fill="none" height="6" style="stroke:#C82930;stroke-width:1.0;" width="6" x="698.52" y="1668.3984"/><text fill="#000000" font-family="sans-serif" font-size="14" lengthAdjust="spacing" textLength="71" x="710.52" y="1675.627">pais: String</text><line style="stroke:#181818;stroke-width:0.5;" x1="691.52" x2="879.52" y1="1682.7031" y2="1682.7031"/></g><!--class Telefone--><g id="elem_Telefone"><rect codeLine="16" fill="#F1F1F1" height="100.8281" id="Telefone" rx="2.5" ry="2.5" style="stroke:#181818;stroke-width:0.5;" width="119" x="935.02" y="1519.5"/><ellipse cx="963.97" cy="1535.5" fill="#ADD1B2" rx="11" ry="11" style="stroke:#181818;stroke-width:1.0;"/><path d="M966.7356,1531.375 Q966.8919,1531.1563 967.0794,1531.0469 Q967.2669,1530.9375 967.4856,1530.9375 Q967.8606,1530.9375 968.095,1531.2031 Q968.3294,1531.4531 968.3294,1532.0625 L968.3294,1533.5156 Q968.3294,1534.125 968.095,1534.3906 Q967.8606,1534.6563 967.4856,1534.6563 Q967.1419,1534.6563 966.9388,1534.4531 Q966.7356,1534.2656 966.6263,1533.75 Q966.5794,1533.3906 966.3919,1533.2031 Q966.0638,1532.8281 965.4544,1532.6094 Q964.845,1532.3906 964.22,1532.3906 Q963.4544,1532.3906 962.8138,1532.7188 Q962.1888,1533.0469 961.6888,1533.7969 Q961.2044,1534.5469 961.2044,1535.5781 L961.2044,1536.6719 Q961.2044,1537.9063 962.095,1538.7344 Q962.9856,1539.5469 964.5794,1539.5469 Q965.5169,1539.5469 966.1731,1539.2969 Q966.5638,1539.1406 966.9856,1538.7031 Q967.2513,1538.4375 967.3919,1538.3594 Q967.5481,1538.2813 967.7513,1538.2813 Q968.0794,1538.2813 968.3294,1538.5469 Q968.595,1538.7969 968.595,1539.1406 Q968.595,1539.4844 968.2513,1539.8906 Q967.7513,1540.4688 966.9544,1540.7969 Q965.8763,1541.25 964.5794,1541.25 Q963.0638,1541.25 961.8606,1540.625 Q960.8763,1540.125 960.1888,1539.0625 Q959.5013,1537.9844 959.5013,1536.7031 L959.5013,1535.5469 Q959.5013,1534.2188 960.1106,1533.0781 Q960.7356,1531.9219 961.8294,1531.3125 Q962.9231,1530.6875 964.1575,1530.6875 Q964.8919,1530.6875 965.5325,1530.8594 Q966.1888,1531.0156 966.7356,1531.375 Z " fill="#000000"/><text fill="#000000" font-family="sans-serif" font-size="14" lengthAdjust="spacing" textLength="56" x="981.07" y="1541.2285">Telefone</text><line style="stroke:#181818;stroke-width:0.5;" x1="936.02" x2="1053.02" y1="1551.5" y2="1551.5"/><rect fill="none" height="6" style="stroke:#C82930;stroke-width:1.0;" width="6" x="943.02" y="1562.8047"/><text fill="#000000" font-family="sans-serif" font-size="14" lengthAdjust="spacing" textLength="51" x="955.02" y="1570.0332">id: Long</text><rect fill="none" height="6" style="stroke:#C82930;stroke-width:1.0;" width="6" x="943.02" y="1580.4141"/><text fill="#000000" font-family="sans-serif" font-size="14" lengthAdjust="spacing" textLength="69" x="955.02" y="1587.6426">ddd: String</text><rect fill="none" height="6" style="stroke:#C82930;stroke-width:1.0;" width="6" x="943.02" y="1598.0234"/><text fill="#000000" font-family="sans-serif" font-size="14" lengthAdjust="spacing" textLength="93" x="955.02" y="1605.252">numero: String</text><line style="stroke:#181818;stroke-width:0.5;" x1="936.02" x2="1053.02" y1="1612.3281" y2="1612.3281"/></g><!--class Processador--><g id="elem_Processador"><rect codeLine="22" fill="#F1F1F1" height="347.3594" id="Processador" rx="2.5" ry="2.5" style="stroke:#181818;stroke-width:0.5;" width="223" x="473.02" y="222"/><ellipse cx="540.27" cy="238" fill="#ADD1B2" rx="11" ry="11" style="stroke:#181818;stroke-width:1.0;"/><path d="M543.0356,233.875 Q543.1919,233.6563 543.3794,233.5469 Q543.5669,233.4375 543.7856,233.4375 Q544.1606,233.4375 544.395,233.7031 Q544.6294,233.9531 544.6294,234.5625 L544.6294,236.0156 Q544.6294,236.625 544.395,236.8906 Q544.1606,237.1563 543.7856,237.1563 Q543.4419,237.1563 543.2388,236.9531 Q543.0356,236.7656 542.9263,236.25 Q542.8794,235.8906 542.6919,235.7031 Q542.3638,235.3281 541.7544,235.1094 Q541.145,234.8906 540.52,234.8906 Q539.7544,234.8906 539.1138,235.2188 Q538.4888,235.5469 537.9888,236.2969 Q537.5044,237.0469 537.5044,238.0781 L537.5044,239.1719 Q537.5044,240.4063 538.395,241.2344 Q539.2856,242.0469 540.8794,242.0469 Q541.8169,242.0469 542.4731,241.7969 Q542.8638,241.6406 543.2856,241.2031 Q543.5513,240.9375 543.6919,240.8594 Q543.8481,240.7813 544.0513,240.7813 Q544.3794,240.7813 544.6294,241.0469 Q544.895,241.2969 544.895,241.6406 Q544.895,241.9844 544.5513,242.3906 Q544.0513,242.9688 543.2544,243.2969 Q542.1763,243.75 540.8794,243.75 Q539.3638,243.75 538.1606,243.125 Q537.1763,242.625 536.4888,241.5625 Q535.8013,240.4844 535.8013,239.2031 L535.8013,238.0469 Q535.8013,236.7188 536.4106,235.5781 Q537.0356,234.4219 538.1294,233.8125 Q539.2231,233.1875 540.4575,233.1875 Q541.1919,233.1875 541.8325,233.3594 Q542.4888,233.5156 543.0356,233.875 Z " fill="#000000"/><text fill="#000000" font-family="sans-serif" font-size="14" lengthAdjust="spacing" textLength="80" x="560.77" y="243.7285">Processador</text><line style="stroke:#181818;stroke-width:0.5;" x1="474.02" x2="695.02" y1="254" y2="254"/><rect fill="none" height="6" style="stroke:#C82930;stroke-width:1.0;" width="6" x="481.02" y="265.3047"/><text fill="#000000" font-family="sans-serif" font-size="14" lengthAdjust="spacing" textLength="108" x="493.02" y="272.5332">produto_id: Long</text><rect fill="none" height="6" style="stroke:#C82930;stroke-width:1.0;" width="6" x="481.02" y="282.9141"/><text fill="#000000" font-family="sans-serif" font-size="14" lengthAdjust="spacing" textLength="96" x="493.02" y="290.1426">soquete: String</text><rect fill="none" height="6" style="stroke:#C82930;stroke-width:1.0;" width="6" x="481.02" y="300.5234"/><text fill="#000000" font-family="sans-serif" font-size="14" lengthAdjust="spacing" textLength="82" x="493.02" y="307.752">pistas: String</text><rect fill="none" height="6" style="stroke:#C82930;stroke-width:1.0;" width="6" x="481.02" y="318.1328"/><text fill="#000000" font-family="sans-serif" font-size="14" lengthAdjust="spacing" textLength="112" x="493.02" y="325.3613">bloqueado: String</text><rect fill="none" height="6" style="stroke:#C82930;stroke-width:1.0;" width="6" x="481.02" y="335.7422"/><text fill="#000000" font-family="sans-serif" font-size="14" lengthAdjust="spacing" textLength="191" x="493.02" y="342.9707">compatibilidadeChipset: String</text><rect fill="none" height="6" style="stroke:#C82930;stroke-width:1.0;" width="6" x="481.02" y="353.3516"/><text fill="#000000" font-family="sans-serif" font-size="14" lengthAdjust="spacing" textLength="140" x="493.02" y="360.5801">canaisMemoria: String</text><rect fill="none" height="6" style="stroke:#C82930;stroke-width:1.0;" width="6" x="481.02" y="370.9609"/><text fill="#000000" font-family="sans-serif" font-size="14" lengthAdjust="spacing" textLength="197" x="493.02" y="378.1895">capacidadeMaxMemoria: String</text><rect fill="none" height="6" style="stroke:#C82930;stroke-width:1.0;" width="6" x="481.02" y="388.5703"/><text fill="#000000" font-family="sans-serif" font-size="14" lengthAdjust="spacing" textLength="139" x="493.02" y="395.7988">pontenciaBase: String</text><rect fill="none" height="6" style="stroke:#C82930;stroke-width:1.0;" width="6" x="481.02" y="406.1797"/><text fill="#000000" font-family="sans-serif" font-size="14" lengthAdjust="spacing" textLength="146" x="493.02" y="413.4082">potenciaMaxima: String</text><rect fill="none" height="6" style="stroke:#C82930;stroke-width:1.0;" width="6" x="481.02" y="423.7891"/><text fill="#000000" font-family="sans-serif" font-size="14" lengthAdjust="spacing" textLength="144" x="493.02" y="431.0176">frequenciaBase: String</text><rect fill="none" height="6" style="stroke:#C82930;stroke-width:1.0;" width="6" x="481.02" y="441.3984"/><text fill="#000000" font-family="sans-serif" font-size="14" lengthAdjust="spacing" textLength="159" x="493.02" y="448.627">frequenciaMaxima: String</text><rect fill="none" height="6" style="stroke:#C82930;stroke-width:1.0;" width="6" x="481.02" y="459.0078"/><text fill="#000000" font-family="sans-serif" font-size="14" lengthAdjust="spacing" textLength="157" x="493.02" y="466.2363">tamanhoCacheL3: String</text><rect fill="none" height="6" style="stroke:#C82930;stroke-width:1.0;" width="6" x="481.02" y="476.6172"/><text fill="#000000" font-family="sans-serif" font-size="14" lengthAdjust="spacing" textLength="157" x="493.02" y="483.8457">tamanhoCacheL2: String</text><rect fill="none" height="6" style="stroke:#C82930;stroke-width:1.0;" width="6" x="481.02" y="494.2266"/><text fill="#000000" font-family="sans-serif" font-size="14" lengthAdjust="spacing" textLength="166" x="493.02" y="501.4551">numNucleosFisicos: String</text><rect fill="none" height="6" style="stroke:#C82930;stroke-width:1.0;" width="6" x="481.02" y="511.8359"/><text fill="#000000" font-family="sans-serif" font-size="14" lengthAdjust="spacing" textLength="125" x="493.02" y="519.0645">numThreads: String</text><rect fill="none" height="6" style="stroke:#C82930;stroke-width:1.0;" width="6" x="481.02" y="529.4453"/><text fill="#000000" font-family="sans-serif" font-size="14" lengthAdjust="spacing" textLength="142" x="493.02" y="536.6738">velMaxMemoria: String</text><rect fill="none" height="6" style="stroke:#C82930;stroke-width:1.0;" width="6" x="481.02" y="547.0547"/><text fill="#000000" font-family="sans-serif" font-size="14" lengthAdjust="spacing" textLength="178" x="493.02" y="554.2832">conteudoEmbalagem: String</text><line style="stroke:#181818;stroke-width:0.5;" x1="474.02" x2="695.02" y1="561.3594" y2="561.3594"/></g><!--class PlacaMae--><g id="elem_PlacaMae"><rect codeLine="42" fill="#F1F1F1" height="206.4844" id="PlacaMae" rx="2.5" ry="2.5" style="stroke:#181818;stroke-width:0.5;" width="172" x="731.52" y="292.5"/><ellipse cx="782.27" cy="308.5" fill="#ADD1B2" rx="11" ry="11" style="stroke:#181818;stroke-width:1.0;"/><path d="M785.0356,304.375 Q785.1919,304.1563 785.3794,304.0469 Q785.5669,303.9375 785.7856,303.9375 Q786.1606,303.9375 786.395,304.2031 Q786.6294,304.4531 786.6294,305.0625 L786.6294,306.5156 Q786.6294,307.125 786.395,307.3906 Q786.1606,307.6563 785.7856,307.6563 Q785.4419,307.6563 785.2388,307.4531 Q785.0356,307.2656 784.9263,306.75 Q784.8794,306.3906 784.6919,306.2031 Q784.3638,305.8281 783.7544,305.6094 Q783.145,305.3906 782.52,305.3906 Q781.7544,305.3906 781.1138,305.7188 Q780.4888,306.0469 779.9888,306.7969 Q779.5044,307.5469 779.5044,308.5781 L779.5044,309.6719 Q779.5044,310.9063 780.395,311.7344 Q781.2856,312.5469 782.8794,312.5469 Q783.8169,312.5469 784.4731,312.2969 Q784.8638,312.1406 785.2856,311.7031 Q785.5513,311.4375 785.6919,311.3594 Q785.8481,311.2813 786.0513,311.2813 Q786.3794,311.2813 786.6294,311.5469 Q786.895,311.7969 786.895,312.1406 Q786.895,312.4844 786.5513,312.8906 Q786.0513,313.4688 785.2544,313.7969 Q784.1763,314.25 782.8794,314.25 Q781.3638,314.25 780.1606,313.625 Q779.1763,313.125 778.4888,312.0625 Q777.8013,310.9844 777.8013,309.7031 L777.8013,308.5469 Q777.8013,307.2188 778.4106,306.0781 Q779.0356,304.9219 780.1294,304.3125 Q781.2231,303.6875 782.4575,303.6875 Q783.1919,303.6875 783.8325,303.8594 Q784.4888,304.0156 785.0356,304.375 Z " fill="#000000"/><text fill="#000000" font-family="sans-serif" font-size="14" lengthAdjust="spacing" textLength="62" x="802.77" y="314.2285">PlacaMae</text><line style="stroke:#181818;stroke-width:0.5;" x1="732.52" x2="902.52" y1="324.5" y2="324.5"/><rect fill="none" height="6" style="stroke:#C82930;stroke-width:1.0;" width="6" x="739.52" y="335.8047"/><text fill="#000000" font-family="sans-serif" font-size="14" lengthAdjust="spacing" textLength="108" x="751.52" y="343.0332">produto_id: Long</text><rect fill="none" height="6" style="stroke:#C82930;stroke-width:1.0;" width="6" x="739.52" y="353.4141"/><text fill="#000000" font-family="sans-serif" font-size="14" lengthAdjust="spacing" textLength="68" x="751.52" y="360.6426">cpu: String</text><rect fill="none" height="6" style="stroke:#C82930;stroke-width:1.0;" width="6" x="739.52" y="371.0234"/><text fill="#000000" font-family="sans-serif" font-size="14" lengthAdjust="spacing" textLength="90" x="751.52" y="378.252">chipset: String</text><rect fill="none" height="6" style="stroke:#C82930;stroke-width:1.0;" width="6" x="739.52" y="388.6328"/><text fill="#000000" font-family="sans-serif" font-size="14" lengthAdjust="spacing" textLength="99" x="751.52" y="395.8613">memoria: String</text><rect fill="none" height="6" style="stroke:#C82930;stroke-width:1.0;" width="6" x="739.52" y="406.2422"/><text fill="#000000" font-family="sans-serif" font-size="14" lengthAdjust="spacing" textLength="71" x="751.52" y="413.4707">bios: String</text><rect fill="none" height="6" style="stroke:#C82930;stroke-width:1.0;" width="6" x="739.52" y="423.8516"/><text fill="#000000" font-family="sans-serif" font-size="14" lengthAdjust="spacing" textLength="88" x="751.52" y="431.0801">grafico: String</text><rect fill="none" height="6" style="stroke:#C82930;stroke-width:1.0;" width="6" x="739.52" y="441.4609"/><text fill="#000000" font-family="sans-serif" font-size="14" lengthAdjust="spacing" textLength="64" x="751.52" y="448.6895">lan: String</text><rect fill="none" height="6" style="stroke:#C82930;stroke-width:1.0;" width="6" x="739.52" y="459.0703"/><text fill="#000000" font-family="sans-serif" font-size="14" lengthAdjust="spacing" textLength="74" x="751.52" y="466.2988">slots: String</text><rect fill="none" height="6" style="stroke:#C82930;stroke-width:1.0;" width="6" x="739.52" y="476.6797"/><text fill="#000000" font-family="sans-serif" font-size="14" lengthAdjust="spacing" textLength="146" x="751.52" y="483.9082">armazenamento: String</text><line style="stroke:#181818;stroke-width:0.5;" x1="732.52" x2="902.52" y1="490.9844" y2="490.9844"/></g><!--class Cliente--><g id="elem_Cliente"><rect codeLine="55" fill="#F1F1F1" height="241.7031" id="Cliente" rx="2.5" ry="2.5" style="stroke:#181818;stroke-width:0.5;" width="199" x="939.02" y="274.5"/><ellipse cx="1012.27" cy="290.5" fill="#ADD1B2" rx="11" ry="11" style="stroke:#181818;stroke-width:1.0;"/><path d="M1015.0356,286.375 Q1015.1919,286.1563 1015.3794,286.0469 Q1015.5669,285.9375 1015.7856,285.9375 Q1016.1606,285.9375 1016.395,286.2031 Q1016.6294,286.4531 1016.6294,287.0625 L1016.6294,288.5156 Q1016.6294,289.125 1016.395,289.3906 Q1016.1606,289.6563 1015.7856,289.6563 Q1015.4419,289.6563 1015.2388,289.4531 Q1015.0356,289.2656 1014.9263,288.75 Q1014.8794,288.3906 1014.6919,288.2031 Q1014.3638,287.8281 1013.7544,287.6094 Q1013.145,287.3906 1012.52,287.3906 Q1011.7544,287.3906 1011.1138,287.7188 Q1010.4888,288.0469 1009.9888,288.7969 Q1009.5044,289.5469 1009.5044,290.5781 L1009.5044,291.6719 Q1009.5044,292.9063 1010.395,293.7344 Q1011.2856,294.5469 1012.8794,294.5469 Q1013.8169,294.5469 1014.4731,294.2969 Q1014.8638,294.1406 1015.2856,293.7031 Q1015.5513,293.4375 1015.6919,293.3594 Q1015.8481,293.2813 1016.0513,293.2813 Q1016.3794,293.2813 1016.6294,293.5469 Q1016.895,293.7969 1016.895,294.1406 Q1016.895,294.4844 1016.5513,294.8906 Q1016.0513,295.4688 1015.2544,295.7969 Q1014.1763,296.25 1012.8794,296.25 Q1011.3638,296.25 1010.1606,295.625 Q1009.1763,295.125 1008.4888,294.0625 Q1007.8013,292.9844 1007.8013,291.7031 L1007.8013,290.5469 Q1007.8013,289.2188 1008.4106,288.0781 Q1009.0356,286.9219 1010.1294,286.3125 Q1011.2231,285.6875 1012.4575,285.6875 Q1013.1919,285.6875 1013.8325,285.8594 Q1014.4888,286.0156 1015.0356,286.375 Z " fill="#000000"/><text fill="#000000" font-family="sans-serif" font-size="14" lengthAdjust="spacing" textLength="44" x="1032.77" y="296.2285">Cliente</text><line style="stroke:#181818;stroke-width:0.5;" x1="940.02" x2="1137.02" y1="306.5" y2="306.5"/><rect fill="none" height="6" style="stroke:#C82930;stroke-width:1.0;" width="6" x="947.02" y="317.8047"/><text fill="#000000" font-family="sans-serif" font-size="14" lengthAdjust="spacing" textLength="51" x="959.02" y="325.0332">id: Long</text><rect fill="none" height="6" style="stroke:#C82930;stroke-width:1.0;" width="6" x="947.02" y="335.4141"/><text fill="#000000" font-family="sans-serif" font-size="14" lengthAdjust="spacing" textLength="80" x="959.02" y="342.6426">nome: String</text><rect fill="none" height="6" style="stroke:#C82930;stroke-width:1.0;" width="6" x="947.02" y="353.0234"/><text fill="#000000" font-family="sans-serif" font-size="14" lengthAdjust="spacing" textLength="173" x="959.02" y="360.252">dataNascimento: LocalDate</text><rect fill="none" height="6" style="stroke:#C82930;stroke-width:1.0;" width="6" x="947.02" y="370.6328"/><text fill="#000000" font-family="sans-serif" font-size="14" lengthAdjust="spacing" textLength="64" x="959.02" y="377.8613">cpf: String</text><rect fill="none" height="6" style="stroke:#C82930;stroke-width:1.0;" width="6" x="947.02" y="388.2422"/><text fill="#000000" font-family="sans-serif" font-size="14" lengthAdjust="spacing" textLength="74" x="959.02" y="395.4707">sexo: String</text><rect fill="none" height="6" style="stroke:#C82930;stroke-width:1.0;" width="6" x="947.02" y="405.8516"/><text fill="#000000" font-family="sans-serif" font-size="14" lengthAdjust="spacing" textLength="75" x="959.02" y="413.0801">login: String</text><rect fill="none" height="6" style="stroke:#C82930;stroke-width:1.0;" width="6" x="947.02" y="423.4609"/><text fill="#000000" font-family="sans-serif" font-size="14" lengthAdjust="spacing" textLength="84" x="959.02" y="430.6895">senha: String</text><rect fill="none" height="6" style="stroke:#C82930;stroke-width:1.0;" width="6" x="947.02" y="441.0703"/><text fill="#000000" font-family="sans-serif" font-size="14" lengthAdjust="spacing" textLength="78" x="959.02" y="448.2988">email: String</text><rect fill="none" height="6" style="stroke:#C82930;stroke-width:1.0;" width="6" x="947.02" y="458.6797"/><text fill="#000000" font-family="sans-serif" font-size="14" lengthAdjust="spacing" textLength="71" x="959.02" y="465.9082">perfil: Perfil</text><rect fill="none" height="6" style="stroke:#C82930;stroke-width:1.0;" width="6" x="947.02" y="476.2891"/><text fill="#000000" font-family="sans-serif" font-size="14" lengthAdjust="spacing" textLength="129" x="959.02" y="483.5176">nomeImagem: String</text><rect fill="none" height="6" style="stroke:#C82930;stroke-width:1.0;" width="6" x="947.02" y="493.8984"/><text fill="#000000" font-family="sans-serif" font-size="14" lengthAdjust="spacing" textLength="166" x="959.02" y="501.127">idEnderecoPrincipal: Long</text><line style="stroke:#181818;stroke-width:0.5;" x1="940.02" x2="1137.02" y1="508.2031" y2="508.2031"/></g><!--class Funcionario--><g id="elem_Funcionario"><rect codeLine="69" fill="#F1F1F1" height="224.0938" id="Funcionario" rx="2.5" ry="2.5" style="stroke:#181818;stroke-width:0.5;" width="163" x="839.02" y="1164"/><ellipse cx="879.22" cy="1180" fill="#ADD1B2" rx="11" ry="11" style="stroke:#181818;stroke-width:1.0;"/><path d="M881.9856,1175.875 Q882.1419,1175.6563 882.3294,1175.5469 Q882.5169,1175.4375 882.7356,1175.4375 Q883.1106,1175.4375 883.345,1175.7031 Q883.5794,1175.9531 883.5794,1176.5625 L883.5794,1178.0156 Q883.5794,1178.625 883.345,1178.8906 Q883.1106,1179.1563 882.7356,1179.1563 Q882.3919,1179.1563 882.1888,1178.9531 Q881.9856,1178.7656 881.8763,1178.25 Q881.8294,1177.8906 881.6419,1177.7031 Q881.3138,1177.3281 880.7044,1177.1094 Q880.095,1176.8906 879.47,1176.8906 Q878.7044,1176.8906 878.0638,1177.2188 Q877.4388,1177.5469 876.9388,1178.2969 Q876.4544,1179.0469 876.4544,1180.0781 L876.4544,1181.1719 Q876.4544,1182.4063 877.345,1183.2344 Q878.2356,1184.0469 879.8294,1184.0469 Q880.7669,1184.0469 881.4231,1183.7969 Q881.8138,1183.6406 882.2356,1183.2031 Q882.5013,1182.9375 882.6419,1182.8594 Q882.7981,1182.7813 883.0013,1182.7813 Q883.3294,1182.7813 883.5794,1183.0469 Q883.845,1183.2969 883.845,1183.6406 Q883.845,1183.9844 883.5013,1184.3906 Q883.0013,1184.9688 882.2044,1185.2969 Q881.1263,1185.75 879.8294,1185.75 Q878.3138,1185.75 877.1106,1185.125 Q876.1263,1184.625 875.4388,1183.5625 Q874.7513,1182.4844 874.7513,1181.2031 L874.7513,1180.0469 Q874.7513,1178.7188 875.3606,1177.5781 Q875.9856,1176.4219 877.0794,1175.8125 Q878.1731,1175.1875 879.4075,1175.1875 Q880.1419,1175.1875 880.7825,1175.3594 Q881.4388,1175.5156 881.9856,1175.875 Z " fill="#000000"/><text fill="#000000" font-family="sans-serif" font-size="14" lengthAdjust="spacing" textLength="75" x="898.82" y="1185.7285">Funcionario</text><line style="stroke:#181818;stroke-width:0.5;" x1="840.02" x2="1001.02" y1="1196" y2="1196"/><rect fill="none" height="6" style="stroke:#C82930;stroke-width:1.0;" width="6" x="847.02" y="1207.3047"/><text fill="#000000" font-family="sans-serif" font-size="14" lengthAdjust="spacing" textLength="51" x="859.02" y="1214.5332">id: Long</text><rect fill="none" height="6" style="stroke:#C82930;stroke-width:1.0;" width="6" x="847.02" y="1224.9141"/><text fill="#000000" font-family="sans-serif" font-size="14" lengthAdjust="spacing" textLength="80" x="859.02" y="1232.1426">nome: String</text><rect fill="none" height="6" style="stroke:#C82930;stroke-width:1.0;" width="6" x="847.02" y="1242.5234"/><text fill="#000000" font-family="sans-serif" font-size="14" lengthAdjust="spacing" textLength="137" x="859.02" y="1249.752">dataNascimento: date</text><rect fill="none" height="6" style="stroke:#C82930;stroke-width:1.0;" width="6" x="847.02" y="1260.1328"/><text fill="#000000" font-family="sans-serif" font-size="14" lengthAdjust="spacing" textLength="64" x="859.02" y="1267.3613">cpf: String</text><rect fill="none" height="6" style="stroke:#C82930;stroke-width:1.0;" width="6" x="847.02" y="1277.7422"/><text fill="#000000" font-family="sans-serif" font-size="14" lengthAdjust="spacing" textLength="74" x="859.02" y="1284.9707">sexo: String</text><rect fill="none" height="6" style="stroke:#C82930;stroke-width:1.0;" width="6" x="847.02" y="1295.3516"/><text fill="#000000" font-family="sans-serif" font-size="14" lengthAdjust="spacing" textLength="75" x="859.02" y="1302.5801">login: String</text><rect fill="none" height="6" style="stroke:#C82930;stroke-width:1.0;" width="6" x="847.02" y="1312.9609"/><text fill="#000000" font-family="sans-serif" font-size="14" lengthAdjust="spacing" textLength="84" x="859.02" y="1320.1895">senha: String</text><rect fill="none" height="6" style="stroke:#C82930;stroke-width:1.0;" width="6" x="847.02" y="1330.5703"/><text fill="#000000" font-family="sans-serif" font-size="14" lengthAdjust="spacing" textLength="78" x="859.02" y="1337.7988">email: String</text><rect fill="none" height="6" style="stroke:#C82930;stroke-width:1.0;" width="6" x="847.02" y="1348.1797"/><text fill="#000000" font-family="sans-serif" font-size="14" lengthAdjust="spacing" textLength="71" x="859.02" y="1355.4082">perfil: Perfil</text><rect fill="none" height="6" style="stroke:#C82930;stroke-width:1.0;" width="6" x="847.02" y="1365.7891"/><text fill="#000000" font-family="sans-serif" font-size="14" lengthAdjust="spacing" textLength="129" x="859.02" y="1373.0176">nomeImagem: String</text><line style="stroke:#181818;stroke-width:0.5;" x1="840.02" x2="1001.02" y1="1380.0938" y2="1380.0938"/></g><!--class Produto--><g id="elem_Produto"><rect codeLine="82" fill="#F1F1F1" height="312.1406" id="Produto" rx="2.5" ry="2.5" style="stroke:#181818;stroke-width:0.5;" width="166" x="523.52" y="647"/><ellipse cx="577.27" cy="663" fill="#ADD1B2" rx="11" ry="11" style="stroke:#181818;stroke-width:1.0;"/><path d="M580.0356,658.875 Q580.1919,658.6563 580.3794,658.5469 Q580.5669,658.4375 580.7856,658.4375 Q581.1606,658.4375 581.395,658.7031 Q581.6294,658.9531 581.6294,659.5625 L581.6294,661.0156 Q581.6294,661.625 581.395,661.8906 Q581.1606,662.1563 580.7856,662.1563 Q580.4419,662.1563 580.2388,661.9531 Q580.0356,661.7656 579.9263,661.25 Q579.8794,660.8906 579.6919,660.7031 Q579.3638,660.3281 578.7544,660.1094 Q578.145,659.8906 577.52,659.8906 Q576.7544,659.8906 576.1138,660.2188 Q575.4888,660.5469 574.9888,661.2969 Q574.5044,662.0469 574.5044,663.0781 L574.5044,664.1719 Q574.5044,665.4063 575.395,666.2344 Q576.2856,667.0469 577.8794,667.0469 Q578.8169,667.0469 579.4731,666.7969 Q579.8638,666.6406 580.2856,666.2031 Q580.5513,665.9375 580.6919,665.8594 Q580.8481,665.7813 581.0513,665.7813 Q581.3794,665.7813 581.6294,666.0469 Q581.895,666.2969 581.895,666.6406 Q581.895,666.9844 581.5513,667.3906 Q581.0513,667.9688 580.2544,668.2969 Q579.1763,668.75 577.8794,668.75 Q576.3638,668.75 575.1606,668.125 Q574.1763,667.625 573.4888,666.5625 Q572.8013,665.4844 572.8013,664.2031 L572.8013,663.0469 Q572.8013,661.7188 573.4106,660.5781 Q574.0356,659.4219 575.1294,658.8125 Q576.2231,658.1875 577.4575,658.1875 Q578.1919,658.1875 578.8325,658.3594 Q579.4888,658.5156 580.0356,658.875 Z " fill="#000000"/><text fill="#000000" font-family="sans-serif" font-size="14" lengthAdjust="spacing" textLength="50" x="597.77" y="668.7285">Produto</text><line style="stroke:#181818;stroke-width:0.5;" x1="524.52" x2="688.52" y1="679" y2="679"/><rect fill="none" height="6" style="stroke:#C82930;stroke-width:1.0;" width="6" x="531.52" y="690.3047"/><text fill="#000000" font-family="sans-serif" font-size="14" lengthAdjust="spacing" textLength="51" x="543.52" y="697.5332">id: Long</text><rect fill="none" height="6" style="stroke:#C82930;stroke-width:1.0;" width="6" x="531.52" y="707.9141"/><text fill="#000000" font-family="sans-serif" font-size="14" lengthAdjust="spacing" textLength="80" x="543.52" y="715.1426">nome: String</text><rect fill="none" height="6" style="stroke:#C82930;stroke-width:1.0;" width="6" x="531.52" y="725.5234"/><text fill="#000000" font-family="sans-serif" font-size="14" lengthAdjust="spacing" textLength="91" x="543.52" y="732.752">modelo: String</text><rect fill="none" height="6" style="stroke:#C82930;stroke-width:1.0;" width="6" x="531.52" y="743.1328"/><text fill="#000000" font-family="sans-serif" font-size="14" lengthAdjust="spacing" textLength="84" x="543.52" y="750.3613">marca: String</text><rect fill="none" height="6" style="stroke:#C82930;stroke-width:1.0;" width="6" x="531.52" y="760.7422"/><text fill="#000000" font-family="sans-serif" font-size="14" lengthAdjust="spacing" textLength="106" x="543.52" y="767.9707">descricao: String</text><rect fill="none" height="6" style="stroke:#C82930;stroke-width:1.0;" width="6" x="531.52" y="778.3516"/><text fill="#000000" font-family="sans-serif" font-size="14" lengthAdjust="spacing" textLength="140" x="543.52" y="785.5801">codigoDeBarra: String</text><rect fill="none" height="6" style="stroke:#C82930;stroke-width:1.0;" width="6" x="531.52" y="795.9609"/><text fill="#000000" font-family="sans-serif" font-size="14" lengthAdjust="spacing" textLength="94" x="543.52" y="803.1895">imagem: String</text><rect fill="none" height="6" style="stroke:#C82930;stroke-width:1.0;" width="6" x="531.52" y="813.5703"/><text fill="#000000" font-family="sans-serif" font-size="14" lengthAdjust="spacing" textLength="89" x="543.52" y="820.7988">altura: Double</text><rect fill="none" height="6" style="stroke:#C82930;stroke-width:1.0;" width="6" x="531.52" y="831.1797"/><text fill="#000000" font-family="sans-serif" font-size="14" lengthAdjust="spacing" textLength="98" x="543.52" y="838.4082">largura: Double</text><rect fill="none" height="6" style="stroke:#C82930;stroke-width:1.0;" width="6" x="531.52" y="848.7891"/><text fill="#000000" font-family="sans-serif" font-size="14" lengthAdjust="spacing" textLength="134" x="543.52" y="856.0176">comprimento: Double</text><rect fill="none" height="6" style="stroke:#C82930;stroke-width:1.0;" width="6" x="531.52" y="866.3984"/><text fill="#000000" font-family="sans-serif" font-size="14" lengthAdjust="spacing" textLength="84" x="543.52" y="873.627">peso: Double</text><rect fill="none" height="6" style="stroke:#C82930;stroke-width:1.0;" width="6" x="531.52" y="884.0078"/><text fill="#000000" font-family="sans-serif" font-size="14" lengthAdjust="spacing" textLength="137" x="543.52" y="891.2363">custoCompra: Double</text><rect fill="none" height="6" style="stroke:#C82930;stroke-width:1.0;" width="6" x="531.52" y="901.6172"/><text fill="#000000" font-family="sans-serif" font-size="14" lengthAdjust="spacing" textLength="125" x="543.52" y="908.8457">valorVenda: Double</text><rect fill="none" height="6" style="stroke:#C82930;stroke-width:1.0;" width="6" x="531.52" y="919.2266"/><text fill="#000000" font-family="sans-serif" font-size="14" lengthAdjust="spacing" textLength="111" x="543.52" y="926.4551">quantidade: Long</text><rect fill="none" height="6" style="stroke:#C82930;stroke-width:1.0;" width="6" x="531.52" y="936.8359"/><text fill="#000000" font-family="sans-serif" font-size="14" lengthAdjust="spacing" textLength="129" x="543.52" y="944.0645">nomeImagem: String</text><line style="stroke:#181818;stroke-width:0.5;" x1="524.52" x2="688.52" y1="951.1406" y2="951.1406"/></g><!--class Lote--><g id="elem_Lote"><rect codeLine="100" fill="#F1F1F1" height="83.2188" id="Lote" rx="2.5" ry="2.5" style="stroke:#181818;stroke-width:0.5;" width="103" x="598.02" y="1020"/><ellipse cx="632.37" cy="1036" fill="#ADD1B2" rx="11" ry="11" style="stroke:#181818;stroke-width:1.0;"/><path d="M635.1356,1031.875 Q635.2919,1031.6563 635.4794,1031.5469 Q635.6669,1031.4375 635.8856,1031.4375 Q636.2606,1031.4375 636.495,1031.7031 Q636.7294,1031.9531 636.7294,1032.5625 L636.7294,1034.0156 Q636.7294,1034.625 636.495,1034.8906 Q636.2606,1035.1563 635.8856,1035.1563 Q635.5419,1035.1563 635.3388,1034.9531 Q635.1356,1034.7656 635.0263,1034.25 Q634.9794,1033.8906 634.7919,1033.7031 Q634.4638,1033.3281 633.8544,1033.1094 Q633.245,1032.8906 632.62,1032.8906 Q631.8544,1032.8906 631.2138,1033.2188 Q630.5888,1033.5469 630.0888,1034.2969 Q629.6044,1035.0469 629.6044,1036.0781 L629.6044,1037.1719 Q629.6044,1038.4063 630.495,1039.2344 Q631.3856,1040.0469 632.9794,1040.0469 Q633.9169,1040.0469 634.5731,1039.7969 Q634.9638,1039.6406 635.3856,1039.2031 Q635.6513,1038.9375 635.7919,1038.8594 Q635.9481,1038.7813 636.1513,1038.7813 Q636.4794,1038.7813 636.7294,1039.0469 Q636.995,1039.2969 636.995,1039.6406 Q636.995,1039.9844 636.6513,1040.3906 Q636.1513,1040.9688 635.3544,1041.2969 Q634.2763,1041.75 632.9794,1041.75 Q631.4638,1041.75 630.2606,1041.125 Q629.2763,1040.625 628.5888,1039.5625 Q627.9013,1038.4844 627.9013,1037.2031 L627.9013,1036.0469 Q627.9013,1034.7188 628.5106,1033.5781 Q629.1356,1032.4219 630.2294,1031.8125 Q631.3231,1031.1875 632.5575,1031.1875 Q633.2919,1031.1875 633.9325,1031.3594 Q634.5888,1031.5156 635.1356,1031.875 Z " fill="#000000"/><text fill="#000000" font-family="sans-serif" font-size="14" lengthAdjust="spacing" textLength="28" x="650.67" y="1041.7285">Lote</text><line style="stroke:#181818;stroke-width:0.5;" x1="599.02" x2="700.02" y1="1052" y2="1052"/><rect fill="none" height="6" style="stroke:#C82930;stroke-width:1.0;" width="6" x="606.02" y="1063.3047"/><text fill="#000000" font-family="sans-serif" font-size="14" lengthAdjust="spacing" textLength="55" x="618.02" y="1070.5332">id : Long</text><rect fill="none" height="6" style="stroke:#C82930;stroke-width:1.0;" width="6" x="606.02" y="1080.9141"/><text fill="#000000" font-family="sans-serif" font-size="14" lengthAdjust="spacing" textLength="77" x="618.02" y="1088.1426">Lote : String</text><line style="stroke:#181818;stroke-width:0.5;" x1="599.02" x2="700.02" y1="1095.2188" y2="1095.2188"/></g><!--class Pedido--><g id="elem_Pedido"><rect codeLine="105" fill="#F1F1F1" height="83.2188" id="Pedido" rx="2.5" ry="2.5" style="stroke:#181818;stroke-width:0.5;" width="224" x="623.52" y="42.5"/><ellipse cx="709.27" cy="58.5" fill="#ADD1B2" rx="11" ry="11" style="stroke:#181818;stroke-width:1.0;"/><path d="M712.0356,54.375 Q712.1919,54.1563 712.3794,54.0469 Q712.5669,53.9375 712.7856,53.9375 Q713.1606,53.9375 713.395,54.2031 Q713.6294,54.4531 713.6294,55.0625 L713.6294,56.5156 Q713.6294,57.125 713.395,57.3906 Q713.1606,57.6563 712.7856,57.6563 Q712.4419,57.6563 712.2388,57.4531 Q712.0356,57.2656 711.9263,56.75 Q711.8794,56.3906 711.6919,56.2031 Q711.3638,55.8281 710.7544,55.6094 Q710.145,55.3906 709.52,55.3906 Q708.7544,55.3906 708.1138,55.7188 Q707.4888,56.0469 706.9888,56.7969 Q706.5044,57.5469 706.5044,58.5781 L706.5044,59.6719 Q706.5044,60.9063 707.395,61.7344 Q708.2856,62.5469 709.8794,62.5469 Q710.8169,62.5469 711.4731,62.2969 Q711.8638,62.1406 712.2856,61.7031 Q712.5513,61.4375 712.6919,61.3594 Q712.8481,61.2813 713.0513,61.2813 Q713.3794,61.2813 713.6294,61.5469 Q713.895,61.7969 713.895,62.1406 Q713.895,62.4844 713.5513,62.8906 Q713.0513,63.4688 712.2544,63.7969 Q711.1763,64.25 709.8794,64.25 Q708.3638,64.25 707.1606,63.625 Q706.1763,63.125 705.4888,62.0625 Q704.8013,60.9844 704.8013,59.7031 L704.8013,58.5469 Q704.8013,57.2188 705.4106,56.0781 Q706.0356,54.9219 707.1294,54.3125 Q708.2231,53.6875 709.4575,53.6875 Q710.1919,53.6875 710.8325,53.8594 Q711.4888,54.0156 712.0356,54.375 Z " fill="#000000"/><text fill="#000000" font-family="sans-serif" font-size="14" lengthAdjust="spacing" textLength="44" x="729.77" y="64.2285">Pedido</text><line style="stroke:#181818;stroke-width:0.5;" x1="624.52" x2="846.52" y1="74.5" y2="74.5"/><rect fill="none" height="6" style="stroke:#C82930;stroke-width:1.0;" width="6" x="631.52" y="85.8047"/><text fill="#000000" font-family="sans-serif" font-size="14" lengthAdjust="spacing" textLength="51" x="643.52" y="93.0332">id: Long</text><rect fill="none" height="6" style="stroke:#C82930;stroke-width:1.0;" width="6" x="631.52" y="103.4141"/><text fill="#000000" font-family="sans-serif" font-size="14" lengthAdjust="spacing" textLength="198" x="643.52" y="110.6426">codigoDeRastreamento : String</text><line style="stroke:#181818;stroke-width:0.5;" x1="624.52" x2="846.52" y1="117.7188" y2="117.7188"/></g><!--class ItemDaVenda--><g id="elem_ItemDaVenda"><rect codeLine="110" fill="#F1F1F1" height="83.2188" id="ItemDaVenda" rx="2.5" ry="2.5" style="stroke:#181818;stroke-width:0.5;" width="137" x="301.02" y="354"/><ellipse cx="325.02" cy="370" fill="#ADD1B2" rx="11" ry="11" style="stroke:#181818;stroke-width:1.0;"/><path d="M327.7856,365.875 Q327.9419,365.6563 328.1294,365.5469 Q328.3169,365.4375 328.5356,365.4375 Q328.9106,365.4375 329.145,365.7031 Q329.3794,365.9531 329.3794,366.5625 L329.3794,368.0156 Q329.3794,368.625 329.145,368.8906 Q328.9106,369.1563 328.5356,369.1563 Q328.1919,369.1563 327.9888,368.9531 Q327.7856,368.7656 327.6763,368.25 Q327.6294,367.8906 327.4419,367.7031 Q327.1138,367.3281 326.5044,367.1094 Q325.895,366.8906 325.27,366.8906 Q324.5044,366.8906 323.8638,367.2188 Q323.2388,367.5469 322.7388,368.2969 Q322.2544,369.0469 322.2544,370.0781 L322.2544,371.1719 Q322.2544,372.4063 323.145,373.2344 Q324.0356,374.0469 325.6294,374.0469 Q326.5669,374.0469 327.2231,373.7969 Q327.6138,373.6406 328.0356,373.2031 Q328.3013,372.9375 328.4419,372.8594 Q328.5981,372.7813 328.8013,372.7813 Q329.1294,372.7813 329.3794,373.0469 Q329.645,373.2969 329.645,373.6406 Q329.645,373.9844 329.3013,374.3906 Q328.8013,374.9688 328.0044,375.2969 Q326.9263,375.75 325.6294,375.75 Q324.1138,375.75 322.9106,375.125 Q321.9263,374.625 321.2388,373.5625 Q320.5513,372.4844 320.5513,371.2031 L320.5513,370.0469 Q320.5513,368.7188 321.1606,367.5781 Q321.7856,366.4219 322.8794,365.8125 Q323.9731,365.1875 325.2075,365.1875 Q325.9419,365.1875 326.5825,365.3594 Q327.2388,365.5156 327.7856,365.875 Z " fill="#000000"/><text fill="#000000" font-family="sans-serif" font-size="14" lengthAdjust="spacing" textLength="85" x="341.02" y="375.7285">ItemDaVenda</text><line style="stroke:#181818;stroke-width:0.5;" x1="302.02" x2="437.02" y1="386" y2="386"/><rect fill="none" height="6" style="stroke:#C82930;stroke-width:1.0;" width="6" x="309.02" y="397.3047"/><text fill="#000000" font-family="sans-serif" font-size="14" lengthAdjust="spacing" textLength="89" x="321.02" y="404.5332">preco: Double</text><rect fill="none" height="6" style="stroke:#C82930;stroke-width:1.0;" width="6" x="309.02" y="414.9141"/><text fill="#000000" font-family="sans-serif" font-size="14" lengthAdjust="spacing" textLength="111" x="321.02" y="422.1426">quantidade: Long</text><line style="stroke:#181818;stroke-width:0.5;" x1="302.02" x2="437.02" y1="429.2188" y2="429.2188"/></g><!--class Pix--><g id="elem_Pix"><rect codeLine="115" fill="#F1F1F1" height="136.0469" id="Pix" rx="2.5" ry="2.5" style="stroke:#181818;stroke-width:0.5;" width="179" x="1381.02" y="16"/><ellipse cx="1457.27" cy="32" fill="#ADD1B2" rx="11" ry="11" style="stroke:#181818;stroke-width:1.0;"/><path d="M1460.0356,27.875 Q1460.1919,27.6563 1460.3794,27.5469 Q1460.5669,27.4375 1460.7856,27.4375 Q1461.1606,27.4375 1461.395,27.7031 Q1461.6294,27.9531 1461.6294,28.5625 L1461.6294,30.0156 Q1461.6294,30.625 1461.395,30.8906 Q1461.1606,31.1563 1460.7856,31.1563 Q1460.4419,31.1563 1460.2388,30.9531 Q1460.0356,30.7656 1459.9263,30.25 Q1459.8794,29.8906 1459.6919,29.7031 Q1459.3638,29.3281 1458.7544,29.1094 Q1458.145,28.8906 1457.52,28.8906 Q1456.7544,28.8906 1456.1138,29.2188 Q1455.4888,29.5469 1454.9888,30.2969 Q1454.5044,31.0469 1454.5044,32.0781 L1454.5044,33.1719 Q1454.5044,34.4063 1455.395,35.2344 Q1456.2856,36.0469 1457.8794,36.0469 Q1458.8169,36.0469 1459.4731,35.7969 Q1459.8638,35.6406 1460.2856,35.2031 Q1460.5513,34.9375 1460.6919,34.8594 Q1460.8481,34.7813 1461.0513,34.7813 Q1461.3794,34.7813 1461.6294,35.0469 Q1461.895,35.2969 1461.895,35.6406 Q1461.895,35.9844 1461.5513,36.3906 Q1461.0513,36.9688 1460.2544,37.2969 Q1459.1763,37.75 1457.8794,37.75 Q1456.3638,37.75 1455.1606,37.125 Q1454.1763,36.625 1453.4888,35.5625 Q1452.8013,34.4844 1452.8013,33.2031 L1452.8013,32.0469 Q1452.8013,30.7188 1453.4106,29.5781 Q1454.0356,28.4219 1455.1294,27.8125 Q1456.2231,27.1875 1457.4575,27.1875 Q1458.1919,27.1875 1458.8325,27.3594 Q1459.4888,27.5156 1460.0356,27.875 Z " fill="#000000"/><text fill="#000000" font-family="sans-serif" font-size="14" lengthAdjust="spacing" textLength="18" x="1477.77" y="37.7285">Pix</text><line style="stroke:#181818;stroke-width:0.5;" x1="1382.02" x2="1559.02" y1="48" y2="48"/><rect fill="none" height="6" style="stroke:#C82930;stroke-width:1.0;" width="6" x="1389.02" y="59.3047"/><text fill="#000000" font-family="sans-serif" font-size="14" lengthAdjust="spacing" textLength="51" x="1401.02" y="66.5332">id: Long</text><rect fill="none" height="6" style="stroke:#C82930;stroke-width:1.0;" width="6" x="1389.02" y="76.9141"/><text fill="#000000" font-family="sans-serif" font-size="14" lengthAdjust="spacing" textLength="124" x="1401.02" y="84.1426">nomeCliente: String</text><rect fill="none" height="6" style="stroke:#C82930;stroke-width:1.0;" width="6" x="1389.02" y="94.5234"/><text fill="#000000" font-family="sans-serif" font-size="14" lengthAdjust="spacing" textLength="150" x="1401.02" y="101.752">nomeRecebedor: String</text><rect fill="none" height="6" style="stroke:#C82930;stroke-width:1.0;" width="6" x="1389.02" y="112.1328"/><text fill="#000000" font-family="sans-serif" font-size="14" lengthAdjust="spacing" textLength="153" x="1401.02" y="119.3613">chaveRecebedor: String</text><rect fill="none" height="6" style="stroke:#C82930;stroke-width:1.0;" width="6" x="1389.02" y="129.7422"/><text fill="#000000" font-family="sans-serif" font-size="14" lengthAdjust="spacing" textLength="84" x="1401.02" y="136.9707">valor: Double</text><line style="stroke:#181818;stroke-width:0.5;" x1="1382.02" x2="1559.02" y1="144.0469" y2="144.0469"/></g><!--class CartaoDeCredito--><g id="elem_CartaoDeCredito"><rect codeLine="123" fill="#F1F1F1" height="153.6563" id="CartaoDeCredito" rx="2.5" ry="2.5" style="stroke:#181818;stroke-width:0.5;" width="162" x="1595.52" y="7"/><ellipse cx="1620.87" cy="23" fill="#ADD1B2" rx="11" ry="11" style="stroke:#181818;stroke-width:1.0;"/><path d="M1623.6356,18.875 Q1623.7919,18.6563 1623.9794,18.5469 Q1624.1669,18.4375 1624.3856,18.4375 Q1624.7606,18.4375 1624.995,18.7031 Q1625.2294,18.9531 1625.2294,19.5625 L1625.2294,21.0156 Q1625.2294,21.625 1624.995,21.8906 Q1624.7606,22.1563 1624.3856,22.1563 Q1624.0419,22.1563 1623.8388,21.9531 Q1623.6356,21.7656 1623.5263,21.25 Q1623.4794,20.8906 1623.2919,20.7031 Q1622.9638,20.3281 1622.3544,20.1094 Q1621.745,19.8906 1621.12,19.8906 Q1620.3544,19.8906 1619.7138,20.2188 Q1619.0888,20.5469 1618.5888,21.2969 Q1618.1044,22.0469 1618.1044,23.0781 L1618.1044,24.1719 Q1618.1044,25.4063 1618.995,26.2344 Q1619.8856,27.0469 1621.4794,27.0469 Q1622.4169,27.0469 1623.0731,26.7969 Q1623.4638,26.6406 1623.8856,26.2031 Q1624.1513,25.9375 1624.2919,25.8594 Q1624.4481,25.7813 1624.6513,25.7813 Q1624.9794,25.7813 1625.2294,26.0469 Q1625.495,26.2969 1625.495,26.6406 Q1625.495,26.9844 1625.1513,27.3906 Q1624.6513,27.9688 1623.8544,28.2969 Q1622.7763,28.75 1621.4794,28.75 Q1619.9638,28.75 1618.7606,28.125 Q1617.7763,27.625 1617.0888,26.5625 Q1616.4013,25.4844 1616.4013,24.2031 L1616.4013,23.0469 Q1616.4013,21.7188 1617.0106,20.5781 Q1617.6356,19.4219 1618.7294,18.8125 Q1619.8231,18.1875 1621.0575,18.1875 Q1621.7919,18.1875 1622.4325,18.3594 Q1623.0888,18.5156 1623.6356,18.875 Z " fill="#000000"/><text fill="#000000" font-family="sans-serif" font-size="14" lengthAdjust="spacing" textLength="107" x="1637.17" y="28.7285">CartaoDeCredito</text><line style="stroke:#181818;stroke-width:0.5;" x1="1596.52" x2="1756.52" y1="39" y2="39"/><rect fill="none" height="6" style="stroke:#C82930;stroke-width:1.0;" width="6" x="1603.52" y="50.3047"/><text fill="#000000" font-family="sans-serif" font-size="14" lengthAdjust="spacing" textLength="51" x="1615.52" y="57.5332">id: Long</text><rect fill="none" height="6" style="stroke:#C82930;stroke-width:1.0;" width="6" x="1603.52" y="67.9141"/><text fill="#000000" font-family="sans-serif" font-size="14" lengthAdjust="spacing" textLength="136" x="1615.52" y="75.1426">numeroCartao: String</text><rect fill="none" height="6" style="stroke:#C82930;stroke-width:1.0;" width="6" x="1603.52" y="85.5234"/><text fill="#000000" font-family="sans-serif" font-size="14" lengthAdjust="spacing" textLength="121" x="1615.52" y="92.752">mesValidade: Long</text><rect fill="none" height="6" style="stroke:#C82930;stroke-width:1.0;" width="6" x="1603.52" y="103.1328"/><text fill="#000000" font-family="sans-serif" font-size="14" lengthAdjust="spacing" textLength="119" x="1615.52" y="110.3613">anoValidade: Long</text><rect fill="none" height="6" style="stroke:#C82930;stroke-width:1.0;" width="6" x="1603.52" y="120.7422"/><text fill="#000000" font-family="sans-serif" font-size="14" lengthAdjust="spacing" textLength="136" x="1615.52" y="127.9707">codSeguranca : Long</text><rect fill="none" height="6" style="stroke:#C82930;stroke-width:1.0;" width="6" x="1603.52" y="138.3516"/><text fill="#000000" font-family="sans-serif" font-size="14" lengthAdjust="spacing" textLength="84" x="1615.52" y="145.5801">valor: Double</text><line style="stroke:#181818;stroke-width:0.5;" x1="1596.52" x2="1756.52" y1="152.6563" y2="152.6563"/></g><!--class Boleto--><g id="elem_Boleto"><rect codeLine="132" fill="#F1F1F1" height="136.0469" id="Boleto" rx="2.5" ry="2.5" style="stroke:#181818;stroke-width:0.5;" width="242" x="1103.52" y="16"/><ellipse cx="1200.27" cy="32" fill="#ADD1B2" rx="11" ry="11" style="stroke:#181818;stroke-width:1.0;"/><path d="M1203.0356,27.875 Q1203.1919,27.6563 1203.3794,27.5469 Q1203.5669,27.4375 1203.7856,27.4375 Q1204.1606,27.4375 1204.395,27.7031 Q1204.6294,27.9531 1204.6294,28.5625 L1204.6294,30.0156 Q1204.6294,30.625 1204.395,30.8906 Q1204.1606,31.1563 1203.7856,31.1563 Q1203.4419,31.1563 1203.2388,30.9531 Q1203.0356,30.7656 1202.9263,30.25 Q1202.8794,29.8906 1202.6919,29.7031 Q1202.3638,29.3281 1201.7544,29.1094 Q1201.145,28.8906 1200.52,28.8906 Q1199.7544,28.8906 1199.1138,29.2188 Q1198.4888,29.5469 1197.9888,30.2969 Q1197.5044,31.0469 1197.5044,32.0781 L1197.5044,33.1719 Q1197.5044,34.4063 1198.395,35.2344 Q1199.2856,36.0469 1200.8794,36.0469 Q1201.8169,36.0469 1202.4731,35.7969 Q1202.8638,35.6406 1203.2856,35.2031 Q1203.5513,34.9375 1203.6919,34.8594 Q1203.8481,34.7813 1204.0513,34.7813 Q1204.3794,34.7813 1204.6294,35.0469 Q1204.895,35.2969 1204.895,35.6406 Q1204.895,35.9844 1204.5513,36.3906 Q1204.0513,36.9688 1203.2544,37.2969 Q1202.1763,37.75 1200.8794,37.75 Q1199.3638,37.75 1198.1606,37.125 Q1197.1763,36.625 1196.4888,35.5625 Q1195.8013,34.4844 1195.8013,33.2031 L1195.8013,32.0469 Q1195.8013,30.7188 1196.4106,29.5781 Q1197.0356,28.4219 1198.1294,27.8125 Q1199.2231,27.1875 1200.4575,27.1875 Q1201.1919,27.1875 1201.8325,27.3594 Q1202.4888,27.5156 1203.0356,27.875 Z " fill="#000000"/><text fill="#000000" font-family="sans-serif" font-size="14" lengthAdjust="spacing" textLength="40" x="1220.77" y="37.7285">Boleto</text><line style="stroke:#181818;stroke-width:0.5;" x1="1104.52" x2="1344.52" y1="48" y2="48"/><rect fill="none" height="6" style="stroke:#C82930;stroke-width:1.0;" width="6" x="1111.52" y="59.3047"/><text fill="#000000" font-family="sans-serif" font-size="14" lengthAdjust="spacing" textLength="51" x="1123.52" y="66.5332">id: Long</text><rect fill="none" height="6" style="stroke:#C82930;stroke-width:1.0;" width="6" x="1111.52" y="76.9141"/><text fill="#000000" font-family="sans-serif" font-size="14" lengthAdjust="spacing" textLength="120" x="1123.52" y="84.1426">nomeBanco: String</text><rect fill="none" height="6" style="stroke:#C82930;stroke-width:1.0;" width="6" x="1111.52" y="94.5234"/><text fill="#000000" font-family="sans-serif" font-size="14" lengthAdjust="spacing" textLength="216" x="1123.52" y="101.752">dataHoraGeracao: LocalDateTime</text><rect fill="none" height="6" style="stroke:#C82930;stroke-width:1.0;" width="6" x="1111.52" y="112.1328"/><text fill="#000000" font-family="sans-serif" font-size="14" lengthAdjust="spacing" textLength="198" x="1123.52" y="119.3613">dataHoraLimite: LocalDateTime</text><rect fill="none" height="6" style="stroke:#C82930;stroke-width:1.0;" width="6" x="1111.52" y="129.7422"/><text fill="#000000" font-family="sans-serif" font-size="14" lengthAdjust="spacing" textLength="84" x="1123.52" y="136.9707">valor: Double</text><line style="stroke:#181818;stroke-width:0.5;" x1="1104.52" x2="1344.52" y1="144.0469" y2="144.0469"/></g><!--class FormaDePagamento--><g id="elem_FormaDePagamento"><rect codeLine="140" fill="#F1F1F1" height="83.2188" id="FormaDePagamento" rx="2.5" ry="2.5" style="stroke:#181818;stroke-width:0.5;" width="163" x="1341.02" y="354"/><ellipse cx="1356.02" cy="370" fill="#ADD1B2" rx="11" ry="11" style="stroke:#181818;stroke-width:1.0;"/><path d="M1358.7856,365.875 Q1358.9419,365.6563 1359.1294,365.5469 Q1359.3169,365.4375 1359.5356,365.4375 Q1359.9106,365.4375 1360.145,365.7031 Q1360.3794,365.9531 1360.3794,366.5625 L1360.3794,368.0156 Q1360.3794,368.625 1360.145,368.8906 Q1359.9106,369.1563 1359.5356,369.1563 Q1359.1919,369.1563 1358.9888,368.9531 Q1358.7856,368.7656 1358.6763,368.25 Q1358.6294,367.8906 1358.4419,367.7031 Q1358.1138,367.3281 1357.5044,367.1094 Q1356.895,366.8906 1356.27,366.8906 Q1355.5044,366.8906 1354.8638,367.2188 Q1354.2388,367.5469 1353.7388,368.2969 Q1353.2544,369.0469 1353.2544,370.0781 L1353.2544,371.1719 Q1353.2544,372.4063 1354.145,373.2344 Q1355.0356,374.0469 1356.6294,374.0469 Q1357.5669,374.0469 1358.2231,373.7969 Q1358.6138,373.6406 1359.0356,373.2031 Q1359.3013,372.9375 1359.4419,372.8594 Q1359.5981,372.7813 1359.8013,372.7813 Q1360.1294,372.7813 1360.3794,373.0469 Q1360.645,373.2969 1360.645,373.6406 Q1360.645,373.9844 1360.3013,374.3906 Q1359.8013,374.9688 1359.0044,375.2969 Q1357.9263,375.75 1356.6294,375.75 Q1355.1138,375.75 1353.9106,375.125 Q1352.9263,374.625 1352.2388,373.5625 Q1351.5513,372.4844 1351.5513,371.2031 L1351.5513,370.0469 Q1351.5513,368.7188 1352.1606,367.5781 Q1352.7856,366.4219 1353.8794,365.8125 Q1354.9731,365.1875 1356.2075,365.1875 Q1356.9419,365.1875 1357.5825,365.3594 Q1358.2388,365.5156 1358.7856,365.875 Z " fill="#000000"/><text fill="#000000" font-family="sans-serif" font-size="14" lengthAdjust="spacing" textLength="131" x="1370.02" y="375.7285">FormaDePagamento</text><line style="stroke:#181818;stroke-width:0.5;" x1="1342.02" x2="1503.02" y1="386" y2="386"/><rect fill="none" height="6" style="stroke:#C82930;stroke-width:1.0;" width="6" x="1349.02" y="397.3047"/><text fill="#000000" font-family="sans-serif" font-size="14" lengthAdjust="spacing" textLength="55" x="1361.02" y="404.5332">id : Long</text><rect fill="none" height="6" style="stroke:#C82930;stroke-width:1.0;" width="6" x="1349.02" y="414.9141"/><text fill="#000000" font-family="sans-serif" font-size="14" lengthAdjust="spacing" textLength="128" x="1361.02" y="422.1426">nomeCliente : String</text><line style="stroke:#181818;stroke-width:0.5;" x1="1342.02" x2="1503.02" y1="429.2188" y2="429.2188"/></g><!--class Status--><g id="elem_Status"><rect codeLine="145" fill="#F1F1F1" height="171.2656" id="Status" rx="2.5" ry="2.5" style="stroke:#181818;stroke-width:0.5;" width="262" x="78.52" y="717.5"/><ellipse cx="185.27" cy="733.5" fill="#EB937F" rx="11" ry="11" style="stroke:#181818;stroke-width:1.0;"/><path d="M184.1294,734.2969 L184.1294,736.7969 L188.4575,736.7969 L188.4575,735.875 Q188.4575,735.2656 188.6919,735 Q188.9419,734.7344 189.3169,734.7344 Q189.6919,734.7344 189.9263,735 Q190.1606,735.2656 190.1606,735.875 L190.1606,738.5 L182.1606,738.5 Q181.5356,738.5 181.27,738.2656 Q181.02,738.0313 181.02,737.6406 Q181.02,737.2656 181.2856,737.0313 Q181.5513,736.7969 182.1606,736.7969 L182.4263,736.7969 L182.4263,730.1406 L182.1606,730.1406 Q181.5356,730.1406 181.27,729.9063 Q181.02,729.6719 181.02,729.2813 Q181.02,728.9063 181.27,728.6719 Q181.5356,728.4375 182.1606,728.4375 L189.7856,728.4375 L189.7856,731.0313 Q189.7856,731.6406 189.5513,731.9063 Q189.3325,732.1563 188.9419,732.1563 Q188.5669,732.1563 188.3325,731.9063 Q188.0981,731.6406 188.0981,731.0313 L188.0981,730.1406 L184.1294,730.1406 L184.1294,732.5938 L185.6138,732.5938 Q185.6138,731.9375 185.7388,731.75 Q186.0044,731.3438 186.4731,731.3438 Q186.8481,731.3438 187.0825,731.6094 Q187.3169,731.8594 187.3169,732.4688 L187.3169,734.4375 Q187.3169,734.9844 187.1919,735.1719 Q186.9263,735.5625 186.4731,735.5625 Q186.0044,735.5625 185.7388,735.1563 Q185.6138,734.9688 185.6138,734.2969 L184.1294,734.2969 Z " fill="#000000"/><text fill="#000000" font-family="sans-serif" font-size="14" lengthAdjust="spacing" textLength="40" x="205.77" y="739.2285">Status</text><line style="stroke:#181818;stroke-width:0.5;" x1="79.52" x2="339.52" y1="749.5" y2="749.5"/><ellipse cx="89.52" cy="763.8047" fill="none" rx="3" ry="3" style="stroke:#038048;stroke-width:1.0;"/><text fill="#000000" font-family="sans-serif" font-size="14" lengthAdjust="spacing" textLength="199" x="98.52" y="768.0332">AguardandoPagamento : String</text><ellipse cx="89.52" cy="781.4141" fill="none" rx="3" ry="3" style="stroke:#038048;stroke-width:1.0;"/><text fill="#000000" font-family="sans-serif" font-size="14" lengthAdjust="spacing" textLength="82" x="98.52" y="785.6426">Pago : String</text><ellipse cx="89.52" cy="799.0234" fill="none" rx="3" ry="3" style="stroke:#038048;stroke-width:1.0;"/><text fill="#000000" font-family="sans-serif" font-size="14" lengthAdjust="spacing" textLength="173" x="98.52" y="803.252">RetiradoDoEstoque : String</text><ellipse cx="89.52" cy="816.6328" fill="none" rx="3" ry="3" style="stroke:#038048;stroke-width:1.0;"/><text fill="#000000" font-family="sans-serif" font-size="14" lengthAdjust="spacing" textLength="236" x="98.52" y="820.8613">RecebidoPelaTransportadora : String</text><ellipse cx="89.52" cy="834.2422" fill="none" rx="3" ry="3" style="stroke:#038048;stroke-width:1.0;"/><text fill="#000000" font-family="sans-serif" font-size="14" lengthAdjust="spacing" textLength="107" x="98.52" y="838.4707">Entregue : String</text><ellipse cx="89.52" cy="851.8516" fill="none" rx="3" ry="3" style="stroke:#038048;stroke-width:1.0;"/><text fill="#000000" font-family="sans-serif" font-size="14" lengthAdjust="spacing" textLength="111" x="98.52" y="856.0801">Devolvido : String</text><ellipse cx="89.52" cy="869.4609" fill="none" rx="3" ry="3" style="stroke:#038048;stroke-width:1.0;"/><text fill="#000000" font-family="sans-serif" font-size="14" lengthAdjust="spacing" textLength="107" x="98.52" y="873.6895">Desistido : String</text><line style="stroke:#181818;stroke-width:0.5;" x1="79.52" x2="339.52" y1="880.7656" y2="880.7656"/></g><!--class TipoTelefone--><g id="elem_TipoTelefone"><rect codeLine="155" fill="#F1F1F1" height="136.0469" id="TipoTelefone" rx="2.5" ry="2.5" style="stroke:#181818;stroke-width:0.5;" width="232" x="878.52" y="1752"/><ellipse cx="948.27" cy="1768" fill="#EB937F" rx="11" ry="11" style="stroke:#181818;stroke-width:1.0;"/><path d="M947.1294,1768.7969 L947.1294,1771.2969 L951.4575,1771.2969 L951.4575,1770.375 Q951.4575,1769.7656 951.6919,1769.5 Q951.9419,1769.2344 952.3169,1769.2344 Q952.6919,1769.2344 952.9263,1769.5 Q953.1606,1769.7656 953.1606,1770.375 L953.1606,1773 L945.1606,1773 Q944.5356,1773 944.27,1772.7656 Q944.02,1772.5313 944.02,1772.1406 Q944.02,1771.7656 944.2856,1771.5313 Q944.5513,1771.2969 945.1606,1771.2969 L945.4263,1771.2969 L945.4263,1764.6406 L945.1606,1764.6406 Q944.5356,1764.6406 944.27,1764.4063 Q944.02,1764.1719 944.02,1763.7813 Q944.02,1763.4063 944.27,1763.1719 Q944.5356,1762.9375 945.1606,1762.9375 L952.7856,1762.9375 L952.7856,1765.5313 Q952.7856,1766.1406 952.5513,1766.4063 Q952.3325,1766.6563 951.9419,1766.6563 Q951.5669,1766.6563 951.3325,1766.4063 Q951.0981,1766.1406 951.0981,1765.5313 L951.0981,1764.6406 L947.1294,1764.6406 L947.1294,1767.0938 L948.6138,1767.0938 Q948.6138,1766.4375 948.7388,1766.25 Q949.0044,1765.8438 949.4731,1765.8438 Q949.8481,1765.8438 950.0825,1766.1094 Q950.3169,1766.3594 950.3169,1766.9688 L950.3169,1768.9375 Q950.3169,1769.4844 950.1919,1769.6719 Q949.9263,1770.0625 949.4731,1770.0625 Q949.0044,1770.0625 948.7388,1769.6563 Q948.6138,1769.4688 948.6138,1768.7969 L947.1294,1768.7969 Z " fill="#000000"/><text fill="#000000" font-family="sans-serif" font-size="14" lengthAdjust="spacing" textLength="84" x="968.77" y="1773.7285">TipoTelefone</text><line style="stroke:#181818;stroke-width:0.5;" x1="879.52" x2="1109.52" y1="1784" y2="1784"/><ellipse cx="889.52" cy="1798.3047" fill="none" rx="3" ry="3" style="stroke:#038048;stroke-width:1.0;"/><text fill="#000000" font-family="sans-serif" font-size="14" lengthAdjust="spacing" textLength="148" x="898.52" y="1802.5332">FixoResidencial : String</text><ellipse cx="889.52" cy="1815.9141" fill="none" rx="3" ry="3" style="stroke:#038048;stroke-width:1.0;"/><text fill="#000000" font-family="sans-serif" font-size="14" lengthAdjust="spacing" textLength="138" x="898.52" y="1820.1426">FixoComercial : String</text><ellipse cx="889.52" cy="1833.5234" fill="none" rx="3" ry="3" style="stroke:#038048;stroke-width:1.0;"/><text fill="#000000" font-family="sans-serif" font-size="14" lengthAdjust="spacing" textLength="154" x="898.52" y="1837.752">CelularParticular : String</text><ellipse cx="889.52" cy="1851.1328" fill="none" rx="3" ry="3" style="stroke:#038048;stroke-width:1.0;"/><text fill="#000000" font-family="sans-serif" font-size="14" lengthAdjust="spacing" textLength="157" x="898.52" y="1855.3613">CelularComercial : String</text><ellipse cx="889.52" cy="1868.7422" fill="none" rx="3" ry="3" style="stroke:#038048;stroke-width:1.0;"/><text fill="#000000" font-family="sans-serif" font-size="14" lengthAdjust="spacing" textLength="206" x="898.52" y="1872.9707">TelefoneDeOutraPessoa : String</text><line style="stroke:#181818;stroke-width:0.5;" x1="879.52" x2="1109.52" y1="1880.0469" y2="1880.0469"/></g><!--class StatusDoPedido--><g id="elem_StatusDoPedido"><rect codeLine="163" fill="#F1F1F1" height="83.2188" id="StatusDoPedido" rx="2.5" ry="2.5" style="stroke:#181818;stroke-width:0.5;" width="187" x="79.02" y="354"/><ellipse cx="117.87" cy="370" fill="#ADD1B2" rx="11" ry="11" style="stroke:#181818;stroke-width:1.0;"/><path d="M120.6356,365.875 Q120.7919,365.6563 120.9794,365.5469 Q121.1669,365.4375 121.3856,365.4375 Q121.7606,365.4375 121.995,365.7031 Q122.2294,365.9531 122.2294,366.5625 L122.2294,368.0156 Q122.2294,368.625 121.995,368.8906 Q121.7606,369.1563 121.3856,369.1563 Q121.0419,369.1563 120.8388,368.9531 Q120.6356,368.7656 120.5263,368.25 Q120.4794,367.8906 120.2919,367.7031 Q119.9638,367.3281 119.3544,367.1094 Q118.745,366.8906 118.12,366.8906 Q117.3544,366.8906 116.7138,367.2188 Q116.0888,367.5469 115.5888,368.2969 Q115.1044,369.0469 115.1044,370.0781 L115.1044,371.1719 Q115.1044,372.4063 115.995,373.2344 Q116.8856,374.0469 118.4794,374.0469 Q119.4169,374.0469 120.0731,373.7969 Q120.4638,373.6406 120.8856,373.2031 Q121.1513,372.9375 121.2919,372.8594 Q121.4481,372.7813 121.6513,372.7813 Q121.9794,372.7813 122.2294,373.0469 Q122.495,373.2969 122.495,373.6406 Q122.495,373.9844 122.1513,374.3906 Q121.6513,374.9688 120.8544,375.2969 Q119.7763,375.75 118.4794,375.75 Q116.9638,375.75 115.7606,375.125 Q114.7763,374.625 114.0888,373.5625 Q113.4013,372.4844 113.4013,371.2031 L113.4013,370.0469 Q113.4013,368.7188 114.0106,367.5781 Q114.6356,366.4219 115.7294,365.8125 Q116.8231,365.1875 118.0575,365.1875 Q118.7919,365.1875 119.4325,365.3594 Q120.0888,365.5156 120.6356,365.875 Z " fill="#000000"/><text fill="#000000" font-family="sans-serif" font-size="14" lengthAdjust="spacing" textLength="102" x="137.17" y="375.7285">StatusDoPedido</text><line style="stroke:#181818;stroke-width:0.5;" x1="80.02" x2="265.02" y1="386" y2="386"/><rect fill="none" height="6" style="stroke:#C82930;stroke-width:1.0;" width="6" x="87.02" y="397.3047"/><text fill="#000000" font-family="sans-serif" font-size="14" lengthAdjust="spacing" textLength="55" x="99.02" y="404.5332">id : Long</text><rect fill="none" height="6" style="stroke:#C82930;stroke-width:1.0;" width="6" x="87.02" y="414.9141"/><text fill="#000000" font-family="sans-serif" font-size="14" lengthAdjust="spacing" textLength="161" x="99.02" y="422.1426">dataHora: LocalDateTime</text><line style="stroke:#181818;stroke-width:0.5;" x1="80.02" x2="265.02" y1="429.2188" y2="429.2188"/></g><!--class Logistica--><g id="elem_Logistica"><rect codeLine="168" fill="#F1F1F1" height="118.4375" id="Logistica" rx="2.5" ry="2.5" style="stroke:#181818;stroke-width:0.5;" width="165" x="1109.02" y="1217"/><ellipse cx="1159.27" cy="1233" fill="#ADD1B2" rx="11" ry="11" style="stroke:#181818;stroke-width:1.0;"/><path d="M1162.0356,1228.875 Q1162.1919,1228.6563 1162.3794,1228.5469 Q1162.5669,1228.4375 1162.7856,1228.4375 Q1163.1606,1228.4375 1163.395,1228.7031 Q1163.6294,1228.9531 1163.6294,1229.5625 L1163.6294,1231.0156 Q1163.6294,1231.625 1163.395,1231.8906 Q1163.1606,1232.1563 1162.7856,1232.1563 Q1162.4419,1232.1563 1162.2388,1231.9531 Q1162.0356,1231.7656 1161.9263,1231.25 Q1161.8794,1230.8906 1161.6919,1230.7031 Q1161.3638,1230.3281 1160.7544,1230.1094 Q1160.145,1229.8906 1159.52,1229.8906 Q1158.7544,1229.8906 1158.1138,1230.2188 Q1157.4888,1230.5469 1156.9888,1231.2969 Q1156.5044,1232.0469 1156.5044,1233.0781 L1156.5044,1234.1719 Q1156.5044,1235.4063 1157.395,1236.2344 Q1158.2856,1237.0469 1159.8794,1237.0469 Q1160.8169,1237.0469 1161.4731,1236.7969 Q1161.8638,1236.6406 1162.2856,1236.2031 Q1162.5513,1235.9375 1162.6919,1235.8594 Q1162.8481,1235.7813 1163.0513,1235.7813 Q1163.3794,1235.7813 1163.6294,1236.0469 Q1163.895,1236.2969 1163.895,1236.6406 Q1163.895,1236.9844 1163.5513,1237.3906 Q1163.0513,1237.9688 1162.2544,1238.2969 Q1161.1763,1238.75 1159.8794,1238.75 Q1158.3638,1238.75 1157.1606,1238.125 Q1156.1763,1237.625 1155.4888,1236.5625 Q1154.8013,1235.4844 1154.8013,1234.2031 L1154.8013,1233.0469 Q1154.8013,1231.7188 1155.4106,1230.5781 Q1156.0356,1229.4219 1157.1294,1228.8125 Q1158.2231,1228.1875 1159.4575,1228.1875 Q1160.1919,1228.1875 1160.8325,1228.3594 Q1161.4888,1228.5156 1162.0356,1228.875 Z " fill="#000000"/><text fill="#000000" font-family="sans-serif" font-size="14" lengthAdjust="spacing" textLength="56" x="1179.77" y="1238.7285">Logistica</text><line style="stroke:#181818;stroke-width:0.5;" x1="1110.02" x2="1273.02" y1="1249" y2="1249"/><rect fill="none" height="6" style="stroke:#C82930;stroke-width:1.0;" width="6" x="1117.02" y="1260.3047"/><text fill="#000000" font-family="sans-serif" font-size="14" lengthAdjust="spacing" textLength="55" x="1129.02" y="1267.5332">id : Long</text><rect fill="none" height="6" style="stroke:#C82930;stroke-width:1.0;" width="6" x="1117.02" y="1277.9141"/><text fill="#000000" font-family="sans-serif" font-size="14" lengthAdjust="spacing" textLength="139" x="1129.02" y="1285.1426">nomeFantasia : String</text><rect fill="none" height="6" style="stroke:#C82930;stroke-width:1.0;" width="6" x="1117.02" y="1295.5234"/><text fill="#000000" font-family="sans-serif" font-size="14" lengthAdjust="spacing" textLength="137" x="1129.02" y="1302.752">nomeRegistro : String</text><rect fill="none" height="6" style="stroke:#C82930;stroke-width:1.0;" width="6" x="1117.02" y="1313.1328"/><text fill="#000000" font-family="sans-serif" font-size="14" lengthAdjust="spacing" textLength="97" x="1129.02" y="1320.3613">endSite : String</text><line style="stroke:#181818;stroke-width:0.5;" x1="1110.02" x2="1273.02" y1="1327.4375" y2="1327.4375"/></g><!--class Fornecedor--><g id="elem_Fornecedor"><rect codeLine="175" fill="#F1F1F1" height="118.4375" id="Fornecedor" rx="2.5" ry="2.5" style="stroke:#181818;stroke-width:0.5;" width="165" x="567.02" y="1217"/><ellipse cx="608.57" cy="1233" fill="#ADD1B2" rx="11" ry="11" style="stroke:#181818;stroke-width:1.0;"/><path d="M611.3356,1228.875 Q611.4919,1228.6563 611.6794,1228.5469 Q611.8669,1228.4375 612.0856,1228.4375 Q612.4606,1228.4375 612.695,1228.7031 Q612.9294,1228.9531 612.9294,1229.5625 L612.9294,1231.0156 Q612.9294,1231.625 612.695,1231.8906 Q612.4606,1232.1563 612.0856,1232.1563 Q611.7419,1232.1563 611.5387,1231.9531 Q611.3356,1231.7656 611.2262,1231.25 Q611.1794,1230.8906 610.9919,1230.7031 Q610.6637,1230.3281 610.0544,1230.1094 Q609.445,1229.8906 608.82,1229.8906 Q608.0544,1229.8906 607.4137,1230.2188 Q606.7887,1230.5469 606.2887,1231.2969 Q605.8044,1232.0469 605.8044,1233.0781 L605.8044,1234.1719 Q605.8044,1235.4063 606.695,1236.2344 Q607.5856,1237.0469 609.1794,1237.0469 Q610.1169,1237.0469 610.7731,1236.7969 Q611.1637,1236.6406 611.5856,1236.2031 Q611.8512,1235.9375 611.9919,1235.8594 Q612.1481,1235.7813 612.3512,1235.7813 Q612.6794,1235.7813 612.9294,1236.0469 Q613.195,1236.2969 613.195,1236.6406 Q613.195,1236.9844 612.8512,1237.3906 Q612.3512,1237.9688 611.5544,1238.2969 Q610.4762,1238.75 609.1794,1238.75 Q607.6637,1238.75 606.4606,1238.125 Q605.4762,1237.625 604.7887,1236.5625 Q604.1012,1235.4844 604.1012,1234.2031 L604.1012,1233.0469 Q604.1012,1231.7188 604.7106,1230.5781 Q605.3356,1229.4219 606.4294,1228.8125 Q607.5231,1228.1875 608.7575,1228.1875 Q609.4919,1228.1875 610.1325,1228.3594 Q610.7887,1228.5156 611.3356,1228.875 Z " fill="#000000"/><text fill="#000000" font-family="sans-serif" font-size="14" lengthAdjust="spacing" textLength="74" x="628.47" y="1238.7285">Fornecedor</text><line style="stroke:#181818;stroke-width:0.5;" x1="568.02" x2="731.02" y1="1249" y2="1249"/><rect fill="none" height="6" style="stroke:#C82930;stroke-width:1.0;" width="6" x="575.02" y="1260.3047"/><text fill="#000000" font-family="sans-serif" font-size="14" lengthAdjust="spacing" textLength="55" x="587.02" y="1267.5332">id : Long</text><rect fill="none" height="6" style="stroke:#C82930;stroke-width:1.0;" width="6" x="575.02" y="1277.9141"/><text fill="#000000" font-family="sans-serif" font-size="14" lengthAdjust="spacing" textLength="139" x="587.02" y="1285.1426">nomeFantasia : String</text><rect fill="none" height="6" style="stroke:#C82930;stroke-width:1.0;" width="6" x="575.02" y="1295.5234"/><text fill="#000000" font-family="sans-serif" font-size="14" lengthAdjust="spacing" textLength="137" x="587.02" y="1302.752">nomeRegistro : String</text><rect fill="none" height="6" style="stroke:#C82930;stroke-width:1.0;" width="6" x="575.02" y="1313.1328"/><text fill="#000000" font-family="sans-serif" font-size="14" lengthAdjust="spacing" textLength="97" x="587.02" y="1320.3613">endSite : String</text><line style="stroke:#181818;stroke-width:0.5;" x1="568.02" x2="731.02" y1="1327.4375" y2="1327.4375"/></g><!--class Classificacao--><g id="elem_Classificacao"><rect codeLine="182" fill="#F1F1F1" height="83.2188" id="Classificacao" rx="2.5" ry="2.5" style="stroke:#181818;stroke-width:0.5;" width="115" x="448.02" y="1020"/><ellipse cx="463.02" cy="1036" fill="#ADD1B2" rx="11" ry="11" style="stroke:#181818;stroke-width:1.0;"/><path d="M465.7856,1031.875 Q465.9419,1031.6563 466.1294,1031.5469 Q466.3169,1031.4375 466.5356,1031.4375 Q466.9106,1031.4375 467.145,1031.7031 Q467.3794,1031.9531 467.3794,1032.5625 L467.3794,1034.0156 Q467.3794,1034.625 467.145,1034.8906 Q466.9106,1035.1563 466.5356,1035.1563 Q466.1919,1035.1563 465.9888,1034.9531 Q465.7856,1034.7656 465.6763,1034.25 Q465.6294,1033.8906 465.4419,1033.7031 Q465.1138,1033.3281 464.5044,1033.1094 Q463.895,1032.8906 463.27,1032.8906 Q462.5044,1032.8906 461.8638,1033.2188 Q461.2388,1033.5469 460.7388,1034.2969 Q460.2544,1035.0469 460.2544,1036.0781 L460.2544,1037.1719 Q460.2544,1038.4063 461.145,1039.2344 Q462.0356,1040.0469 463.6294,1040.0469 Q464.5669,1040.0469 465.2231,1039.7969 Q465.6138,1039.6406 466.0356,1039.2031 Q466.3013,1038.9375 466.4419,1038.8594 Q466.5981,1038.7813 466.8013,1038.7813 Q467.1294,1038.7813 467.3794,1039.0469 Q467.645,1039.2969 467.645,1039.6406 Q467.645,1039.9844 467.3013,1040.3906 Q466.8013,1040.9688 466.0044,1041.2969 Q464.9263,1041.75 463.6294,1041.75 Q462.1138,1041.75 460.9106,1041.125 Q459.9263,1040.625 459.2388,1039.5625 Q458.5513,1038.4844 458.5513,1037.2031 L458.5513,1036.0469 Q458.5513,1034.7188 459.1606,1033.5781 Q459.7856,1032.4219 460.8794,1031.8125 Q461.9731,1031.1875 463.2075,1031.1875 Q463.9419,1031.1875 464.5825,1031.3594 Q465.2388,1031.5156 465.7856,1031.875 Z " fill="#000000"/><text fill="#000000" font-family="sans-serif" font-size="14" lengthAdjust="spacing" textLength="83" x="477.02" y="1041.7285">Classificacao</text><line style="stroke:#181818;stroke-width:0.5;" x1="449.02" x2="562.02" y1="1052" y2="1052"/><rect fill="none" height="6" style="stroke:#C82930;stroke-width:1.0;" width="6" x="456.02" y="1063.3047"/><text fill="#000000" font-family="sans-serif" font-size="14" lengthAdjust="spacing" textLength="55" x="468.02" y="1070.5332">id : Long</text><rect fill="none" height="6" style="stroke:#C82930;stroke-width:1.0;" width="6" x="456.02" y="1080.9141"/><text fill="#000000" font-family="sans-serif" font-size="14" lengthAdjust="spacing" textLength="84" x="468.02" y="1088.1426">nome : String</text><line style="stroke:#181818;stroke-width:0.5;" x1="449.02" x2="562.02" y1="1095.2188" y2="1095.2188"/></g><!--link Cliente to Endereco--><g id="link_Cliente_Endereco"><path codeLine="187" d="M952.5923,526.7832 C878.4023,640.2332 785.52,785.35 785.52,802 C785.52,802 785.52,802 785.52,1277 C785.52,1333.52 785.52,1390.2 785.52,1442.95 " fill="none" id="Cliente-Endereco" style="stroke:#181818;stroke-width:1.0;"/><polygon fill="#181818" points="959.16,516.74,952.5284,519.5724,952.5923,526.7832,959.2239,523.9508,959.16,516.74" style="stroke:#181818;stroke-width:1.0;"/><polygon fill="#181818" points="785.52,1448.95,789.52,1439.95,785.52,1443.95,781.52,1439.95,785.52,1448.95" style="stroke:#181818;stroke-width:1.0;"/><text fill="#000000" font-family="sans-serif" font-size="13" lengthAdjust="spacing" textLength="7" x="947.3697" y="537.7255">1</text><text fill="#000000" font-family="sans-serif" font-size="13" lengthAdjust="spacing" textLength="5" x="780.3598" y="1438.1986">*</text></g><!--link Cliente to Telefone--><g id="link_Cliente_Telefone"><path codeLine="188" d="M1046.8699,528.6413 C1051.3799,609.3013 1055.52,706 1055.52,802 C1055.52,802 1055.52,802 1055.52,1277 C1055.52,1363.62 1031.2745,1455.9646 1013.2245,1513.5546 " fill="none" id="Cliente-Telefone" style="stroke:#181818;stroke-width:1.0;"/><polygon fill="#181818" points="1046.2,516.66,1042.5412,522.8739,1046.8699,528.6413,1050.5287,522.4273,1046.2,516.66" style="stroke:#181818;stroke-width:1.0;"/><polygon fill="#181818" points="1011.43,1519.28,1017.9386,1511.8882,1012.9254,1514.5089,1010.3048,1509.4956,1011.43,1519.28" style="stroke:#181818;stroke-width:1.0;"/><text fill="#000000" font-family="sans-serif" font-size="13" lengthAdjust="spacing" textLength="7" x="1039.4417" y="537.6409">1</text><text fill="#000000" font-family="sans-serif" font-size="13" lengthAdjust="spacing" textLength="5" x="1008.4564" y="1508.5544">*</text></g><!--link Funcionario to Endereco--><g id="link_Funcionario_Endereco"><path codeLine="189" d="M864.0612,1399.1208 C854.8912,1418.9408 852.8692,1423.3345 843.5892,1443.3945 " fill="none" id="Funcionario-Endereco" style="stroke:#181818;stroke-width:1.0;"/><polygon fill="#181818" points="869.1,1388.23,862.9503,1391.9958,864.0612,1399.1208,870.2109,1395.355,869.1,1388.23" style="stroke:#181818;stroke-width:1.0;"/><polygon fill="#181818" points="841.07,1448.84,848.4791,1442.3512,843.1693,1444.3021,841.2184,1438.9923,841.07,1448.84" style="stroke:#181818;stroke-width:1.0;"/><text fill="#000000" font-family="sans-serif" font-size="13" lengthAdjust="spacing" textLength="7" x="858.5817" y="1409.4356">1</text><text fill="#000000" font-family="sans-serif" font-size="13" lengthAdjust="spacing" textLength="7" x="837.4045" y="1438.0816">1</text></g><!--link Funcionario to Telefone--><g id="link_Funcionario_Telefone"><path codeLine="190" d="M951.6591,1399.862 C963.1391,1445.142 971.3854,1477.724 980.4954,1513.654 " fill="none" id="Funcionario-Telefone" style="stroke:#181818;stroke-width:1.0;"/><polygon fill="#181818" points="948.71,1388.23,946.3072,1395.029,951.6591,1399.862,954.0619,1393.063,948.71,1388.23" style="stroke:#181818;stroke-width:1.0;"/><polygon fill="#181818" points="981.97,1519.47,983.6354,1509.763,980.7411,1514.6234,975.8807,1511.7291,981.97,1519.47" style="stroke:#181818;stroke-width:1.0;"/><text fill="#000000" font-family="sans-serif" font-size="13" lengthAdjust="spacing" textLength="7" x="943.2917" y="1409.4356">1</text><text fill="#000000" font-family="sans-serif" font-size="13" lengthAdjust="spacing" textLength="7" x="972.713" y="1508.7711">1</text></g><!--link Pedido to Endereco--><g id="link_Pedido_Endereco"><path codeLine="191" d="M611.394,94.1169 C440.714,108.7769 139.3,144.63 61.52,222 C6,277.24 25.52,316.18 25.52,394.5 C25.52,394.5 25.52,394.5 25.52,1277 C25.52,1417.91 480.5848,1515.3876 684.5148,1552.0776 " fill="none" id="Pedido-Endereco" style="stroke:#181818;stroke-width:1.0;"/><polygon fill="#181818" points="623.35,93.09,617.0297,89.6181,611.394,94.1169,617.7143,97.5888,623.35,93.09" style="stroke:#181818;stroke-width:1.0;"/><polygon fill="#181818" points="690.42,1553.14,682.2705,1547.6096,685.499,1552.2546,680.8539,1555.4831,690.42,1553.14" style="stroke:#181818;stroke-width:1.0;"/><text fill="#000000" font-family="sans-serif" font-size="13" lengthAdjust="spacing" textLength="5" x="610.6456" y="90.6628">*</text><text fill="#000000" font-family="sans-serif" font-size="13" lengthAdjust="spacing" textLength="7" x="675.5628" y="1548.6799">1</text></g><!--link Pedido to ItemDaVenda--><g id="link_Pedido_ItemDaVenda"><path codeLine="192" d="M612.3524,124.7667 C556.4724,146.8867 502.19,175.68 455.52,222 C418.23,259.01 396.2628,309.8264 383.3528,347.9864 " fill="none" id="Pedido-ItemDaVenda" style="stroke:#181818;stroke-width:1.0;"/><polygon fill="#181818" points="623.51,120.35,616.4589,118.8392,612.3524,124.7667,619.4034,126.2776,623.51,120.35" style="stroke:#181818;stroke-width:1.0;"/><polygon fill="#181818" points="381.43,353.67,388.1033,346.4265,383.0323,348.9337,380.5252,343.8628,381.43,353.67" style="stroke:#181818;stroke-width:1.0;"/><text fill="#000000" font-family="sans-serif" font-size="13" lengthAdjust="spacing" textLength="7" x="608.3882" y="119.8431">1</text><text fill="#000000" font-family="sans-serif" font-size="13" lengthAdjust="spacing" textLength="5" x="377.9297" y="343.234">*</text></g><!--link ItemDaVenda to Produto--><g id="link_ItemDaVenda_Produto"><path codeLine="193" d="M393.3547,448.1201 C409.9847,483.5001 430.39,524.97 455.52,569 C476.37,605.52 497.2822,639.188 520.1022,674.328 " fill="none" id="ItemDaVenda-Produto" style="stroke:#181818;stroke-width:1.0;"/><polygon fill="none" points="388.25,437.26,387.1823,444.3916,393.3547,448.1201,394.4224,440.9885,388.25,437.26" style="stroke:#181818;stroke-width:1.0;"/><polygon fill="#181818" points="523.37,679.36,521.823,669.6334,520.6468,675.1666,515.1136,673.9905,523.37,679.36" style="stroke:#181818;stroke-width:1.0;"/><text fill="#000000" font-family="sans-serif" font-size="13" lengthAdjust="spacing" textLength="5" x="385.8367" y="458.6962">*</text><text fill="#000000" font-family="sans-serif" font-size="13" lengthAdjust="spacing" textLength="7" x="508.6527" y="665.1403">1</text></g><!--link Cliente to Produto--><g id="link_Cliente_Produto"><path codeLine="194" d="M976.85,516.84 C961.39,537.14 942.96,555.86 921.52,569 C830.24,624.94 766.52,532.63 682.52,599 C666.28,611.83 656.396,623.2597 646.356,641.5597 " fill="none" id="Cliente-to-Produto" style="stroke:#181818;stroke-width:1.0;"/><polygon fill="#181818" points="643.47,646.82,651.3059,640.8535,645.875,642.4364,644.2921,637.0055,643.47,646.82" style="stroke:#181818;stroke-width:1.0;"/><text fill="#000000" font-family="sans-serif" font-size="13" lengthAdjust="spacing" textLength="75" x="683.52" y="613.4951">ListaDesejos</text><text fill="#000000" font-family="sans-serif" font-size="13" lengthAdjust="spacing" textLength="5" x="968.1402" y="537.8313">*</text><text fill="#000000" font-family="sans-serif" font-size="13" lengthAdjust="spacing" textLength="5" x="640.1387" y="636.3678">*</text></g><!--link Processador to Produto--><g id="link_Processador_Produto"><path codeLine="195" d="M593.88,569.06 C595.29,594.92 595.7562,603.4864 597.1362,628.9564 " fill="none" id="Processador-to-Produto" style="stroke:#181818;stroke-width:1.0;"/><polygon fill="none" points="598.11,646.93,603.1274,628.6318,591.145,629.281,598.11,646.93" style="stroke:#181818;stroke-width:1.0;"/></g><!--link PlacaMae to Produto--><g id="link_PlacaMae_Produto"><path codeLine="196" d="M769.32,498.85 C754.05,524.01 735.35,549.34 713.52,569 C690.18,590.03 669.04,574.39 649.52,599 C638.27,613.18 636.0208,612.7365 629.6408,629.9965 " fill="none" id="PlacaMae-to-Produto" style="stroke:#181818;stroke-width:1.0;"/><polygon fill="none" points="623.4,646.88,635.2687,632.0768,624.013,627.9162,623.4,646.88" style="stroke:#181818;stroke-width:1.0;"/></g><!--link Pix to FormaDePagamento--><g id="link_Pix_FormaDePagamento"><path codeLine="197" d="M1460.11,152.16 C1450.57,213.67 1439.5215,284.9331 1431.5615,336.2031 " fill="none" id="Pix-to-FormaDePagamento" style="stroke:#181818;stroke-width:1.0;"/><polygon fill="none" points="1428.8,353.99,1437.4905,337.1236,1425.6326,335.2826,1428.8,353.99" style="stroke:#181818;stroke-width:1.0;"/></g><!--link CartaoDeCredito to FormaDePagamento--><g id="link_CartaoDeCredito_FormaDePagamento"><path codeLine="198" d="M1614.06,161.11 C1564.12,221.96 1507.4594,291.006 1467.3594,339.866 " fill="none" id="CartaoDeCredito-to-FormaDePagamento" style="stroke:#181818;stroke-width:1.0;"/><polygon fill="none" points="1455.94,353.78,1471.9973,343.6725,1462.7214,336.0596,1455.94,353.78" style="stroke:#181818;stroke-width:1.0;"/></g><!--link Boleto to FormaDePagamento--><g id="link_Boleto_FormaDePagamento"><path codeLine="199" d="M1267.48,152.16 C1306.84,213.67 1354.0976,287.5587 1386.9076,338.8287 " fill="none" id="Boleto-to-FormaDePagamento" style="stroke:#181818;stroke-width:1.0;"/><polygon fill="none" points="1396.61,353.99,1391.9614,335.5946,1381.8539,342.0629,1396.61,353.99" style="stroke:#181818;stroke-width:1.0;"/></g><!--link Pedido to StatusDoPedido--><g id="link_Pedido_StatusDoPedido"><path codeLine="200" d="M611.6629,98.8267 C513.6829,114.0867 383.65,146.41 283.52,222 C238.33,256.12 208.9225,308.9286 191.2525,348.1886 " fill="none" id="Pedido-StatusDoPedido" style="stroke:#181818;stroke-width:1.0;"/><polygon fill="#181818" points="623.52,96.98,616.9759,93.951,611.6629,98.8267,618.207,101.8557,623.52,96.98" style="stroke:#181818;stroke-width:1.0;"/><polygon fill="#181818" points="188.79,353.66,196.1314,347.0946,190.8421,349.1005,188.8362,343.8113,188.79,353.66" style="stroke:#181818;stroke-width:1.0;"/><text fill="#000000" font-family="sans-serif" font-size="13" lengthAdjust="spacing" textLength="7" x="608.3989" y="111.9549">1</text><text fill="#000000" font-family="sans-serif" font-size="13" lengthAdjust="spacing" textLength="5" x="185.9846" y="343.2225">*</text></g><!--link StatusDoPedido to Status--><g id="link_StatusDoPedido_Status"><path codeLine="201" d="M177.3292,449.1905 C183.2692,514.3605 193.4147,625.5148 201.2447,711.3148 " fill="none" id="StatusDoPedido-Status" style="stroke:#181818;stroke-width:1.0;"/><polygon fill="none" points="176.24,437.24,172.8011,443.5783,177.3292,449.1905,180.7681,442.8522,176.24,437.24" style="stroke:#181818;stroke-width:1.0;"/><polygon fill="#181818" points="201.79,717.29,204.9555,707.9637,201.3356,712.3107,196.9886,708.6908,201.79,717.29" style="stroke:#181818;stroke-width:1.0;"/><text fill="#000000" font-family="sans-serif" font-size="13" lengthAdjust="spacing" textLength="5" x="171.4344" y="458.673">*</text><text fill="#000000" font-family="sans-serif" font-size="13" lengthAdjust="spacing" textLength="7" x="193.8249" y="706.7356">1</text></g><!--link Telefone to TipoTelefone--><g id="link_Telefone_TipoTelefone"><path codeLine="202" d="M994.52,1632.59 C994.52,1670.19 994.52,1704.27 994.52,1745.64 " fill="none" id="Telefone-TipoTelefone" style="stroke:#181818;stroke-width:1.0;"/><polygon fill="none" points="994.52,1620.59,990.52,1626.59,994.52,1632.59,998.52,1626.59,994.52,1620.59" style="stroke:#181818;stroke-width:1.0;"/><polygon fill="#181818" points="994.52,1751.64,998.52,1742.64,994.52,1746.64,990.52,1742.64,994.52,1751.64" style="stroke:#181818;stroke-width:1.0;"/><text fill="#000000" font-family="sans-serif" font-size="13" lengthAdjust="spacing" textLength="7" x="987.0497" y="1641.9933">1</text><text fill="#000000" font-family="sans-serif" font-size="13" lengthAdjust="spacing" textLength="7" x="987.1591" y="1741.2762">1</text></g><!--link Pedido to Cliente--><g id="link_Pedido_Cliente"><path codeLine="203" d="M811.8228,132.3941 C849.4228,157.3941 885.93,185 921.52,222 C936.82,237.91 947.9384,251.1867 961.3784,269.5667 " fill="none" id="Pedido-Cliente" style="stroke:#181818;stroke-width:1.0;"/><polygon fill="#181818" points="801.83,125.75,804.6117,132.403,811.8228,132.3941,809.0411,125.7411,801.83,125.75" style="stroke:#181818;stroke-width:1.0;"/><polygon fill="#181818" points="964.92,274.41,962.8365,264.784,961.9687,270.3739,956.3788,269.5061,964.92,274.41" style="stroke:#181818;stroke-width:1.0;"/><text fill="#000000" font-family="sans-serif" font-size="13" lengthAdjust="spacing" textLength="5" x="806.9997" y="147.1846">*</text><text fill="#000000" font-family="sans-serif" font-size="13" lengthAdjust="spacing" textLength="7" x="952.9808" y="263.6561">1</text></g><!--link Produto to Classificacao--><g id="link_Produto_Classificacao"><path codeLine="204" d="M541.0428,970.2853 C532.2328,992.6553 530.4686,997.1373 523.6986,1014.3273 " fill="none" id="Produto-Classificacao" style="stroke:#181818;stroke-width:1.0;"/><polygon fill="none" points="545.44,959.12,539.5196,963.2369,541.0428,970.2853,546.9631,966.1684,545.44,959.12" style="stroke:#181818;stroke-width:1.0;"/><polygon fill="#181818" points="521.5,1019.91,528.5197,1013.0018,523.3322,1015.2578,521.0762,1010.0703,521.5,1019.91" style="stroke:#181818;stroke-width:1.0;"/><text fill="#000000" font-family="sans-serif" font-size="13" lengthAdjust="spacing" textLength="5" x="537.3603" y="980.5698">*</text><text fill="#000000" font-family="sans-serif" font-size="13" lengthAdjust="spacing" textLength="7" x="516.567" y="1009.2028">1</text></g><!--link Pedido to FormaDePagamento--><g id="link_Pedido_FormaDePagamento"><path codeLine="205" d="M859.447,111.8051 C997.307,141.7251 1202.42,186.65 1210.52,191 C1286.28,231.63 1350.3917,302.2629 1387.9417,348.9929 " fill="none" id="Pedido-FormaDePagamento" style="stroke:#181818;stroke-width:1.0;"/><polygon fill="#181818" points="847.72,109.26,852.7351,114.4416,859.447,111.8051,854.4319,106.6236,847.72,109.26" style="stroke:#181818;stroke-width:1.0;"/><polygon fill="#181818" points="1391.7,353.67,1389.1806,344.1488,1388.5681,349.7724,1382.9445,349.1599,1391.7,353.67" style="stroke:#181818;stroke-width:1.0;"/><text fill="#000000" font-family="sans-serif" font-size="13" lengthAdjust="spacing" textLength="5" x="855.4264" y="107.9192">*</text><text fill="#000000" font-family="sans-serif" font-size="13" lengthAdjust="spacing" textLength="7" x="1379.2303" y="343.234">1</text></g><!--link Pedido to Logistica--><g id="link_Pedido_Logistica"><path codeLine="206" d="M859.6029,92.803 C955.2829,104.393 1077.47,134.89 1155.52,222 C1207.79,280.33 1191.52,316.18 1191.52,394.5 C1191.52,394.5 1191.52,394.5 1191.52,1062.5 C1191.52,1114.7 1191.52,1168.12 1191.52,1210.83 " fill="none" id="Pedido-Logistica" style="stroke:#181818;stroke-width:1.0;"/><polygon fill="none" points="847.69,91.36,853.1654,96.0525,859.6029,92.803,854.1275,88.1106,847.69,91.36" style="stroke:#181818;stroke-width:1.0;"/><polygon fill="#181818" points="1191.52,1216.83,1195.52,1207.83,1191.52,1211.83,1187.52,1207.83,1191.52,1216.83" style="stroke:#181818;stroke-width:1.0;"/><text fill="#000000" font-family="sans-serif" font-size="13" lengthAdjust="spacing" textLength="5" x="855.3944" y="88.8166">*</text><text fill="#000000" font-family="sans-serif" font-size="13" lengthAdjust="spacing" textLength="7" x="1184.0934" y="1206.1335">1</text></g><!--link Produto to Lote--><g id="link_Produto_Lote"><path codeLine="207" d="M632.53,959.12 C636.28,981.49 638.8352,996.803 641.7252,1013.993 " fill="none" id="Produto-to-Lote" style="stroke:#181818;stroke-width:1.0;"/><polygon fill="#181818" points="642.72,1019.91,645.1725,1010.3714,641.891,1014.9792,637.2832,1011.6977,642.72,1019.91" style="stroke:#181818;stroke-width:1.0;"/><text fill="#000000" font-family="sans-serif" font-size="13" lengthAdjust="spacing" textLength="5" x="628.6688" y="980.5698">*</text><text fill="#000000" font-family="sans-serif" font-size="13" lengthAdjust="spacing" textLength="5" x="636.1797" y="1009.2028">*</text></g><!--link Lote to Fornecedor--><g id="link_Lote_Fornecedor"><path codeLine="208" d="M649.52,1115.22 C649.52,1147.4 649.52,1174.73 649.52,1210.75 " fill="none" id="Lote-Fornecedor" style="stroke:#181818;stroke-width:1.0;"/><polygon fill="#181818" points="649.52,1103.22,645.52,1109.22,649.52,1115.22,653.52,1109.22,649.52,1103.22" style="stroke:#181818;stroke-width:1.0;"/><polygon fill="#181818" points="649.52,1216.75,653.52,1207.75,649.52,1211.75,645.52,1207.75,649.52,1216.75" style="stroke:#181818;stroke-width:1.0;"/><text fill="#000000" font-family="sans-serif" font-size="13" lengthAdjust="spacing" textLength="5" x="644.1216" y="1124.6498">*</text><text fill="#000000" font-family="sans-serif" font-size="13" lengthAdjust="spacing" textLength="7" x="642.0934" y="1206.0438">1</text></g><!--link Logistica to Endereco--><g id="link_Logistica_Endereco"><path codeLine="209" d="M1098.6977,1337.733 C1070.5177,1355.983 1048.8,1369.8 1019.52,1388 C974.66,1415.88 959.94,1417.52 917.52,1449 C905.21,1458.14 897.2862,1464.3277 885.1562,1474.6677 " fill="none" id="Logistica-Endereco" style="stroke:#181818;stroke-width:1.0;"/><polygon fill="#181818" points="1108.77,1331.21,1101.5595,1331.1141,1098.6977,1337.733,1105.9082,1337.8289,1108.77,1331.21" style="stroke:#181818;stroke-width:1.0;"/><polygon fill="#181818" points="880.59,1478.56,890.0341,1475.7656,884.3951,1475.3164,884.8443,1469.6774,880.59,1478.56" style="stroke:#181818;stroke-width:1.0;"/><text fill="#000000" font-family="sans-serif" font-size="13" lengthAdjust="spacing" textLength="7" x="1094.0884" y="1332.9059">1</text><text fill="#000000" font-family="sans-serif" font-size="13" lengthAdjust="spacing" textLength="7" x="888.4448" y="1468.1568">1</text></g><!--link Logistica to Telefone--><g id="link_Logistica_Telefone"><path codeLine="210" d="M1145.6496,1344.9884 C1109.2996,1398.8784 1065.8158,1463.3262 1031.3858,1514.3562 " fill="none" id="Logistica-Telefone" style="stroke:#181818;stroke-width:1.0;"/><polygon fill="#181818" points="1152.36,1335.04,1145.6887,1337.7774,1145.6496,1344.9884,1152.3209,1342.251,1152.36,1335.04" style="stroke:#181818;stroke-width:1.0;"/><polygon fill="#181818" points="1028.03,1519.33,1036.3796,1514.1065,1030.8265,1515.1852,1029.7479,1509.6321,1028.03,1519.33" style="stroke:#181818;stroke-width:1.0;"/><text fill="#000000" font-family="sans-serif" font-size="13" lengthAdjust="spacing" textLength="7" x="1139.8942" y="1357.1191">1</text><text fill="#000000" font-family="sans-serif" font-size="13" lengthAdjust="spacing" textLength="7" x="1025.2502" y="1508.6115">1</text></g><!--link Fornecedor to Endereco--><g id="link_Fornecedor_Endereco"><path codeLine="211" d="M666.0144,1346.8842 C673.0044,1373.0742 679.52,1392.4 691.52,1419 C696.01,1428.95 698.2148,1433.7375 703.5848,1443.7075 " fill="none" id="Fornecedor-Endereco" style="stroke:#181818;stroke-width:1.0;"/><polygon fill="#181818" points="662.92,1335.29,660.6025,1342.1186,666.0144,1346.8842,668.3319,1340.0556,662.92,1335.29" style="stroke:#181818;stroke-width:1.0;"/><polygon fill="#181818" points="706.43,1448.99,705.6838,1439.1694,704.059,1444.5879,698.6405,1442.9631,706.43,1448.99" style="stroke:#181818;stroke-width:1.0;"/><text fill="#000000" font-family="sans-serif" font-size="13" lengthAdjust="spacing" textLength="7" x="657.1266" y="1356.9808">1</text><text fill="#000000" font-family="sans-serif" font-size="13" lengthAdjust="spacing" textLength="7" x="694.1391" y="1438.2412">1</text></g><!--link Fornecedor to Telefone--><g id="link_Fornecedor_Telefone"><path codeLine="212" d="M742.1106,1336.8769 C803.1906,1376.9869 870.42,1422.8 898.52,1449 C921.06,1470.01 939.1966,1491.6925 956.2766,1514.4325 " fill="none" id="Fornecedor-Telefone" style="stroke:#181818;stroke-width:1.0;"/><polygon fill="#181818" points="732.08,1330.29,734.8997,1336.927,742.1106,1336.8769,739.2909,1330.2399,732.08,1330.29" style="stroke:#181818;stroke-width:1.0;"/><polygon fill="#181818" points="959.88,1519.23,957.6732,1509.6315,956.8772,1515.2321,951.2766,1514.436,959.88,1519.23" style="stroke:#181818;stroke-width:1.0;"/><text fill="#000000" font-family="sans-serif" font-size="13" lengthAdjust="spacing" textLength="7" x="740.0137" y="1332.0485">1</text><text fill="#000000" font-family="sans-serif" font-size="13" lengthAdjust="spacing" textLength="7" x="947.5166" y="1508.4974">1</text></g><!--SRC=[pLTBRniv3BxFhnZasC27Rcyz5DZOyMu1jsiaHgyBMg8T5HfnAccCO1__VQdnF2MDYsAnmEQGnFn83ldnCRJGu5pvQ2HQ55J-MPJyiogLV5_ko9oxZuOgV5y-Uwi6aQQp1KcDfGWmJOM9K9EF7Hn1sKHFK5LhhD3u1C4wyIb0AmaozjoOLhf5JWgyka24rw3S8FgxA4JBmG4rdiZW4WTIojkP3fxsbWGwn-pOmLbjIJQUVe-SElhMO49DhPm75_EbWouxpL36MHxLbOlrYweT-bW932Vz2Iko2XAi1j7QVeBNl4fDngCH2Xx09S7I5M9ZLSM69uiSz8Bb26PjFLHWNcWDuWLtxsw1FwM5-Tm8ZUIsoYb1BiKFBvQvZ84BwaKEHE2WaVHO7K736QjCuJK8pWM_LtLHDx7pRDMgR217bIJ4etZYFEC10HD97CzXR0ksWZ_Gm7pengJMMZ62Fx0Q97Zu34wepkKk3Ee6F0xfd-Auy3NT66ULX8_c9MO3Ar0wRacqfo3SjtydWNwiPeNh4-hNtvwbGjMWkmm73hODoyc0LVGlU93_GmgcIokqwW-aLv547STSWHLnV1ATi4f0khcaEjC67y3Qs4RbAWNQDq5pGyrHuz3bzfnAmrQqFV4pf4ONYqJZFAs3HUpc0fhi5pGo1hurO7ptyebeMc9uHxCfAcU6BPYf2aeb5ulI4_W4plCwQxFDEFdeiTf0cyLaCw6Wx-KqXg5URpL6joBYBSl84mey8hy8atq7bqMm9Ns8RLn4O3rmjclBfDperFQjV5LEzgdxCfmC4nCmb9KplyyOcii8c9Th8SG7qdXxXXxO5sNsnAzauHS-Lzef6HRcWJiuKjgfIddCwon4jILUyHlSmxbhaQKcdDHoraR8dF97y8thRE_BdyyDM0b6qkXtbjTzoK0YUqAlmjsueKUUENxzfmhS5DppUzHmOEPTJLn9RXA8DHyDD_qvzR312-bB69i4S7nOpO0-kOEgAJe0xykjUgKdjf7jZQ9ZTm7cfO4s1wvHDxoPzjo6IeJ_5XGM7VJHRF2tnblOyq59a1dkQrasb6oAUMdxzeaRPxATpe4S0JUxOyiR0foAQj7FUl1WASPuxpohx7RZnZHSxkcT_Dy_T1r-ApwNmgpTVExCk9-BkxTtvPlLwaDvz-Pk-DwKH_iI5jFpOTHuEx5Vr1XyTFKDVbFp7fm-VRBrY-aR863KU-ZU-cFy3FOE-ek0UGdVHtXwy2kvOlhjPhNwwyFWOxX-vr9-TLmbyHegueMUr-fsQXxC9JwVY28Qa5dwLwmO9Z_81d2w4xBqTwGLFL4prxCsovel9ZDrCupbx2bzgk5gADhJ8VRSpLKnZdM-yHRmiNN74Ltet0M5mSC_]--></g></svg>