<?xml version="1.0" encoding="UTF-8" standalone="no"?><svg xmlns="http://www.w3.org/2000/svg" xmlns:xlink="http://www.w3.org/1999/xlink" contentStyleType="text/css" height="1220px" preserveAspectRatio="none" style="width:1493px;height:1220px;background:#FFFFFF;" version="1.1" viewBox="0 0 1493 1220" width="1493px" zoomAndPan="magnify"><defs/><g><!--MD5=[36c1942e8942a3e4f47e6de3733e3d18]
class Endereco--><g id="elem_Endereco"><rect codeLine="2" fill="#F1F1F1" height="224.0938" id="Endereco" rx="2.5" ry="2.5" style="stroke:#181818;stroke-width:0.5;" width="155" x="590.54" y="765.5"/><ellipse cx="633.44" cy="781.5" fill="#ADD1B2" rx="11" ry="11" style="stroke:#181818;stroke-width:1.0;"/><path d="M636.2056,777.375 Q636.3619,777.1563 636.5494,777.0469 Q636.7369,776.9375 636.9556,776.9375 Q637.3306,776.9375 637.565,777.2031 Q637.7994,777.4531 637.7994,778.0625 L637.7994,779.5156 Q637.7994,780.125 637.565,780.3906 Q637.3306,780.6563 636.9556,780.6563 Q636.6119,780.6563 636.4087,780.4531 Q636.2056,780.2656 636.0962,779.75 Q636.0494,779.3906 635.8619,779.2031 Q635.5337,778.8281 634.9244,778.6094 Q634.315,778.3906 633.69,778.3906 Q632.9244,778.3906 632.2837,778.7188 Q631.6587,779.0469 631.1587,779.7969 Q630.6744,780.5469 630.6744,781.5781 L630.6744,782.6719 Q630.6744,783.9063 631.565,784.7344 Q632.4556,785.5469 634.0494,785.5469 Q634.9869,785.5469 635.6431,785.2969 Q636.0337,785.1406 636.4556,784.7031 Q636.7212,784.4375 636.8619,784.3594 Q637.0181,784.2813 637.2212,784.2813 Q637.5494,784.2813 637.7994,784.5469 Q638.065,784.7969 638.065,785.1406 Q638.065,785.4844 637.7212,785.8906 Q637.2212,786.4688 636.4244,786.7969 Q635.3462,787.25 634.0494,787.25 Q632.5337,787.25 631.3306,786.625 Q630.3462,786.125 629.6587,785.0625 Q628.9712,783.9844 628.9712,782.7031 L628.9712,781.5469 Q628.9712,780.2188 629.5806,779.0781 Q630.2056,777.9219 631.2994,777.3125 Q632.3931,776.6875 633.6275,776.6875 Q634.3619,776.6875 635.0025,776.8594 Q635.6587,777.0156 636.2056,777.375 Z " fill="#000000"/><text fill="#000000" font-family="sans-serif" font-size="14" lengthAdjust="spacing" textLength="61" x="653.64" y="787.2285">Endereco</text><line style="stroke:#181818;stroke-width:0.5;" x1="591.54" x2="744.54" y1="797.5" y2="797.5"/><rect fill="none" height="6" style="stroke:#C82930;stroke-width:1.0;" width="6" x="598.54" y="808.8047"/><text fill="#000000" font-family="sans-serif" font-size="14" lengthAdjust="spacing" textLength="51" x="610.54" y="816.0332">id: Long</text><rect fill="none" height="6" style="stroke:#C82930;stroke-width:1.0;" width="6" x="598.54" y="826.4141"/><text fill="#000000" font-family="sans-serif" font-size="14" lengthAdjust="spacing" textLength="66" x="610.54" y="833.6426">rua: String</text><rect fill="none" height="6" style="stroke:#C82930;stroke-width:1.0;" width="6" x="598.54" y="844.0234"/><text fill="#000000" font-family="sans-serif" font-size="14" lengthAdjust="spacing" textLength="93" x="610.54" y="851.252">numero: String</text><rect fill="none" height="6" style="stroke:#C82930;stroke-width:1.0;" width="6" x="598.54" y="861.6328"/><text fill="#000000" font-family="sans-serif" font-size="14" lengthAdjust="spacing" textLength="68" x="610.54" y="868.8613">lote: String</text><rect fill="none" height="6" style="stroke:#C82930;stroke-width:1.0;" width="6" x="598.54" y="879.2422"/><text fill="#000000" font-family="sans-serif" font-size="14" lengthAdjust="spacing" textLength="82" x="610.54" y="886.4707">bairro: String</text><rect fill="none" height="6" style="stroke:#C82930;stroke-width:1.0;" width="6" x="598.54" y="896.8516"/><text fill="#000000" font-family="sans-serif" font-size="14" lengthAdjust="spacing" textLength="129" x="610.54" y="904.0801">complemento: String</text><rect fill="none" height="6" style="stroke:#C82930;stroke-width:1.0;" width="6" x="598.54" y="914.4609"/><text fill="#000000" font-family="sans-serif" font-size="14" lengthAdjust="spacing" textLength="68" x="610.54" y="921.6895">cep: String</text><rect fill="none" height="6" style="stroke:#C82930;stroke-width:1.0;" width="6" x="598.54" y="932.0703"/><text fill="#000000" font-family="sans-serif" font-size="14" lengthAdjust="spacing" textLength="104" x="610.54" y="939.2988">municipio: String</text><rect fill="none" height="6" style="stroke:#C82930;stroke-width:1.0;" width="6" x="598.54" y="949.6797"/><text fill="#000000" font-family="sans-serif" font-size="14" lengthAdjust="spacing" textLength="88" x="610.54" y="956.9082">estado: String</text><rect fill="none" height="6" style="stroke:#C82930;stroke-width:1.0;" width="6" x="598.54" y="967.2891"/><text fill="#000000" font-family="sans-serif" font-size="14" lengthAdjust="spacing" textLength="71" x="610.54" y="974.5176">pais: String</text><line style="stroke:#181818;stroke-width:0.5;" x1="591.54" x2="744.54" y1="981.5938" y2="981.5938"/></g><!--MD5=[09da7f27b36ab6000039850faa070beb]
class Telefone--><g id="elem_Telefone"><rect codeLine="15" fill="#F1F1F1" height="100.8281" id="Telefone" rx="2.5" ry="2.5" style="stroke:#181818;stroke-width:0.5;" width="119" x="1129.54" y="827"/><ellipse cx="1158.49" cy="843" fill="#ADD1B2" rx="11" ry="11" style="stroke:#181818;stroke-width:1.0;"/><path d="M1161.2556,838.875 Q1161.4119,838.6563 1161.5994,838.5469 Q1161.7869,838.4375 1162.0056,838.4375 Q1162.3806,838.4375 1162.615,838.7031 Q1162.8494,838.9531 1162.8494,839.5625 L1162.8494,841.0156 Q1162.8494,841.625 1162.615,841.8906 Q1162.3806,842.1563 1162.0056,842.1563 Q1161.6619,842.1563 1161.4588,841.9531 Q1161.2556,841.7656 1161.1463,841.25 Q1161.0994,840.8906 1160.9119,840.7031 Q1160.5838,840.3281 1159.9744,840.1094 Q1159.365,839.8906 1158.74,839.8906 Q1157.9744,839.8906 1157.3338,840.2188 Q1156.7088,840.5469 1156.2088,841.2969 Q1155.7244,842.0469 1155.7244,843.0781 L1155.7244,844.1719 Q1155.7244,845.4063 1156.615,846.2344 Q1157.5056,847.0469 1159.0994,847.0469 Q1160.0369,847.0469 1160.6931,846.7969 Q1161.0838,846.6406 1161.5056,846.2031 Q1161.7713,845.9375 1161.9119,845.8594 Q1162.0681,845.7813 1162.2713,845.7813 Q1162.5994,845.7813 1162.8494,846.0469 Q1163.115,846.2969 1163.115,846.6406 Q1163.115,846.9844 1162.7713,847.3906 Q1162.2713,847.9688 1161.4744,848.2969 Q1160.3963,848.75 1159.0994,848.75 Q1157.5838,848.75 1156.3806,848.125 Q1155.3963,847.625 1154.7088,846.5625 Q1154.0213,845.4844 1154.0213,844.2031 L1154.0213,843.0469 Q1154.0213,841.7188 1154.6306,840.5781 Q1155.2556,839.4219 1156.3494,838.8125 Q1157.4431,838.1875 1158.6775,838.1875 Q1159.4119,838.1875 1160.0525,838.3594 Q1160.7088,838.5156 1161.2556,838.875 Z " fill="#000000"/><text fill="#000000" font-family="sans-serif" font-size="14" lengthAdjust="spacing" textLength="56" x="1175.59" y="848.7285">Telefone</text><line style="stroke:#181818;stroke-width:0.5;" x1="1130.54" x2="1247.54" y1="859" y2="859"/><rect fill="none" height="6" style="stroke:#C82930;stroke-width:1.0;" width="6" x="1137.54" y="870.3047"/><text fill="#000000" font-family="sans-serif" font-size="14" lengthAdjust="spacing" textLength="51" x="1149.54" y="877.5332">id: Long</text><rect fill="none" height="6" style="stroke:#C82930;stroke-width:1.0;" width="6" x="1137.54" y="887.9141"/><text fill="#000000" font-family="sans-serif" font-size="14" lengthAdjust="spacing" textLength="69" x="1149.54" y="895.1426">ddd: String</text><rect fill="none" height="6" style="stroke:#C82930;stroke-width:1.0;" width="6" x="1137.54" y="905.5234"/><text fill="#000000" font-family="sans-serif" font-size="14" lengthAdjust="spacing" textLength="93" x="1149.54" y="912.752">numero: String</text><line style="stroke:#181818;stroke-width:0.5;" x1="1130.54" x2="1247.54" y1="919.8281" y2="919.8281"/></g><!--MD5=[20a748d5ee336a9a91751b0a3d4f0beb]
class Cliente--><g id="elem_Cliente"><rect codeLine="21" fill="#F1F1F1" height="188.875" id="Cliente" rx="2.5" ry="2.5" style="stroke:#181818;stroke-width:0.5;" width="199" x="286.54" y="7"/><ellipse cx="359.79" cy="23" fill="#ADD1B2" rx="11" ry="11" style="stroke:#181818;stroke-width:1.0;"/><path d="M362.5556,18.875 Q362.7119,18.6563 362.8994,18.5469 Q363.0869,18.4375 363.3056,18.4375 Q363.6806,18.4375 363.915,18.7031 Q364.1494,18.9531 364.1494,19.5625 L364.1494,21.0156 Q364.1494,21.625 363.915,21.8906 Q363.6806,22.1563 363.3056,22.1563 Q362.9619,22.1563 362.7587,21.9531 Q362.5556,21.7656 362.4462,21.25 Q362.3994,20.8906 362.2119,20.7031 Q361.8837,20.3281 361.2744,20.1094 Q360.665,19.8906 360.04,19.8906 Q359.2744,19.8906 358.6337,20.2188 Q358.0087,20.5469 357.5087,21.2969 Q357.0244,22.0469 357.0244,23.0781 L357.0244,24.1719 Q357.0244,25.4063 357.915,26.2344 Q358.8056,27.0469 360.3994,27.0469 Q361.3369,27.0469 361.9931,26.7969 Q362.3837,26.6406 362.8056,26.2031 Q363.0712,25.9375 363.2119,25.8594 Q363.3681,25.7813 363.5712,25.7813 Q363.8994,25.7813 364.1494,26.0469 Q364.415,26.2969 364.415,26.6406 Q364.415,26.9844 364.0712,27.3906 Q363.5712,27.9688 362.7744,28.2969 Q361.6962,28.75 360.3994,28.75 Q358.8837,28.75 357.6806,28.125 Q356.6962,27.625 356.0087,26.5625 Q355.3212,25.4844 355.3212,24.2031 L355.3212,23.0469 Q355.3212,21.7188 355.9306,20.5781 Q356.5556,19.4219 357.6494,18.8125 Q358.7431,18.1875 359.9775,18.1875 Q360.7119,18.1875 361.3525,18.3594 Q362.0087,18.5156 362.5556,18.875 Z " fill="#000000"/><text fill="#000000" font-family="sans-serif" font-size="14" lengthAdjust="spacing" textLength="44" x="380.29" y="28.7285">Cliente</text><line style="stroke:#181818;stroke-width:0.5;" x1="287.54" x2="484.54" y1="39" y2="39"/><rect fill="none" height="6" style="stroke:#C82930;stroke-width:1.0;" width="6" x="294.54" y="50.3047"/><text fill="#000000" font-family="sans-serif" font-size="14" lengthAdjust="spacing" textLength="51" x="306.54" y="57.5332">id: Long</text><rect fill="none" height="6" style="stroke:#C82930;stroke-width:1.0;" width="6" x="294.54" y="67.9141"/><text fill="#000000" font-family="sans-serif" font-size="14" lengthAdjust="spacing" textLength="80" x="306.54" y="75.1426">nome: String</text><rect fill="none" height="6" style="stroke:#C82930;stroke-width:1.0;" width="6" x="294.54" y="85.5234"/><text fill="#000000" font-family="sans-serif" font-size="14" lengthAdjust="spacing" textLength="173" x="306.54" y="92.752">dataNascimento: LocalDate</text><rect fill="none" height="6" style="stroke:#C82930;stroke-width:1.0;" width="6" x="294.54" y="103.1328"/><text fill="#000000" font-family="sans-serif" font-size="14" lengthAdjust="spacing" textLength="64" x="306.54" y="110.3613">cpf: String</text><rect fill="none" height="6" style="stroke:#C82930;stroke-width:1.0;" width="6" x="294.54" y="120.7422"/><text fill="#000000" font-family="sans-serif" font-size="14" lengthAdjust="spacing" textLength="74" x="306.54" y="127.9707">sexo: String</text><rect fill="none" height="6" style="stroke:#C82930;stroke-width:1.0;" width="6" x="294.54" y="138.3516"/><text fill="#000000" font-family="sans-serif" font-size="14" lengthAdjust="spacing" textLength="75" x="306.54" y="145.5801">login: String</text><rect fill="none" height="6" style="stroke:#C82930;stroke-width:1.0;" width="6" x="294.54" y="155.9609"/><text fill="#000000" font-family="sans-serif" font-size="14" lengthAdjust="spacing" textLength="84" x="306.54" y="163.1895">senha: String</text><rect fill="none" height="6" style="stroke:#C82930;stroke-width:1.0;" width="6" x="294.54" y="173.5703"/><text fill="#000000" font-family="sans-serif" font-size="14" lengthAdjust="spacing" textLength="78" x="306.54" y="180.7988">email: String</text><line style="stroke:#181818;stroke-width:0.5;" x1="287.54" x2="484.54" y1="187.875" y2="187.875"/></g><!--MD5=[cf98b8104f7f757d2a3327e9c712e420]
class Funcionario--><g id="elem_Funcionario"><rect codeLine="32" fill="#F1F1F1" height="188.875" id="Funcionario" rx="2.5" ry="2.5" style="stroke:#181818;stroke-width:0.5;" width="163" x="586.54" y="489"/><ellipse cx="626.74" cy="505" fill="#ADD1B2" rx="11" ry="11" style="stroke:#181818;stroke-width:1.0;"/><path d="M629.5056,500.875 Q629.6619,500.6563 629.8494,500.5469 Q630.0369,500.4375 630.2556,500.4375 Q630.6306,500.4375 630.865,500.7031 Q631.0994,500.9531 631.0994,501.5625 L631.0994,503.0156 Q631.0994,503.625 630.865,503.8906 Q630.6306,504.1563 630.2556,504.1563 Q629.9119,504.1563 629.7088,503.9531 Q629.5056,503.7656 629.3963,503.25 Q629.3494,502.8906 629.1619,502.7031 Q628.8338,502.3281 628.2244,502.1094 Q627.615,501.8906 626.99,501.8906 Q626.2244,501.8906 625.5838,502.2188 Q624.9588,502.5469 624.4588,503.2969 Q623.9744,504.0469 623.9744,505.0781 L623.9744,506.1719 Q623.9744,507.4063 624.865,508.2344 Q625.7556,509.0469 627.3494,509.0469 Q628.2869,509.0469 628.9431,508.7969 Q629.3338,508.6406 629.7556,508.2031 Q630.0213,507.9375 630.1619,507.8594 Q630.3181,507.7813 630.5213,507.7813 Q630.8494,507.7813 631.0994,508.0469 Q631.365,508.2969 631.365,508.6406 Q631.365,508.9844 631.0213,509.3906 Q630.5213,509.9688 629.7244,510.2969 Q628.6463,510.75 627.3494,510.75 Q625.8338,510.75 624.6306,510.125 Q623.6463,509.625 622.9588,508.5625 Q622.2713,507.4844 622.2713,506.2031 L622.2713,505.0469 Q622.2713,503.7188 622.8806,502.5781 Q623.5056,501.4219 624.5994,500.8125 Q625.6931,500.1875 626.9275,500.1875 Q627.6619,500.1875 628.3025,500.3594 Q628.9588,500.5156 629.5056,500.875 Z " fill="#000000"/><text fill="#000000" font-family="sans-serif" font-size="14" lengthAdjust="spacing" textLength="75" x="646.34" y="510.7285">Funcionario</text><line style="stroke:#181818;stroke-width:0.5;" x1="587.54" x2="748.54" y1="521" y2="521"/><rect fill="none" height="6" style="stroke:#C82930;stroke-width:1.0;" width="6" x="594.54" y="532.3047"/><text fill="#000000" font-family="sans-serif" font-size="14" lengthAdjust="spacing" textLength="51" x="606.54" y="539.5332">id: Long</text><rect fill="none" height="6" style="stroke:#C82930;stroke-width:1.0;" width="6" x="594.54" y="549.9141"/><text fill="#000000" font-family="sans-serif" font-size="14" lengthAdjust="spacing" textLength="80" x="606.54" y="557.1426">nome: String</text><rect fill="none" height="6" style="stroke:#C82930;stroke-width:1.0;" width="6" x="594.54" y="567.5234"/><text fill="#000000" font-family="sans-serif" font-size="14" lengthAdjust="spacing" textLength="137" x="606.54" y="574.752">dataNascimento: date</text><rect fill="none" height="6" style="stroke:#C82930;stroke-width:1.0;" width="6" x="594.54" y="585.1328"/><text fill="#000000" font-family="sans-serif" font-size="14" lengthAdjust="spacing" textLength="64" x="606.54" y="592.3613">cpf: String</text><rect fill="none" height="6" style="stroke:#C82930;stroke-width:1.0;" width="6" x="594.54" y="602.7422"/><text fill="#000000" font-family="sans-serif" font-size="14" lengthAdjust="spacing" textLength="74" x="606.54" y="609.9707">sexo: String</text><rect fill="none" height="6" style="stroke:#C82930;stroke-width:1.0;" width="6" x="594.54" y="620.3516"/><text fill="#000000" font-family="sans-serif" font-size="14" lengthAdjust="spacing" textLength="75" x="606.54" y="627.5801">login: String</text><rect fill="none" height="6" style="stroke:#C82930;stroke-width:1.0;" width="6" x="594.54" y="637.9609"/><text fill="#000000" font-family="sans-serif" font-size="14" lengthAdjust="spacing" textLength="84" x="606.54" y="645.1895">senha: String</text><rect fill="none" height="6" style="stroke:#C82930;stroke-width:1.0;" width="6" x="594.54" y="655.5703"/><text fill="#000000" font-family="sans-serif" font-size="14" lengthAdjust="spacing" textLength="78" x="606.54" y="662.7988">email: String</text><line style="stroke:#181818;stroke-width:0.5;" x1="587.54" x2="748.54" y1="669.875" y2="669.875"/></g><!--MD5=[d4dacc50d49878ba7c621dfc80a2e1ce]
class Produto--><g id="elem_Produto"><rect codeLine="43" fill="#F1F1F1" height="276.9219" id="Produto" rx="2.5" ry="2.5" style="stroke:#181818;stroke-width:0.5;" width="166" x="34.04" y="739"/><ellipse cx="87.79" cy="755" fill="#ADD1B2" rx="11" ry="11" style="stroke:#181818;stroke-width:1.0;"/><path d="M90.5556,750.875 Q90.7119,750.6563 90.8994,750.5469 Q91.0869,750.4375 91.3056,750.4375 Q91.6806,750.4375 91.915,750.7031 Q92.1494,750.9531 92.1494,751.5625 L92.1494,753.0156 Q92.1494,753.625 91.915,753.8906 Q91.6806,754.1563 91.3056,754.1563 Q90.9619,754.1563 90.7587,753.9531 Q90.5556,753.7656 90.4462,753.25 Q90.3994,752.8906 90.2119,752.7031 Q89.8837,752.3281 89.2744,752.1094 Q88.665,751.8906 88.04,751.8906 Q87.2744,751.8906 86.6337,752.2188 Q86.0087,752.5469 85.5087,753.2969 Q85.0244,754.0469 85.0244,755.0781 L85.0244,756.1719 Q85.0244,757.4063 85.915,758.2344 Q86.8056,759.0469 88.3994,759.0469 Q89.3369,759.0469 89.9931,758.7969 Q90.3837,758.6406 90.8056,758.2031 Q91.0712,757.9375 91.2119,757.8594 Q91.3681,757.7813 91.5712,757.7813 Q91.8994,757.7813 92.1494,758.0469 Q92.415,758.2969 92.415,758.6406 Q92.415,758.9844 92.0712,759.3906 Q91.5712,759.9688 90.7744,760.2969 Q89.6962,760.75 88.3994,760.75 Q86.8837,760.75 85.6806,760.125 Q84.6962,759.625 84.0087,758.5625 Q83.3212,757.4844 83.3212,756.2031 L83.3212,755.0469 Q83.3212,753.7188 83.9306,752.5781 Q84.5556,751.4219 85.6494,750.8125 Q86.7431,750.1875 87.9775,750.1875 Q88.7119,750.1875 89.3525,750.3594 Q90.0087,750.5156 90.5556,750.875 Z " fill="#000000"/><text fill="#000000" font-family="sans-serif" font-size="14" lengthAdjust="spacing" textLength="50" x="108.29" y="760.7285">Produto</text><line style="stroke:#181818;stroke-width:0.5;" x1="35.04" x2="199.04" y1="771" y2="771"/><rect fill="none" height="6" style="stroke:#C82930;stroke-width:1.0;" width="6" x="42.04" y="782.3047"/><text fill="#000000" font-family="sans-serif" font-size="14" lengthAdjust="spacing" textLength="51" x="54.04" y="789.5332">id: Long</text><rect fill="none" height="6" style="stroke:#C82930;stroke-width:1.0;" width="6" x="42.04" y="799.9141"/><text fill="#000000" font-family="sans-serif" font-size="14" lengthAdjust="spacing" textLength="80" x="54.04" y="807.1426">nome: String</text><rect fill="none" height="6" style="stroke:#C82930;stroke-width:1.0;" width="6" x="42.04" y="817.5234"/><text fill="#000000" font-family="sans-serif" font-size="14" lengthAdjust="spacing" textLength="106" x="54.04" y="824.752">descricao: String</text><rect fill="none" height="6" style="stroke:#C82930;stroke-width:1.0;" width="6" x="42.04" y="835.1328"/><text fill="#000000" font-family="sans-serif" font-size="14" lengthAdjust="spacing" textLength="140" x="54.04" y="842.3613">codigoDeBarra: String</text><rect fill="none" height="6" style="stroke:#C82930;stroke-width:1.0;" width="6" x="42.04" y="852.7422"/><text fill="#000000" font-family="sans-serif" font-size="14" lengthAdjust="spacing" textLength="84" x="54.04" y="859.9707">marca: String</text><rect fill="none" height="6" style="stroke:#C82930;stroke-width:1.0;" width="6" x="42.04" y="870.3516"/><text fill="#000000" font-family="sans-serif" font-size="14" lengthAdjust="spacing" textLength="94" x="54.04" y="877.5801">imagem: String</text><rect fill="none" height="6" style="stroke:#C82930;stroke-width:1.0;" width="6" x="42.04" y="887.9609"/><text fill="#000000" font-family="sans-serif" font-size="14" lengthAdjust="spacing" textLength="89" x="54.04" y="895.1895">altura: Double</text><rect fill="none" height="6" style="stroke:#C82930;stroke-width:1.0;" width="6" x="42.04" y="905.5703"/><text fill="#000000" font-family="sans-serif" font-size="14" lengthAdjust="spacing" textLength="98" x="54.04" y="912.7988">largura: Double</text><rect fill="none" height="6" style="stroke:#C82930;stroke-width:1.0;" width="6" x="42.04" y="923.1797"/><text fill="#000000" font-family="sans-serif" font-size="14" lengthAdjust="spacing" textLength="134" x="54.04" y="930.4082">comprimento: Double</text><rect fill="none" height="6" style="stroke:#C82930;stroke-width:1.0;" width="6" x="42.04" y="940.7891"/><text fill="#000000" font-family="sans-serif" font-size="14" lengthAdjust="spacing" textLength="84" x="54.04" y="948.0176">peso: Double</text><rect fill="none" height="6" style="stroke:#C82930;stroke-width:1.0;" width="6" x="42.04" y="958.3984"/><text fill="#000000" font-family="sans-serif" font-size="14" lengthAdjust="spacing" textLength="137" x="54.04" y="965.627">custoCompra: Double</text><rect fill="none" height="6" style="stroke:#C82930;stroke-width:1.0;" width="6" x="42.04" y="976.0078"/><text fill="#000000" font-family="sans-serif" font-size="14" lengthAdjust="spacing" textLength="125" x="54.04" y="983.2363">valorVenda: Double</text><rect fill="none" height="6" style="stroke:#C82930;stroke-width:1.0;" width="6" x="42.04" y="993.6172"/><text fill="#000000" font-family="sans-serif" font-size="14" lengthAdjust="spacing" textLength="111" x="54.04" y="1000.8457">quantidade: Long</text><line style="stroke:#181818;stroke-width:0.5;" x1="35.04" x2="199.04" y1="1007.9219" y2="1007.9219"/></g><!--MD5=[998c786a3ec01e3a4cd64978ede0c0df]
class Lote--><g id="elem_Lote"><rect codeLine="59" fill="#F1F1F1" height="83.2188" id="Lote" rx="2.5" ry="2.5" style="stroke:#181818;stroke-width:0.5;" width="103" x="531.54" y="1103.5"/><ellipse cx="565.89" cy="1119.5" fill="#ADD1B2" rx="11" ry="11" style="stroke:#181818;stroke-width:1.0;"/><path d="M568.6556,1115.375 Q568.8119,1115.1563 568.9994,1115.0469 Q569.1869,1114.9375 569.4056,1114.9375 Q569.7806,1114.9375 570.015,1115.2031 Q570.2494,1115.4531 570.2494,1116.0625 L570.2494,1117.5156 Q570.2494,1118.125 570.015,1118.3906 Q569.7806,1118.6563 569.4056,1118.6563 Q569.0619,1118.6563 568.8588,1118.4531 Q568.6556,1118.2656 568.5463,1117.75 Q568.4994,1117.3906 568.3119,1117.2031 Q567.9838,1116.8281 567.3744,1116.6094 Q566.765,1116.3906 566.14,1116.3906 Q565.3744,1116.3906 564.7338,1116.7188 Q564.1088,1117.0469 563.6088,1117.7969 Q563.1244,1118.5469 563.1244,1119.5781 L563.1244,1120.6719 Q563.1244,1121.9063 564.015,1122.7344 Q564.9056,1123.5469 566.4994,1123.5469 Q567.4369,1123.5469 568.0931,1123.2969 Q568.4838,1123.1406 568.9056,1122.7031 Q569.1713,1122.4375 569.3119,1122.3594 Q569.4681,1122.2813 569.6713,1122.2813 Q569.9994,1122.2813 570.2494,1122.5469 Q570.515,1122.7969 570.515,1123.1406 Q570.515,1123.4844 570.1713,1123.8906 Q569.6713,1124.4688 568.8744,1124.7969 Q567.7963,1125.25 566.4994,1125.25 Q564.9838,1125.25 563.7806,1124.625 Q562.7963,1124.125 562.1088,1123.0625 Q561.4213,1121.9844 561.4213,1120.7031 L561.4213,1119.5469 Q561.4213,1118.2188 562.0306,1117.0781 Q562.6556,1115.9219 563.7494,1115.3125 Q564.8431,1114.6875 566.0775,1114.6875 Q566.8119,1114.6875 567.4525,1114.8594 Q568.1088,1115.0156 568.6556,1115.375 Z " fill="#000000"/><text fill="#000000" font-family="sans-serif" font-size="14" lengthAdjust="spacing" textLength="28" x="584.19" y="1125.2285">Lote</text><line style="stroke:#181818;stroke-width:0.5;" x1="532.54" x2="633.54" y1="1135.5" y2="1135.5"/><rect fill="none" height="6" style="stroke:#C82930;stroke-width:1.0;" width="6" x="539.54" y="1146.8047"/><text fill="#000000" font-family="sans-serif" font-size="14" lengthAdjust="spacing" textLength="55" x="551.54" y="1154.0332">id : Long</text><rect fill="none" height="6" style="stroke:#C82930;stroke-width:1.0;" width="6" x="539.54" y="1164.4141"/><text fill="#000000" font-family="sans-serif" font-size="14" lengthAdjust="spacing" textLength="77" x="551.54" y="1171.6426">Lote : String</text><line style="stroke:#181818;stroke-width:0.5;" x1="532.54" x2="633.54" y1="1178.7188" y2="1178.7188"/></g><!--MD5=[a26d7a8585b446db7fc8ab4626d8ca8a]
class Pedido--><g id="elem_Pedido"><rect codeLine="64" fill="#F1F1F1" height="83.2188" id="Pedido" rx="2.5" ry="2.5" style="stroke:#181818;stroke-width:0.5;" width="224" x="384.04" y="292.5"/><ellipse cx="469.79" cy="308.5" fill="#ADD1B2" rx="11" ry="11" style="stroke:#181818;stroke-width:1.0;"/><path d="M472.5556,304.375 Q472.7119,304.1563 472.8994,304.0469 Q473.0869,303.9375 473.3056,303.9375 Q473.6806,303.9375 473.915,304.2031 Q474.1494,304.4531 474.1494,305.0625 L474.1494,306.5156 Q474.1494,307.125 473.915,307.3906 Q473.6806,307.6563 473.3056,307.6563 Q472.9619,307.6563 472.7587,307.4531 Q472.5556,307.2656 472.4462,306.75 Q472.3994,306.3906 472.2119,306.2031 Q471.8837,305.8281 471.2744,305.6094 Q470.665,305.3906 470.04,305.3906 Q469.2744,305.3906 468.6337,305.7188 Q468.0087,306.0469 467.5087,306.7969 Q467.0244,307.5469 467.0244,308.5781 L467.0244,309.6719 Q467.0244,310.9063 467.915,311.7344 Q468.8056,312.5469 470.3994,312.5469 Q471.3369,312.5469 471.9931,312.2969 Q472.3837,312.1406 472.8056,311.7031 Q473.0712,311.4375 473.2119,311.3594 Q473.3681,311.2813 473.5712,311.2813 Q473.8994,311.2813 474.1494,311.5469 Q474.415,311.7969 474.415,312.1406 Q474.415,312.4844 474.0712,312.8906 Q473.5712,313.4688 472.7744,313.7969 Q471.6962,314.25 470.3994,314.25 Q468.8837,314.25 467.6806,313.625 Q466.6962,313.125 466.0087,312.0625 Q465.3212,310.9844 465.3212,309.7031 L465.3212,308.5469 Q465.3212,307.2188 465.9306,306.0781 Q466.5556,304.9219 467.6494,304.3125 Q468.7431,303.6875 469.9775,303.6875 Q470.7119,303.6875 471.3525,303.8594 Q472.0087,304.0156 472.5556,304.375 Z " fill="#000000"/><text fill="#000000" font-family="sans-serif" font-size="14" lengthAdjust="spacing" textLength="44" x="490.29" y="314.2285">Pedido</text><line style="stroke:#181818;stroke-width:0.5;" x1="385.04" x2="607.04" y1="324.5" y2="324.5"/><rect fill="none" height="6" style="stroke:#C82930;stroke-width:1.0;" width="6" x="392.04" y="335.8047"/><text fill="#000000" font-family="sans-serif" font-size="14" lengthAdjust="spacing" textLength="51" x="404.04" y="343.0332">id: Long</text><rect fill="none" height="6" style="stroke:#C82930;stroke-width:1.0;" width="6" x="392.04" y="353.4141"/><text fill="#000000" font-family="sans-serif" font-size="14" lengthAdjust="spacing" textLength="198" x="404.04" y="360.6426">codigoDeRastreamento : String</text><line style="stroke:#181818;stroke-width:0.5;" x1="385.04" x2="607.04" y1="367.7188" y2="367.7188"/></g><!--MD5=[8176294b3acce9010a4085be6f56b615]
class ItemDaVenda--><g id="elem_ItemDaVenda"><rect codeLine="69" fill="#F1F1F1" height="83.2188" id="ItemDaVenda" rx="2.5" ry="2.5" style="stroke:#181818;stroke-width:0.5;" width="137" x="48.54" y="542"/><ellipse cx="72.54" cy="558" fill="#ADD1B2" rx="11" ry="11" style="stroke:#181818;stroke-width:1.0;"/><path d="M75.3056,553.875 Q75.4619,553.6563 75.6494,553.5469 Q75.8369,553.4375 76.0556,553.4375 Q76.4306,553.4375 76.665,553.7031 Q76.8994,553.9531 76.8994,554.5625 L76.8994,556.0156 Q76.8994,556.625 76.665,556.8906 Q76.4306,557.1563 76.0556,557.1563 Q75.7119,557.1563 75.5087,556.9531 Q75.3056,556.7656 75.1962,556.25 Q75.1494,555.8906 74.9619,555.7031 Q74.6337,555.3281 74.0244,555.1094 Q73.415,554.8906 72.79,554.8906 Q72.0244,554.8906 71.3837,555.2188 Q70.7587,555.5469 70.2587,556.2969 Q69.7744,557.0469 69.7744,558.0781 L69.7744,559.1719 Q69.7744,560.4063 70.665,561.2344 Q71.5556,562.0469 73.1494,562.0469 Q74.0869,562.0469 74.7431,561.7969 Q75.1337,561.6406 75.5556,561.2031 Q75.8212,560.9375 75.9619,560.8594 Q76.1181,560.7813 76.3212,560.7813 Q76.6494,560.7813 76.8994,561.0469 Q77.165,561.2969 77.165,561.6406 Q77.165,561.9844 76.8212,562.3906 Q76.3212,562.9688 75.5244,563.2969 Q74.4462,563.75 73.1494,563.75 Q71.6337,563.75 70.4306,563.125 Q69.4462,562.625 68.7587,561.5625 Q68.0712,560.4844 68.0712,559.2031 L68.0712,558.0469 Q68.0712,556.7188 68.6806,555.5781 Q69.3056,554.4219 70.3994,553.8125 Q71.4931,553.1875 72.7275,553.1875 Q73.4619,553.1875 74.1025,553.3594 Q74.7587,553.5156 75.3056,553.875 Z " fill="#000000"/><text fill="#000000" font-family="sans-serif" font-size="14" lengthAdjust="spacing" textLength="85" x="88.54" y="563.7285">ItemDaVenda</text><line style="stroke:#181818;stroke-width:0.5;" x1="49.54" x2="184.54" y1="574" y2="574"/><rect fill="none" height="6" style="stroke:#C82930;stroke-width:1.0;" width="6" x="56.54" y="585.3047"/><text fill="#000000" font-family="sans-serif" font-size="14" lengthAdjust="spacing" textLength="89" x="68.54" y="592.5332">preco: Double</text><rect fill="none" height="6" style="stroke:#C82930;stroke-width:1.0;" width="6" x="56.54" y="602.9141"/><text fill="#000000" font-family="sans-serif" font-size="14" lengthAdjust="spacing" textLength="111" x="68.54" y="610.1426">quantidade: Long</text><line style="stroke:#181818;stroke-width:0.5;" x1="49.54" x2="184.54" y1="617.2188" y2="617.2188"/></g><!--MD5=[2e7fe3accda1b291f0868f59fa248502]
class Pix--><g id="elem_Pix"><rect codeLine="74" fill="#F1F1F1" height="136.0469" id="Pix" rx="2.5" ry="2.5" style="stroke:#181818;stroke-width:0.5;" width="179" x="1168.54" y="266"/><ellipse cx="1244.79" cy="282" fill="#ADD1B2" rx="11" ry="11" style="stroke:#181818;stroke-width:1.0;"/><path d="M1247.5556,277.875 Q1247.7119,277.6563 1247.8994,277.5469 Q1248.0869,277.4375 1248.3056,277.4375 Q1248.6806,277.4375 1248.915,277.7031 Q1249.1494,277.9531 1249.1494,278.5625 L1249.1494,280.0156 Q1249.1494,280.625 1248.915,280.8906 Q1248.6806,281.1563 1248.3056,281.1563 Q1247.9619,281.1563 1247.7588,280.9531 Q1247.5556,280.7656 1247.4463,280.25 Q1247.3994,279.8906 1247.2119,279.7031 Q1246.8838,279.3281 1246.2744,279.1094 Q1245.665,278.8906 1245.04,278.8906 Q1244.2744,278.8906 1243.6338,279.2188 Q1243.0088,279.5469 1242.5088,280.2969 Q1242.0244,281.0469 1242.0244,282.0781 L1242.0244,283.1719 Q1242.0244,284.4063 1242.915,285.2344 Q1243.8056,286.0469 1245.3994,286.0469 Q1246.3369,286.0469 1246.9931,285.7969 Q1247.3838,285.6406 1247.8056,285.2031 Q1248.0713,284.9375 1248.2119,284.8594 Q1248.3681,284.7813 1248.5713,284.7813 Q1248.8994,284.7813 1249.1494,285.0469 Q1249.415,285.2969 1249.415,285.6406 Q1249.415,285.9844 1249.0713,286.3906 Q1248.5713,286.9688 1247.7744,287.2969 Q1246.6963,287.75 1245.3994,287.75 Q1243.8838,287.75 1242.6806,287.125 Q1241.6963,286.625 1241.0088,285.5625 Q1240.3213,284.4844 1240.3213,283.2031 L1240.3213,282.0469 Q1240.3213,280.7188 1240.9306,279.5781 Q1241.5556,278.4219 1242.6494,277.8125 Q1243.7431,277.1875 1244.9775,277.1875 Q1245.7119,277.1875 1246.3525,277.3594 Q1247.0088,277.5156 1247.5556,277.875 Z " fill="#000000"/><text fill="#000000" font-family="sans-serif" font-size="14" lengthAdjust="spacing" textLength="18" x="1265.29" y="287.7285">Pix</text><line style="stroke:#181818;stroke-width:0.5;" x1="1169.54" x2="1346.54" y1="298" y2="298"/><rect fill="none" height="6" style="stroke:#C82930;stroke-width:1.0;" width="6" x="1176.54" y="309.3047"/><text fill="#000000" font-family="sans-serif" font-size="14" lengthAdjust="spacing" textLength="51" x="1188.54" y="316.5332">id: Long</text><rect fill="none" height="6" style="stroke:#C82930;stroke-width:1.0;" width="6" x="1176.54" y="326.9141"/><text fill="#000000" font-family="sans-serif" font-size="14" lengthAdjust="spacing" textLength="124" x="1188.54" y="334.1426">nomeCliente: String</text><rect fill="none" height="6" style="stroke:#C82930;stroke-width:1.0;" width="6" x="1176.54" y="344.5234"/><text fill="#000000" font-family="sans-serif" font-size="14" lengthAdjust="spacing" textLength="150" x="1188.54" y="351.752">nomeRecebedor: String</text><rect fill="none" height="6" style="stroke:#C82930;stroke-width:1.0;" width="6" x="1176.54" y="362.1328"/><text fill="#000000" font-family="sans-serif" font-size="14" lengthAdjust="spacing" textLength="153" x="1188.54" y="369.3613">chaveRecebedor: String</text><rect fill="none" height="6" style="stroke:#C82930;stroke-width:1.0;" width="6" x="1176.54" y="379.7422"/><text fill="#000000" font-family="sans-serif" font-size="14" lengthAdjust="spacing" textLength="84" x="1188.54" y="386.9707">valor: Double</text><line style="stroke:#181818;stroke-width:0.5;" x1="1169.54" x2="1346.54" y1="394.0469" y2="394.0469"/></g><!--MD5=[519639aa9d22978486c2f078178806cf]
class CartaoDeCredito--><g id="elem_CartaoDeCredito"><rect codeLine="82" fill="#F1F1F1" height="153.6563" id="CartaoDeCredito" rx="2.5" ry="2.5" style="stroke:#181818;stroke-width:0.5;" width="162" x="694.04" y="257"/><ellipse cx="719.39" cy="273" fill="#ADD1B2" rx="11" ry="11" style="stroke:#181818;stroke-width:1.0;"/><path d="M722.1556,268.875 Q722.3119,268.6563 722.4994,268.5469 Q722.6869,268.4375 722.9056,268.4375 Q723.2806,268.4375 723.515,268.7031 Q723.7494,268.9531 723.7494,269.5625 L723.7494,271.0156 Q723.7494,271.625 723.515,271.8906 Q723.2806,272.1563 722.9056,272.1563 Q722.5619,272.1563 722.3588,271.9531 Q722.1556,271.7656 722.0463,271.25 Q721.9994,270.8906 721.8119,270.7031 Q721.4838,270.3281 720.8744,270.1094 Q720.265,269.8906 719.64,269.8906 Q718.8744,269.8906 718.2338,270.2188 Q717.6088,270.5469 717.1088,271.2969 Q716.6244,272.0469 716.6244,273.0781 L716.6244,274.1719 Q716.6244,275.4063 717.515,276.2344 Q718.4056,277.0469 719.9994,277.0469 Q720.9369,277.0469 721.5931,276.7969 Q721.9838,276.6406 722.4056,276.2031 Q722.6713,275.9375 722.8119,275.8594 Q722.9681,275.7813 723.1713,275.7813 Q723.4994,275.7813 723.7494,276.0469 Q724.015,276.2969 724.015,276.6406 Q724.015,276.9844 723.6713,277.3906 Q723.1713,277.9688 722.3744,278.2969 Q721.2963,278.75 719.9994,278.75 Q718.4838,278.75 717.2806,278.125 Q716.2963,277.625 715.6088,276.5625 Q714.9213,275.4844 714.9213,274.2031 L714.9213,273.0469 Q714.9213,271.7188 715.5306,270.5781 Q716.1556,269.4219 717.2494,268.8125 Q718.3431,268.1875 719.5775,268.1875 Q720.3119,268.1875 720.9525,268.3594 Q721.6088,268.5156 722.1556,268.875 Z " fill="#000000"/><text fill="#000000" font-family="sans-serif" font-size="14" lengthAdjust="spacing" textLength="107" x="735.69" y="278.7285">CartaoDeCredito</text><line style="stroke:#181818;stroke-width:0.5;" x1="695.04" x2="855.04" y1="289" y2="289"/><rect fill="none" height="6" style="stroke:#C82930;stroke-width:1.0;" width="6" x="702.04" y="300.3047"/><text fill="#000000" font-family="sans-serif" font-size="14" lengthAdjust="spacing" textLength="51" x="714.04" y="307.5332">id: Long</text><rect fill="none" height="6" style="stroke:#C82930;stroke-width:1.0;" width="6" x="702.04" y="317.9141"/><text fill="#000000" font-family="sans-serif" font-size="14" lengthAdjust="spacing" textLength="136" x="714.04" y="325.1426">numeroCartao: String</text><rect fill="none" height="6" style="stroke:#C82930;stroke-width:1.0;" width="6" x="702.04" y="335.5234"/><text fill="#000000" font-family="sans-serif" font-size="14" lengthAdjust="spacing" textLength="121" x="714.04" y="342.752">mesValidade: Long</text><rect fill="none" height="6" style="stroke:#C82930;stroke-width:1.0;" width="6" x="702.04" y="353.1328"/><text fill="#000000" font-family="sans-serif" font-size="14" lengthAdjust="spacing" textLength="119" x="714.04" y="360.3613">anoValidade: Long</text><rect fill="none" height="6" style="stroke:#C82930;stroke-width:1.0;" width="6" x="702.04" y="370.7422"/><text fill="#000000" font-family="sans-serif" font-size="14" lengthAdjust="spacing" textLength="136" x="714.04" y="377.9707">codSeguranca : Long</text><rect fill="none" height="6" style="stroke:#C82930;stroke-width:1.0;" width="6" x="702.04" y="388.3516"/><text fill="#000000" font-family="sans-serif" font-size="14" lengthAdjust="spacing" textLength="84" x="714.04" y="395.5801">valor: Double</text><line style="stroke:#181818;stroke-width:0.5;" x1="695.04" x2="855.04" y1="402.6563" y2="402.6563"/></g><!--MD5=[62dce695040643920268b1c722f5a660]
class Boleto--><g id="elem_Boleto"><rect codeLine="91" fill="#F1F1F1" height="136.0469" id="Boleto" rx="2.5" ry="2.5" style="stroke:#181818;stroke-width:0.5;" width="242" x="891.04" y="266"/><ellipse cx="987.79" cy="282" fill="#ADD1B2" rx="11" ry="11" style="stroke:#181818;stroke-width:1.0;"/><path d="M990.5556,277.875 Q990.7119,277.6563 990.8994,277.5469 Q991.0869,277.4375 991.3056,277.4375 Q991.6806,277.4375 991.915,277.7031 Q992.1494,277.9531 992.1494,278.5625 L992.1494,280.0156 Q992.1494,280.625 991.915,280.8906 Q991.6806,281.1563 991.3056,281.1563 Q990.9619,281.1563 990.7588,280.9531 Q990.5556,280.7656 990.4463,280.25 Q990.3994,279.8906 990.2119,279.7031 Q989.8838,279.3281 989.2744,279.1094 Q988.665,278.8906 988.04,278.8906 Q987.2744,278.8906 986.6338,279.2188 Q986.0088,279.5469 985.5088,280.2969 Q985.0244,281.0469 985.0244,282.0781 L985.0244,283.1719 Q985.0244,284.4063 985.915,285.2344 Q986.8056,286.0469 988.3994,286.0469 Q989.3369,286.0469 989.9931,285.7969 Q990.3838,285.6406 990.8056,285.2031 Q991.0713,284.9375 991.2119,284.8594 Q991.3681,284.7813 991.5713,284.7813 Q991.8994,284.7813 992.1494,285.0469 Q992.415,285.2969 992.415,285.6406 Q992.415,285.9844 992.0713,286.3906 Q991.5713,286.9688 990.7744,287.2969 Q989.6963,287.75 988.3994,287.75 Q986.8838,287.75 985.6806,287.125 Q984.6963,286.625 984.0088,285.5625 Q983.3213,284.4844 983.3213,283.2031 L983.3213,282.0469 Q983.3213,280.7188 983.9306,279.5781 Q984.5556,278.4219 985.6494,277.8125 Q986.7431,277.1875 987.9775,277.1875 Q988.7119,277.1875 989.3525,277.3594 Q990.0088,277.5156 990.5556,277.875 Z " fill="#000000"/><text fill="#000000" font-family="sans-serif" font-size="14" lengthAdjust="spacing" textLength="40" x="1008.29" y="287.7285">Boleto</text><line style="stroke:#181818;stroke-width:0.5;" x1="892.04" x2="1132.04" y1="298" y2="298"/><rect fill="none" height="6" style="stroke:#C82930;stroke-width:1.0;" width="6" x="899.04" y="309.3047"/><text fill="#000000" font-family="sans-serif" font-size="14" lengthAdjust="spacing" textLength="51" x="911.04" y="316.5332">id: Long</text><rect fill="none" height="6" style="stroke:#C82930;stroke-width:1.0;" width="6" x="899.04" y="326.9141"/><text fill="#000000" font-family="sans-serif" font-size="14" lengthAdjust="spacing" textLength="120" x="911.04" y="334.1426">nomeBanco: String</text><rect fill="none" height="6" style="stroke:#C82930;stroke-width:1.0;" width="6" x="899.04" y="344.5234"/><text fill="#000000" font-family="sans-serif" font-size="14" lengthAdjust="spacing" textLength="216" x="911.04" y="351.752">dataHoraGeracao: LocalDateTime</text><rect fill="none" height="6" style="stroke:#C82930;stroke-width:1.0;" width="6" x="899.04" y="362.1328"/><text fill="#000000" font-family="sans-serif" font-size="14" lengthAdjust="spacing" textLength="198" x="911.04" y="369.3613">dataHoraLimite: LocalDateTime</text><rect fill="none" height="6" style="stroke:#C82930;stroke-width:1.0;" width="6" x="899.04" y="379.7422"/><text fill="#000000" font-family="sans-serif" font-size="14" lengthAdjust="spacing" textLength="84" x="911.04" y="386.9707">valor: Double</text><line style="stroke:#181818;stroke-width:0.5;" x1="892.04" x2="1132.04" y1="394.0469" y2="394.0469"/></g><!--MD5=[dec5c48edfb884ca3667398a47526670]
class FormaDePagamento--><g id="elem_FormaDePagamento"><rect codeLine="99" fill="#F1F1F1" height="83.2188" id="FormaDePagamento" rx="2.5" ry="2.5" style="stroke:#181818;stroke-width:0.5;" width="163" x="984.54" y="542"/><ellipse cx="999.54" cy="558" fill="#ADD1B2" rx="11" ry="11" style="stroke:#181818;stroke-width:1.0;"/><path d="M1002.3056,553.875 Q1002.4619,553.6563 1002.6494,553.5469 Q1002.8369,553.4375 1003.0556,553.4375 Q1003.4306,553.4375 1003.665,553.7031 Q1003.8994,553.9531 1003.8994,554.5625 L1003.8994,556.0156 Q1003.8994,556.625 1003.665,556.8906 Q1003.4306,557.1563 1003.0556,557.1563 Q1002.7119,557.1563 1002.5088,556.9531 Q1002.3056,556.7656 1002.1963,556.25 Q1002.1494,555.8906 1001.9619,555.7031 Q1001.6338,555.3281 1001.0244,555.1094 Q1000.415,554.8906 999.79,554.8906 Q999.0244,554.8906 998.3838,555.2188 Q997.7588,555.5469 997.2588,556.2969 Q996.7744,557.0469 996.7744,558.0781 L996.7744,559.1719 Q996.7744,560.4063 997.665,561.2344 Q998.5556,562.0469 1000.1494,562.0469 Q1001.0869,562.0469 1001.7431,561.7969 Q1002.1338,561.6406 1002.5556,561.2031 Q1002.8213,560.9375 1002.9619,560.8594 Q1003.1181,560.7813 1003.3213,560.7813 Q1003.6494,560.7813 1003.8994,561.0469 Q1004.165,561.2969 1004.165,561.6406 Q1004.165,561.9844 1003.8213,562.3906 Q1003.3213,562.9688 1002.5244,563.2969 Q1001.4463,563.75 1000.1494,563.75 Q998.6338,563.75 997.4306,563.125 Q996.4463,562.625 995.7588,561.5625 Q995.0713,560.4844 995.0713,559.2031 L995.0713,558.0469 Q995.0713,556.7188 995.6806,555.5781 Q996.3056,554.4219 997.3994,553.8125 Q998.4931,553.1875 999.7275,553.1875 Q1000.4619,553.1875 1001.1025,553.3594 Q1001.7588,553.5156 1002.3056,553.875 Z " fill="#000000"/><text fill="#000000" font-family="sans-serif" font-size="14" lengthAdjust="spacing" textLength="131" x="1013.54" y="563.7285">FormaDePagamento</text><line style="stroke:#181818;stroke-width:0.5;" x1="985.54" x2="1146.54" y1="574" y2="574"/><rect fill="none" height="6" style="stroke:#C82930;stroke-width:1.0;" width="6" x="992.54" y="585.3047"/><text fill="#000000" font-family="sans-serif" font-size="14" lengthAdjust="spacing" textLength="55" x="1004.54" y="592.5332">id : Long</text><rect fill="none" height="6" style="stroke:#C82930;stroke-width:1.0;" width="6" x="992.54" y="602.9141"/><text fill="#000000" font-family="sans-serif" font-size="14" lengthAdjust="spacing" textLength="128" x="1004.54" y="610.1426">nomeCliente : String</text><line style="stroke:#181818;stroke-width:0.5;" x1="985.54" x2="1146.54" y1="617.2188" y2="617.2188"/></g><!--MD5=[e3d83ec5fd90ea9f3f2bfe265cb53458]
class Status--><g id="elem_Status"><rect codeLine="104" fill="#F1F1F1" height="136.0469" id="Status" rx="2.5" ry="2.5" style="stroke:#181818;stroke-width:0.5;" width="264" x="254.04" y="809.5"/><ellipse cx="361.79" cy="825.5" fill="#EB937F" rx="11" ry="11" style="stroke:#181818;stroke-width:1.0;"/><path d="M360.6494,826.2969 L360.6494,828.7969 L364.9775,828.7969 L364.9775,827.875 Q364.9775,827.2656 365.2119,827 Q365.4619,826.7344 365.8369,826.7344 Q366.2119,826.7344 366.4462,827 Q366.6806,827.2656 366.6806,827.875 L366.6806,830.5 L358.6806,830.5 Q358.0556,830.5 357.79,830.2656 Q357.54,830.0313 357.54,829.6406 Q357.54,829.2656 357.8056,829.0313 Q358.0712,828.7969 358.6806,828.7969 L358.9462,828.7969 L358.9462,822.1406 L358.6806,822.1406 Q358.0556,822.1406 357.79,821.9063 Q357.54,821.6719 357.54,821.2813 Q357.54,820.9063 357.79,820.6719 Q358.0556,820.4375 358.6806,820.4375 L366.3056,820.4375 L366.3056,823.0313 Q366.3056,823.6406 366.0712,823.9063 Q365.8525,824.1563 365.4619,824.1563 Q365.0869,824.1563 364.8525,823.9063 Q364.6181,823.6406 364.6181,823.0313 L364.6181,822.1406 L360.6494,822.1406 L360.6494,824.5938 L362.1337,824.5938 Q362.1337,823.9375 362.2587,823.75 Q362.5244,823.3438 362.9931,823.3438 Q363.3681,823.3438 363.6025,823.6094 Q363.8369,823.8594 363.8369,824.4688 L363.8369,826.4375 Q363.8369,826.9844 363.7119,827.1719 Q363.4462,827.5625 362.9931,827.5625 Q362.5244,827.5625 362.2587,827.1563 Q362.1337,826.9688 362.1337,826.2969 L360.6494,826.2969 Z " fill="#000000"/><text fill="#000000" font-family="sans-serif" font-size="14" lengthAdjust="spacing" textLength="40" x="382.29" y="831.2285">Status</text><line style="stroke:#181818;stroke-width:0.5;" x1="255.04" x2="517.04" y1="841.5" y2="841.5"/><ellipse cx="265.04" cy="855.8047" fill="none" rx="3" ry="3" style="stroke:#038048;stroke-width:1.0;"/><text fill="#000000" font-family="sans-serif" font-size="14" lengthAdjust="spacing" textLength="203" x="274.04" y="860.0332">Aguardando Pagamento : String</text><ellipse cx="265.04" cy="873.4141" fill="none" rx="3" ry="3" style="stroke:#038048;stroke-width:1.0;"/><text fill="#000000" font-family="sans-serif" font-size="14" lengthAdjust="spacing" textLength="82" x="274.04" y="877.6426">Pago : String</text><ellipse cx="265.04" cy="891.0234" fill="none" rx="3" ry="3" style="stroke:#038048;stroke-width:1.0;"/><text fill="#000000" font-family="sans-serif" font-size="14" lengthAdjust="spacing" textLength="179" x="274.04" y="895.252">Retirado do Estoque : String</text><ellipse cx="265.04" cy="908.6328" fill="none" rx="3" ry="3" style="stroke:#038048;stroke-width:1.0;"/><text fill="#000000" font-family="sans-serif" font-size="14" lengthAdjust="spacing" textLength="238" x="274.04" y="912.8613">Recebido pela transportadora : String</text><ellipse cx="265.04" cy="926.2422" fill="none" rx="3" ry="3" style="stroke:#038048;stroke-width:1.0;"/><text fill="#000000" font-family="sans-serif" font-size="14" lengthAdjust="spacing" textLength="107" x="274.04" y="930.4707">Entregue : String</text><line style="stroke:#181818;stroke-width:0.5;" x1="255.04" x2="517.04" y1="937.5469" y2="937.5469"/></g><!--MD5=[f163b030761c5079e67a75f8b0aff7d2]
class TipoTelefone--><g id="elem_TipoTelefone"><rect codeLine="112" fill="#F1F1F1" height="136.0469" id="TipoTelefone" rx="2.5" ry="2.5" style="stroke:#181818;stroke-width:0.5;" width="244" x="1067.04" y="1077"/><ellipse cx="1142.79" cy="1093" fill="#EB937F" rx="11" ry="11" style="stroke:#181818;stroke-width:1.0;"/><path d="M1141.6494,1093.7969 L1141.6494,1096.2969 L1145.9775,1096.2969 L1145.9775,1095.375 Q1145.9775,1094.7656 1146.2119,1094.5 Q1146.4619,1094.2344 1146.8369,1094.2344 Q1147.2119,1094.2344 1147.4463,1094.5 Q1147.6806,1094.7656 1147.6806,1095.375 L1147.6806,1098 L1139.6806,1098 Q1139.0556,1098 1138.79,1097.7656 Q1138.54,1097.5313 1138.54,1097.1406 Q1138.54,1096.7656 1138.8056,1096.5313 Q1139.0713,1096.2969 1139.6806,1096.2969 L1139.9463,1096.2969 L1139.9463,1089.6406 L1139.6806,1089.6406 Q1139.0556,1089.6406 1138.79,1089.4063 Q1138.54,1089.1719 1138.54,1088.7813 Q1138.54,1088.4063 1138.79,1088.1719 Q1139.0556,1087.9375 1139.6806,1087.9375 L1147.3056,1087.9375 L1147.3056,1090.5313 Q1147.3056,1091.1406 1147.0713,1091.4063 Q1146.8525,1091.6563 1146.4619,1091.6563 Q1146.0869,1091.6563 1145.8525,1091.4063 Q1145.6181,1091.1406 1145.6181,1090.5313 L1145.6181,1089.6406 L1141.6494,1089.6406 L1141.6494,1092.0938 L1143.1338,1092.0938 Q1143.1338,1091.4375 1143.2588,1091.25 Q1143.5244,1090.8438 1143.9931,1090.8438 Q1144.3681,1090.8438 1144.6025,1091.1094 Q1144.8369,1091.3594 1144.8369,1091.9688 L1144.8369,1093.9375 Q1144.8369,1094.4844 1144.7119,1094.6719 Q1144.4463,1095.0625 1143.9931,1095.0625 Q1143.5244,1095.0625 1143.2588,1094.6563 Q1143.1338,1094.4688 1143.1338,1093.7969 L1141.6494,1093.7969 Z " fill="#000000"/><text fill="#000000" font-family="sans-serif" font-size="14" lengthAdjust="spacing" textLength="84" x="1163.29" y="1098.7285">TipoTelefone</text><line style="stroke:#181818;stroke-width:0.5;" x1="1068.04" x2="1310.04" y1="1109" y2="1109"/><ellipse cx="1078.04" cy="1123.3047" fill="none" rx="3" ry="3" style="stroke:#038048;stroke-width:1.0;"/><text fill="#000000" font-family="sans-serif" font-size="14" lengthAdjust="spacing" textLength="152" x="1087.04" y="1127.5332">Fixo Residencial : String</text><ellipse cx="1078.04" cy="1140.9141" fill="none" rx="3" ry="3" style="stroke:#038048;stroke-width:1.0;"/><text fill="#000000" font-family="sans-serif" font-size="14" lengthAdjust="spacing" textLength="142" x="1087.04" y="1145.1426">Fixo Comercial : String</text><ellipse cx="1078.04" cy="1158.5234" fill="none" rx="3" ry="3" style="stroke:#038048;stroke-width:1.0;"/><text fill="#000000" font-family="sans-serif" font-size="14" lengthAdjust="spacing" textLength="158" x="1087.04" y="1162.752">Celular Particular : String</text><ellipse cx="1078.04" cy="1176.1328" fill="none" rx="3" ry="3" style="stroke:#038048;stroke-width:1.0;"/><text fill="#000000" font-family="sans-serif" font-size="14" lengthAdjust="spacing" textLength="161" x="1087.04" y="1180.3613">Celular Comercial : String</text><ellipse cx="1078.04" cy="1193.7422" fill="none" rx="3" ry="3" style="stroke:#038048;stroke-width:1.0;"/><text fill="#000000" font-family="sans-serif" font-size="14" lengthAdjust="spacing" textLength="218" x="1087.04" y="1197.9707">Telefone De Outra Pessoa : String</text><line style="stroke:#181818;stroke-width:0.5;" x1="1068.04" x2="1310.04" y1="1205.0469" y2="1205.0469"/></g><!--MD5=[2e63fdea7e8996b75d60685fedfaf46b]
class StatusDoPedido--><g id="elem_StatusDoPedido"><rect codeLine="120" fill="#F1F1F1" height="83.2188" id="StatusDoPedido" rx="2.5" ry="2.5" style="stroke:#181818;stroke-width:0.5;" width="187" x="292.54" y="542"/><ellipse cx="331.39" cy="558" fill="#ADD1B2" rx="11" ry="11" style="stroke:#181818;stroke-width:1.0;"/><path d="M334.1556,553.875 Q334.3119,553.6563 334.4994,553.5469 Q334.6869,553.4375 334.9056,553.4375 Q335.2806,553.4375 335.515,553.7031 Q335.7494,553.9531 335.7494,554.5625 L335.7494,556.0156 Q335.7494,556.625 335.515,556.8906 Q335.2806,557.1563 334.9056,557.1563 Q334.5619,557.1563 334.3588,556.9531 Q334.1556,556.7656 334.0463,556.25 Q333.9994,555.8906 333.8119,555.7031 Q333.4838,555.3281 332.8744,555.1094 Q332.265,554.8906 331.64,554.8906 Q330.8744,554.8906 330.2338,555.2188 Q329.6088,555.5469 329.1088,556.2969 Q328.6244,557.0469 328.6244,558.0781 L328.6244,559.1719 Q328.6244,560.4063 329.515,561.2344 Q330.4056,562.0469 331.9994,562.0469 Q332.9369,562.0469 333.5931,561.7969 Q333.9838,561.6406 334.4056,561.2031 Q334.6713,560.9375 334.8119,560.8594 Q334.9681,560.7813 335.1713,560.7813 Q335.4994,560.7813 335.7494,561.0469 Q336.015,561.2969 336.015,561.6406 Q336.015,561.9844 335.6713,562.3906 Q335.1713,562.9688 334.3744,563.2969 Q333.2963,563.75 331.9994,563.75 Q330.4838,563.75 329.2806,563.125 Q328.2963,562.625 327.6088,561.5625 Q326.9213,560.4844 326.9213,559.2031 L326.9213,558.0469 Q326.9213,556.7188 327.5306,555.5781 Q328.1556,554.4219 329.2494,553.8125 Q330.3431,553.1875 331.5775,553.1875 Q332.3119,553.1875 332.9525,553.3594 Q333.6088,553.5156 334.1556,553.875 Z " fill="#000000"/><text fill="#000000" font-family="sans-serif" font-size="14" lengthAdjust="spacing" textLength="102" x="350.69" y="563.7285">StatusDoPedido</text><line style="stroke:#181818;stroke-width:0.5;" x1="293.54" x2="478.54" y1="574" y2="574"/><rect fill="none" height="6" style="stroke:#C82930;stroke-width:1.0;" width="6" x="300.54" y="585.3047"/><text fill="#000000" font-family="sans-serif" font-size="14" lengthAdjust="spacing" textLength="55" x="312.54" y="592.5332">id : Long</text><rect fill="none" height="6" style="stroke:#C82930;stroke-width:1.0;" width="6" x="300.54" y="602.9141"/><text fill="#000000" font-family="sans-serif" font-size="14" lengthAdjust="spacing" textLength="161" x="312.54" y="610.1426">dataHora: LocalDateTime</text><line style="stroke:#181818;stroke-width:0.5;" x1="293.54" x2="478.54" y1="617.2188" y2="617.2188"/></g><!--MD5=[cf9f33789cda161594144eefa407441c]
class Logistica--><g id="elem_Logistica"><rect codeLine="125" fill="#F1F1F1" height="118.4375" id="Logistica" rx="2.5" ry="2.5" style="stroke:#181818;stroke-width:0.5;" width="165" x="784.54" y="524.5"/><ellipse cx="834.79" cy="540.5" fill="#ADD1B2" rx="11" ry="11" style="stroke:#181818;stroke-width:1.0;"/><path d="M837.5556,536.375 Q837.7119,536.1563 837.8994,536.0469 Q838.0869,535.9375 838.3056,535.9375 Q838.6806,535.9375 838.915,536.2031 Q839.1494,536.4531 839.1494,537.0625 L839.1494,538.5156 Q839.1494,539.125 838.915,539.3906 Q838.6806,539.6563 838.3056,539.6563 Q837.9619,539.6563 837.7588,539.4531 Q837.5556,539.2656 837.4463,538.75 Q837.3994,538.3906 837.2119,538.2031 Q836.8838,537.8281 836.2744,537.6094 Q835.665,537.3906 835.04,537.3906 Q834.2744,537.3906 833.6338,537.7188 Q833.0088,538.0469 832.5088,538.7969 Q832.0244,539.5469 832.0244,540.5781 L832.0244,541.6719 Q832.0244,542.9063 832.915,543.7344 Q833.8056,544.5469 835.3994,544.5469 Q836.3369,544.5469 836.9931,544.2969 Q837.3838,544.1406 837.8056,543.7031 Q838.0713,543.4375 838.2119,543.3594 Q838.3681,543.2813 838.5713,543.2813 Q838.8994,543.2813 839.1494,543.5469 Q839.415,543.7969 839.415,544.1406 Q839.415,544.4844 839.0713,544.8906 Q838.5713,545.4688 837.7744,545.7969 Q836.6963,546.25 835.3994,546.25 Q833.8838,546.25 832.6806,545.625 Q831.6963,545.125 831.0088,544.0625 Q830.3213,542.9844 830.3213,541.7031 L830.3213,540.5469 Q830.3213,539.2188 830.9306,538.0781 Q831.5556,536.9219 832.6494,536.3125 Q833.7431,535.6875 834.9775,535.6875 Q835.7119,535.6875 836.3525,535.8594 Q837.0088,536.0156 837.5556,536.375 Z " fill="#000000"/><text fill="#000000" font-family="sans-serif" font-size="14" lengthAdjust="spacing" textLength="56" x="855.29" y="546.2285">Logistica</text><line style="stroke:#181818;stroke-width:0.5;" x1="785.54" x2="948.54" y1="556.5" y2="556.5"/><rect fill="none" height="6" style="stroke:#C82930;stroke-width:1.0;" width="6" x="792.54" y="567.8047"/><text fill="#000000" font-family="sans-serif" font-size="14" lengthAdjust="spacing" textLength="55" x="804.54" y="575.0332">id : Long</text><rect fill="none" height="6" style="stroke:#C82930;stroke-width:1.0;" width="6" x="792.54" y="585.4141"/><text fill="#000000" font-family="sans-serif" font-size="14" lengthAdjust="spacing" textLength="139" x="804.54" y="592.6426">nomeFantasia : String</text><rect fill="none" height="6" style="stroke:#C82930;stroke-width:1.0;" width="6" x="792.54" y="603.0234"/><text fill="#000000" font-family="sans-serif" font-size="14" lengthAdjust="spacing" textLength="137" x="804.54" y="610.252">nomeRegistro : String</text><rect fill="none" height="6" style="stroke:#C82930;stroke-width:1.0;" width="6" x="792.54" y="620.6328"/><text fill="#000000" font-family="sans-serif" font-size="14" lengthAdjust="spacing" textLength="97" x="804.54" y="627.8613">endSite : String</text><line style="stroke:#181818;stroke-width:0.5;" x1="785.54" x2="948.54" y1="634.9375" y2="634.9375"/></g><!--MD5=[1bca349f942a9114993652444a9c5fbf]
class Fornecedor--><g id="elem_Fornecedor"><rect codeLine="132" fill="#F1F1F1" height="118.4375" id="Fornecedor" rx="2.5" ry="2.5" style="stroke:#181818;stroke-width:0.5;" width="165" x="1182.54" y="524.5"/><ellipse cx="1224.09" cy="540.5" fill="#ADD1B2" rx="11" ry="11" style="stroke:#181818;stroke-width:1.0;"/><path d="M1226.8556,536.375 Q1227.0119,536.1563 1227.1994,536.0469 Q1227.3869,535.9375 1227.6056,535.9375 Q1227.9806,535.9375 1228.215,536.2031 Q1228.4494,536.4531 1228.4494,537.0625 L1228.4494,538.5156 Q1228.4494,539.125 1228.215,539.3906 Q1227.9806,539.6563 1227.6056,539.6563 Q1227.2619,539.6563 1227.0588,539.4531 Q1226.8556,539.2656 1226.7463,538.75 Q1226.6994,538.3906 1226.5119,538.2031 Q1226.1838,537.8281 1225.5744,537.6094 Q1224.965,537.3906 1224.34,537.3906 Q1223.5744,537.3906 1222.9338,537.7188 Q1222.3088,538.0469 1221.8088,538.7969 Q1221.3244,539.5469 1221.3244,540.5781 L1221.3244,541.6719 Q1221.3244,542.9063 1222.215,543.7344 Q1223.1056,544.5469 1224.6994,544.5469 Q1225.6369,544.5469 1226.2931,544.2969 Q1226.6838,544.1406 1227.1056,543.7031 Q1227.3713,543.4375 1227.5119,543.3594 Q1227.6681,543.2813 1227.8713,543.2813 Q1228.1994,543.2813 1228.4494,543.5469 Q1228.715,543.7969 1228.715,544.1406 Q1228.715,544.4844 1228.3713,544.8906 Q1227.8713,545.4688 1227.0744,545.7969 Q1225.9963,546.25 1224.6994,546.25 Q1223.1838,546.25 1221.9806,545.625 Q1220.9963,545.125 1220.3088,544.0625 Q1219.6213,542.9844 1219.6213,541.7031 L1219.6213,540.5469 Q1219.6213,539.2188 1220.2306,538.0781 Q1220.8556,536.9219 1221.9494,536.3125 Q1223.0431,535.6875 1224.2775,535.6875 Q1225.0119,535.6875 1225.6525,535.8594 Q1226.3088,536.0156 1226.8556,536.375 Z " fill="#000000"/><text fill="#000000" font-family="sans-serif" font-size="14" lengthAdjust="spacing" textLength="74" x="1243.99" y="546.2285">Fornecedor</text><line style="stroke:#181818;stroke-width:0.5;" x1="1183.54" x2="1346.54" y1="556.5" y2="556.5"/><rect fill="none" height="6" style="stroke:#C82930;stroke-width:1.0;" width="6" x="1190.54" y="567.8047"/><text fill="#000000" font-family="sans-serif" font-size="14" lengthAdjust="spacing" textLength="55" x="1202.54" y="575.0332">id : Long</text><rect fill="none" height="6" style="stroke:#C82930;stroke-width:1.0;" width="6" x="1190.54" y="585.4141"/><text fill="#000000" font-family="sans-serif" font-size="14" lengthAdjust="spacing" textLength="139" x="1202.54" y="592.6426">nomeFantasia : String</text><rect fill="none" height="6" style="stroke:#C82930;stroke-width:1.0;" width="6" x="1190.54" y="603.0234"/><text fill="#000000" font-family="sans-serif" font-size="14" lengthAdjust="spacing" textLength="137" x="1202.54" y="610.252">nomeRegistro : String</text><rect fill="none" height="6" style="stroke:#C82930;stroke-width:1.0;" width="6" x="1190.54" y="620.6328"/><text fill="#000000" font-family="sans-serif" font-size="14" lengthAdjust="spacing" textLength="97" x="1202.54" y="627.8613">endSite : String</text><line style="stroke:#181818;stroke-width:0.5;" x1="1183.54" x2="1346.54" y1="634.9375" y2="634.9375"/></g><!--MD5=[716bba0e94eea125d5a66a891f2c3c34]
class Classificacao--><g id="elem_Classificacao"><rect codeLine="139" fill="#F1F1F1" height="83.2188" id="Classificacao" rx="2.5" ry="2.5" style="stroke:#181818;stroke-width:0.5;" width="115" x="59.54" y="1103.5"/><ellipse cx="74.54" cy="1119.5" fill="#ADD1B2" rx="11" ry="11" style="stroke:#181818;stroke-width:1.0;"/><path d="M77.3056,1115.375 Q77.4619,1115.1563 77.6494,1115.0469 Q77.8369,1114.9375 78.0556,1114.9375 Q78.4306,1114.9375 78.665,1115.2031 Q78.8994,1115.4531 78.8994,1116.0625 L78.8994,1117.5156 Q78.8994,1118.125 78.665,1118.3906 Q78.4306,1118.6563 78.0556,1118.6563 Q77.7119,1118.6563 77.5087,1118.4531 Q77.3056,1118.2656 77.1962,1117.75 Q77.1494,1117.3906 76.9619,1117.2031 Q76.6337,1116.8281 76.0244,1116.6094 Q75.415,1116.3906 74.79,1116.3906 Q74.0244,1116.3906 73.3837,1116.7188 Q72.7587,1117.0469 72.2587,1117.7969 Q71.7744,1118.5469 71.7744,1119.5781 L71.7744,1120.6719 Q71.7744,1121.9063 72.665,1122.7344 Q73.5556,1123.5469 75.1494,1123.5469 Q76.0869,1123.5469 76.7431,1123.2969 Q77.1337,1123.1406 77.5556,1122.7031 Q77.8212,1122.4375 77.9619,1122.3594 Q78.1181,1122.2813 78.3212,1122.2813 Q78.6494,1122.2813 78.8994,1122.5469 Q79.165,1122.7969 79.165,1123.1406 Q79.165,1123.4844 78.8212,1123.8906 Q78.3212,1124.4688 77.5244,1124.7969 Q76.4462,1125.25 75.1494,1125.25 Q73.6337,1125.25 72.4306,1124.625 Q71.4462,1124.125 70.7587,1123.0625 Q70.0712,1121.9844 70.0712,1120.7031 L70.0712,1119.5469 Q70.0712,1118.2188 70.6806,1117.0781 Q71.3056,1115.9219 72.3994,1115.3125 Q73.4931,1114.6875 74.7275,1114.6875 Q75.4619,1114.6875 76.1025,1114.8594 Q76.7587,1115.0156 77.3056,1115.375 Z " fill="#000000"/><text fill="#000000" font-family="sans-serif" font-size="14" lengthAdjust="spacing" textLength="83" x="88.54" y="1125.2285">Classificacao</text><line style="stroke:#181818;stroke-width:0.5;" x1="60.54" x2="173.54" y1="1135.5" y2="1135.5"/><rect fill="none" height="6" style="stroke:#C82930;stroke-width:1.0;" width="6" x="67.54" y="1146.8047"/><text fill="#000000" font-family="sans-serif" font-size="14" lengthAdjust="spacing" textLength="55" x="79.54" y="1154.0332">id : Long</text><rect fill="none" height="6" style="stroke:#C82930;stroke-width:1.0;" width="6" x="67.54" y="1164.4141"/><text fill="#000000" font-family="sans-serif" font-size="14" lengthAdjust="spacing" textLength="84" x="79.54" y="1171.6426">nome : String</text><line style="stroke:#181818;stroke-width:0.5;" x1="60.54" x2="173.54" y1="1178.7188" y2="1178.7188"/></g><!--MD5=[43a7c1a046aa41d1c9842e3954366be4]
link Cliente to Endereco--><g id="link_Cliente_Endereco"><path codeLine="144" d="M321.1245,206.6811 C321.1245,206.6811 167.5,542.42 275.04,678 C349.07,771.33 432.53,680.05 536.04,739 C551.66,747.89 566.59,759.21 580.43,771.51 " fill="none" id="Cliente-Endereco" style="stroke:#181818;stroke-width:1.0;"/><polygon fill="#181818" points="590.3,780.62,586.396,771.578,586.6245,777.2302,580.9723,777.4587,590.3,780.62" style="stroke:#181818;stroke-width:1.0;"/><line style="stroke:#181818;stroke-width:1.0;" x1="586.6245" x2="580.755" y1="777.2302" y2="771.805"/><polygon fill="#181818" points="326.95,196.19,320.5402,199.4937,321.1245,206.6811,327.5343,203.3774,326.95,196.19" style="stroke:#181818;stroke-width:1.0;"/><text fill="#000000" font-family="sans-serif" font-size="13" lengthAdjust="spacing" textLength="7" x="315.3535" y="217.2439">1</text><text fill="#000000" font-family="sans-serif" font-size="13" lengthAdjust="spacing" textLength="5" x="577.6521" y="768.131">*</text></g><!--MD5=[0eee670c931bdcb457362ad9482be0da]
link Cliente to Telefone--><g id="link_Cliente_Telefone"><path codeLine="145" d="M497.789,102.7782 C497.789,102.7782 1254.7,127.88 1365.04,257 C1486.6,399.25 1431.43,503.06 1365.04,678 C1343.65,734.37 1298.12,784.99 1258.72,821.01 " fill="none" id="Cliente-Telefone" style="stroke:#181818;stroke-width:1.0;"/><polygon fill="#181818" points="1248.86,829.84,1258.2334,826.817,1252.5852,826.5049,1252.8973,820.8567,1248.86,829.84" style="stroke:#181818;stroke-width:1.0;"/><line style="stroke:#181818;stroke-width:1.0;" x1="1252.5852" x2="1258.545" y1="826.5049" y2="821.17"/><polygon fill="#181818" points="485.79,102.62,491.7367,106.6988,497.789,102.7782,491.8422,98.6995,485.79,102.62" style="stroke:#181818;stroke-width:1.0;"/><text fill="#000000" font-family="sans-serif" font-size="13" lengthAdjust="spacing" textLength="7" x="493.6951" y="99.6066">1</text><text fill="#000000" font-family="sans-serif" font-size="13" lengthAdjust="spacing" textLength="5" x="1256.4553" y="820.5835">*</text></g><!--MD5=[2e02b9c779ffd8644f3abfac3c5837c2]
link Funcionario to Endereco--><g id="link_Funcionario_Endereco"><path codeLine="146" d="M668.04,690.1 C668.04,690.1 668.04,731.89 668.04,752.13 " fill="none" id="Funcionario-Endereco" style="stroke:#181818;stroke-width:1.0;"/><polygon fill="#181818" points="668.04,765.34,672.04,756.34,668.04,760.34,664.04,756.34,668.04,765.34" style="stroke:#181818;stroke-width:1.0;"/><line style="stroke:#181818;stroke-width:1.0;" x1="668.04" x2="668.04" y1="760.34" y2="752.34"/><polygon fill="#181818" points="668.04,678.1,664.04,684.1,668.04,690.1,672.04,684.1,668.04,678.1" style="stroke:#181818;stroke-width:1.0;"/><text fill="#000000" font-family="sans-serif" font-size="13" lengthAdjust="spacing" textLength="7" x="660.772" y="699.4687">1</text><text fill="#000000" font-family="sans-serif" font-size="13" lengthAdjust="spacing" textLength="7" x="660.8048" y="754.7705">1</text></g><!--MD5=[b0a86644d144d699e14fe65f35a37764]
link Funcionario to Telefone--><g id="link_Funcionario_Telefone"><path codeLine="147" d="M759.1403,672.3626 C759.1403,672.3626 764.75,676.44 767.04,678 C880.87,755.58 1029.78,817.71 1116.88,850.67 " fill="none" id="Funcionario-Telefone" style="stroke:#181818;stroke-width:1.0;"/><polygon fill="#181818" points="1129.27,855.32,1122.244,848.4182,1124.5875,853.5668,1119.4388,855.9103,1129.27,855.32" style="stroke:#181818;stroke-width:1.0;"/><line style="stroke:#181818;stroke-width:1.0;" x1="1124.5875" x2="1117.095" y1="853.5668" y2="850.75"/><polygon fill="#181818" points="749.58,665.11,751.9426,671.9231,759.1403,672.3626,756.7777,665.5496,749.58,665.11" style="stroke:#181818;stroke-width:1.0;"/><text fill="#000000" font-family="sans-serif" font-size="13" lengthAdjust="spacing" textLength="7" x="757.4196" y="669.413">1</text><text fill="#000000" font-family="sans-serif" font-size="13" lengthAdjust="spacing" textLength="7" x="1114.559" y="849.1688">1</text></g><!--MD5=[fa4150dfb20d23696d4e07f0bb87481e]
link Pedido to Endereco--><g id="link_Pedido_Endereco"><path codeLine="148" d="M502.9707,387.3889 C502.9707,387.3889 534.3,578.59 569.04,678 C577.78,702.99 588.96,728.88 600.65,753.37 " fill="none" id="Pedido-Endereco" style="stroke:#181818;stroke-width:1.0;"/><polygon fill="#181818" points="606.41,765.28,606.0934,755.4362,604.2335,760.7786,598.8911,758.9187,606.41,765.28" style="stroke:#181818;stroke-width:1.0;"/><line style="stroke:#181818;stroke-width:1.0;" x1="604.2335" x2="600.745" y1="760.7786" y2="753.58"/><polygon fill="#181818" points="501.27,375.51,498.1608,382.0163,502.9707,387.3889,506.08,380.8825,501.27,375.51" style="stroke:#181818;stroke-width:1.0;"/><text fill="#000000" font-family="sans-serif" font-size="13" lengthAdjust="spacing" textLength="7" x="494.5565" y="397.2162">1</text><text fill="#000000" font-family="sans-serif" font-size="13" lengthAdjust="spacing" textLength="7" x="595.0341" y="754.7065">1</text></g><!--MD5=[96f11265b4dc7e9444360e8abe2d8977]
link Pedido to ItemDaVenda--><g id="link_Pedido_ItemDaVenda"><path codeLine="149" d="M423.835,382.1549 C423.835,382.1549 257.52,490.76 190.53,534.51 " fill="none" id="Pedido-ItemDaVenda" style="stroke:#181818;stroke-width:1.0;"/><polygon fill="#181818" points="179.24,541.89,188.9621,540.3147,183.4254,539.1546,184.5855,533.618,179.24,541.89" style="stroke:#181818;stroke-width:1.0;"/><line style="stroke:#181818;stroke-width:1.0;" x1="183.4254" x2="190.12" y1="539.1546" y2="534.78"/><polygon fill="#181818" points="433.88,375.59,426.6692,375.5241,423.835,382.1549,431.0458,382.2208,433.88,375.59" style="stroke:#181818;stroke-width:1.0;"/><text fill="#000000" font-family="sans-serif" font-size="13" lengthAdjust="spacing" textLength="7" x="416.0051" y="397.3095">1</text><text fill="#000000" font-family="sans-serif" font-size="13" lengthAdjust="spacing" textLength="5" x="184.1278" y="531.1795">*</text></g><!--MD5=[7b21975196ed2737ee780839d12b9bdd]
link ItemDaVenda to Produto--><g id="link_ItemDaVenda_Produto"><path codeLine="150" d="M117.04,637.1 C117.04,637.1 117.04,694.27 117.04,725.53 " fill="none" id="ItemDaVenda-Produto" style="stroke:#181818;stroke-width:1.0;"/><polygon fill="#181818" points="117.04,738.92,121.04,729.92,117.04,733.92,113.04,729.92,117.04,738.92" style="stroke:#181818;stroke-width:1.0;"/><line style="stroke:#181818;stroke-width:1.0;" x1="117.04" x2="117.04" y1="733.92" y2="725.92"/><polygon fill="none" points="117.04,625.1,113.04,631.1,117.04,637.1,121.04,631.1,117.04,625.1" style="stroke:#181818;stroke-width:1.0;"/><text fill="#000000" font-family="sans-serif" font-size="13" lengthAdjust="spacing" textLength="7" x="109.4603" y="646.8211">1</text><text fill="#000000" font-family="sans-serif" font-size="13" lengthAdjust="spacing" textLength="7" x="109.8377" y="727.9534">1</text></g><!--MD5=[cfc280b314fef7d61c6224c39a811578]
link Cliente to Produto--><g id="link_Cliente_Produto"><path codeLine="151" d="M286.16,164.94 C260.91,183.03 234.8,203.92 213.04,226 C113.27,327.25 73.41,353.31 31.04,489 C6,569.18 13.99,595.75 31.04,678 C34.91,696.65 40.62,715.69 47.29,734.25 " fill="none" id="Cliente-to-Produto" style="stroke:#181818;stroke-width:1.0;"/><polygon fill="#181818" points="49,738.96,49.6739,729.1342,47.2867,734.2627,42.1582,731.8755,49,738.96" style="stroke:#181818;stroke-width:1.0;"/><text fill="#000000" font-family="sans-serif" font-size="13" lengthAdjust="spacing" textLength="75" x="48.04" y="455.4951">ListaDesejos</text><text fill="#000000" font-family="sans-serif" font-size="13" lengthAdjust="spacing" textLength="5" x="273.6415" y="166.524">*</text><text fill="#000000" font-family="sans-serif" font-size="13" lengthAdjust="spacing" textLength="5" x="39.9219" y="727.9957">*</text></g><!--MD5=[60b024f7c78289d0274b49226ba5b3ef]
link Pix to FormaDePagamento--><g id="link_Pix_FormaDePagamento"><path codeLine="152" d="M1205.83,402.3 C1175.79,441.03 1138.46,489.15 1109.94,525.92 " fill="none" id="Pix-to-FormaDePagamento" style="stroke:#181818;stroke-width:1.0;"/><polygon fill="none" points="1115.3,530.43,1097.51,541.94,1104.24,521.84,1115.3,530.43" style="stroke:#181818;stroke-width:1.0;"/></g><!--MD5=[af2c7fa3c3d88b4673b4d73970692df4]
link CartaoDeCredito to FormaDePagamento--><g id="link_CartaoDeCredito_FormaDePagamento"><path codeLine="153" d="M856.1,397.64 C890.79,425.06 931.43,457.99 967.04,489 C981.03,501.18 995.75,514.68 1009.43,527.54 " fill="none" id="CartaoDeCredito-to-FormaDePagamento" style="stroke:#181818;stroke-width:1.0;"/><polygon fill="none" points="1014.65,522.85,1024.34,541.69,1005.02,533.01,1014.65,522.85" style="stroke:#181818;stroke-width:1.0;"/></g><!--MD5=[39e7a58e29f4327994f6c5ffe331c89c]
link Boleto to FormaDePagamento--><g id="link_Boleto_FormaDePagamento"><path codeLine="154" d="M1026.73,402.3 C1034.89,439.72 1044.97,485.91 1052.88,522.15 " fill="none" id="Boleto-to-FormaDePagamento" style="stroke:#181818;stroke-width:1.0;"/><polygon fill="none" points="1059.77,520.91,1057.19,541.94,1046.09,523.89,1059.77,520.91" style="stroke:#181818;stroke-width:1.0;"/></g><!--MD5=[0a56df7a48cfd95b11daa2b7387fc806]
link Pedido to StatusDoPedido--><g id="link_Pedido_StatusDoPedido"><path codeLine="155" d="M473.1239,386.5547 C473.1239,386.5547 428,488.1 409.38,529.99 " fill="none" id="Pedido-StatusDoPedido" style="stroke:#181818;stroke-width:1.0;"/><polygon fill="#181818" points="404.09,541.89,411.3983,535.2878,406.1192,537.3203,404.0867,532.0411,404.09,541.89" style="stroke:#181818;stroke-width:1.0;"/><line style="stroke:#181818;stroke-width:1.0;" x1="406.1192" x2="409.375" y1="537.3203" y2="530.005"/><polygon fill="#181818" points="478,375.59,471.9071,379.447,473.1239,386.5547,479.2168,382.6977,478,375.59" style="stroke:#181818;stroke-width:1.0;"/><text fill="#000000" font-family="sans-serif" font-size="13" lengthAdjust="spacing" textLength="7" x="467.4324" y="397.3095">1</text><text fill="#000000" font-family="sans-serif" font-size="13" lengthAdjust="spacing" textLength="5" x="401.6655" y="531.1795">*</text></g><!--MD5=[37734383bd686b6cf59ee548d1e1047c]
link StatusDoPedido to Status--><g id="link_StatusDoPedido_Status"><path codeLine="156" d="M386.04,637.1 C386.04,637.1 386.04,745.96 386.04,796.2 " fill="none" id="StatusDoPedido-Status" style="stroke:#181818;stroke-width:1.0;"/><polygon fill="#181818" points="386.04,809.33,390.04,800.33,386.04,804.33,382.04,800.33,386.04,809.33" style="stroke:#181818;stroke-width:1.0;"/><line style="stroke:#181818;stroke-width:1.0;" x1="386.04" x2="386.04" y1="804.33" y2="796.33"/><polygon fill="none" points="386.04,625.1,382.04,631.1,386.04,637.1,390.04,631.1,386.04,625.1" style="stroke:#181818;stroke-width:1.0;"/><text fill="#000000" font-family="sans-serif" font-size="13" lengthAdjust="spacing" textLength="5" x="380.6259" y="646.8211">*</text><text fill="#000000" font-family="sans-serif" font-size="13" lengthAdjust="spacing" textLength="7" x="378.6572" y="798.5107">1</text></g><!--MD5=[b41e02207a4491454b9f208e6271e55c]
link Telefone to TipoTelefone--><g id="link_Telefone_TipoTelefone"><path codeLine="157" d="M1189.04,940.13 C1189.04,940.13 1189.04,1024.3 1189.04,1063.57 " fill="none" id="Telefone-TipoTelefone" style="stroke:#181818;stroke-width:1.0;"/><polygon fill="#181818" points="1189.04,1076.59,1193.04,1067.59,1189.04,1071.59,1185.04,1067.59,1189.04,1076.59" style="stroke:#181818;stroke-width:1.0;"/><line style="stroke:#181818;stroke-width:1.0;" x1="1189.04" x2="1189.04" y1="1071.59" y2="1063.59"/><polygon fill="none" points="1189.04,928.13,1185.04,934.13,1189.04,940.13,1193.04,934.13,1189.04,928.13" style="stroke:#181818;stroke-width:1.0;"/><text fill="#000000" font-family="sans-serif" font-size="13" lengthAdjust="spacing" textLength="7" x="1181.5916" y="949.1706">1</text><text fill="#000000" font-family="sans-serif" font-size="13" lengthAdjust="spacing" textLength="7" x="1181.6791" y="1066.221">1</text></g><!--MD5=[08a05f3c74b68a2d87dca00480f291ac]
link Cliente to Pedido--><g id="link_Cliente_Pedido"><path codeLine="158" d="M435.9505,207.079 C435.9505,207.079 460.77,259.09 471.06,280.65 " fill="none" id="Cliente-Pedido" style="stroke:#181818;stroke-width:1.0;"/><polygon fill="#181818" points="476.71,292.49,476.4465,282.6447,474.5578,287.9769,469.2255,286.0882,476.71,292.49" style="stroke:#181818;stroke-width:1.0;"/><line style="stroke:#181818;stroke-width:1.0;" x1="474.5578" x2="471.11" y1="287.9769" y2="280.75"/><polygon fill="none" points="430.78,196.25,429.7556,203.388,435.9505,207.079,436.9749,199.941,430.78,196.25" style="stroke:#181818;stroke-width:1.0;"/><text fill="#000000" font-family="sans-serif" font-size="13" lengthAdjust="spacing" textLength="7" x="426.8086" y="217.3083">1</text><text fill="#000000" font-family="sans-serif" font-size="13" lengthAdjust="spacing" textLength="5" x="468.0944" y="281.796">*</text></g><!--MD5=[347aa595ba08237deb754d2f6e3fc66e]
link Produto to Classificacao--><g id="link_Produto_Classificacao"><path codeLine="159" d="M117.04,1028.3 C117.04,1028.3 117.04,1072.1 117.04,1090.12 " fill="none" id="Produto-Classificacao" style="stroke:#181818;stroke-width:1.0;"/><polygon fill="#181818" points="117.04,1103.27,121.04,1094.27,117.04,1098.27,113.04,1094.27,117.04,1103.27" style="stroke:#181818;stroke-width:1.0;"/><line style="stroke:#181818;stroke-width:1.0;" x1="117.04" x2="117.04" y1="1098.27" y2="1090.27"/><polygon fill="none" points="117.04,1016.3,113.04,1022.3,117.04,1028.3,121.04,1022.3,117.04,1016.3" style="stroke:#181818;stroke-width:1.0;"/><text fill="#000000" font-family="sans-serif" font-size="13" lengthAdjust="spacing" textLength="5" x="111.9111" y="1037.3756">*</text><text fill="#000000" font-family="sans-serif" font-size="13" lengthAdjust="spacing" textLength="7" x="109.4603" y="1092.5396">1</text></g><!--MD5=[a99c41469a14a70edfdad7f0a228fad9]
link Pedido to FormaDePagamento--><g id="link_Pedido_FormaDePagamento"><path codeLine="160" d="M596.8709,380.1537 C596.8709,380.1537 651.02,402.08 677.04,411 C803.3,454.27 850.54,423.87 967.04,489 C987.04,500.18 1006.08,516.29 1022.02,532 " fill="none" id="Pedido-FormaDePagamento" style="stroke:#181818;stroke-width:1.0;"/><polygon fill="#181818" points="1031.53,541.68,1028.0732,532.4577,1028.0248,538.1144,1022.3682,538.066,1031.53,541.68" style="stroke:#181818;stroke-width:1.0;"/><line style="stroke:#181818;stroke-width:1.0;" x1="1028.0248" x2="1022.425" y1="538.1144" y2="532.4"/><polygon fill="#181818" points="585.81,375.5,589.7892,381.5138,596.8709,380.1537,592.8917,374.1399,585.81,375.5" style="stroke:#181818;stroke-width:1.0;"/><text fill="#000000" font-family="sans-serif" font-size="13" lengthAdjust="spacing" textLength="7" x="593.0985" y="397.2046">1</text><text fill="#000000" font-family="sans-serif" font-size="13" lengthAdjust="spacing" textLength="7" x="1018.4722" y="531.2456">1</text></g><!--MD5=[19f7711bfd524d1c7474506702452adf]
link Pedido to Logistica--><g id="link_Pedido_Logistica"><path codeLine="161" d="M557.0894,382.7871 C557.0894,382.7871 635.88,438.03 678.04,459 C715.42,477.59 731.21,467.59 767.04,489 C779.59,496.49 791.88,505.78 803.31,515.57 " fill="none" id="Pedido-Logistica" style="stroke:#181818;stroke-width:1.0;"/><polygon fill="#181818" points="813.12,524.27,809.041,515.3055,809.3793,520.9523,803.7326,521.2906,813.12,524.27" style="stroke:#181818;stroke-width:1.0;"/><line style="stroke:#181818;stroke-width:1.0;" x1="809.3793" x2="803.39" y1="520.9523" y2="515.645"/><polygon fill="none" points="547.45,375.64,549.8873,382.4267,557.0894,382.7871,554.6521,376.0004,547.45,375.64" style="stroke:#181818;stroke-width:1.0;"/><text fill="#000000" font-family="sans-serif" font-size="13" lengthAdjust="spacing" textLength="7" x="548.3851" y="397.3677">1</text><text fill="#000000" font-family="sans-serif" font-size="13" lengthAdjust="spacing" textLength="7" x="799.1219" y="513.5662">1</text></g><!--MD5=[99680fb880723d863f8b0e9561d6ce5d]
link Produto to Lote--><g id="link_Produto_Lote"><path codeLine="162" d="M209.1439,994.4272 C209.1439,994.4272 227.09,1009.8 236.04,1016 C324.33,1077.1 445.32,1112.99 518.63,1130.54 " fill="none" id="Produto-Lote" style="stroke:#181818;stroke-width:1.0;"/><polygon fill="#181818" points="531.3,1133.5,523.446,1127.5573,526.4311,1132.3625,521.626,1135.3475,531.3,1133.5" style="stroke:#181818;stroke-width:1.0;"/><line style="stroke:#181818;stroke-width:1.0;" x1="526.4311" x2="518.645" y1="1132.3625" y2="1130.54"/><polygon fill="#181818" points="200.38,986.23,202.0295,993.2499,209.1439,994.4272,207.4943,987.4073,200.38,986.23" style="stroke:#181818;stroke-width:1.0;"/><text fill="#000000" font-family="sans-serif" font-size="13" lengthAdjust="spacing" textLength="5" x="208.0251" y="992.7155">*</text><text fill="#000000" font-family="sans-serif" font-size="13" lengthAdjust="spacing" textLength="7" x="516.5319" y="1128.2623">1</text></g><!--MD5=[cc6035429eb9023df2841d4e92140147]
link Fornecedor to Lote--><g id="link_Fornecedor_Lote"><path codeLine="163" d="M1203.9,642.62 C1191.17,654.45 1177.76,666.72 1165.04,678 C990.4,832.88 947.64,873.13 763.04,1016 C722.39,1047.46 674.96,1081.07 638.99,1105.95 " fill="none" id="Fornecedor-to-Lote" style="stroke:#181818;stroke-width:1.0;"/><polygon fill="#181818" points="634.66,1108.94,644.3382,1107.1146,638.7735,1106.0977,639.7905,1100.533,634.66,1108.94" style="stroke:#181818;stroke-width:1.0;"/><text fill="#000000" font-family="sans-serif" font-size="13" lengthAdjust="spacing" textLength="7" x="1189.022" y="664.2901">1</text><text fill="#000000" font-family="sans-serif" font-size="13" lengthAdjust="spacing" textLength="5" x="642.6089" y="1099.9736">*</text></g><!--MD5=[6b2d4a4bc8b352453d2309a51214d053]
link Logistica to Endereco--><g id="link_Logistica_Endereco"><path codeLine="164" d="M815.8377,652.3304 C815.8377,652.3304 788.35,690.1 776.04,708 C765.9,722.74 755.47,738.37 745.28,753.94 " fill="none" id="Logistica-Endereco" style="stroke:#181818;stroke-width:1.0;"/><polygon fill="#181818" points="737.9,765.25,746.1671,759.8969,740.6315,761.0621,739.4664,755.5265,737.9,765.25" style="stroke:#181818;stroke-width:1.0;"/><line style="stroke:#181818;stroke-width:1.0;" x1="740.6315" x2="745" y1="761.0621" y2="754.355"/><polygon fill="#181818" points="822.97,642.68,816.187,645.1278,815.8377,652.3304,822.6206,649.8826,822.97,642.68" style="stroke:#181818;stroke-width:1.0;"/><text fill="#000000" font-family="sans-serif" font-size="13" lengthAdjust="spacing" textLength="7" x="810.1724" y="664.3574">1</text><text fill="#000000" font-family="sans-serif" font-size="13" lengthAdjust="spacing" textLength="7" x="735.3586" y="754.6745">1</text></g><!--MD5=[2568b9613cee427ef88907afb1579c46]
link Logistica to Telefone--><g id="link_Logistica_Telefone"><path codeLine="165" d="M937.5032,650.7465 C937.5032,650.7465 957.7,669.46 967.04,678 C1019.01,725.52 1078.52,778.66 1122.84,817.99 " fill="none" id="Logistica-Telefone" style="stroke:#181818;stroke-width:1.0;"/><polygon fill="#181818" points="1132.62,826.67,1128.5336,817.7089,1128.8766,823.3554,1123.2301,823.6984,1132.62,826.67" style="stroke:#181818;stroke-width:1.0;"/><line style="stroke:#181818;stroke-width:1.0;" x1="1128.8766" x2="1122.895" y1="823.3554" y2="818.045"/><polygon fill="#181818" points="928.72,642.57,930.3861,649.586,937.5032,650.7465,935.8371,643.7305,928.72,642.57" style="stroke:#181818;stroke-width:1.0;"/><text fill="#000000" font-family="sans-serif" font-size="13" lengthAdjust="spacing" textLength="7" x="928.8107" y="664.234">1</text><text fill="#000000" font-family="sans-serif" font-size="13" lengthAdjust="spacing" textLength="7" x="1117.5682" y="816.295">1</text></g><!--MD5=[efdb86c0701f1f37ca0472dfe8f9a1b2]
link Fornecedor to Endereco--><g id="link_Fornecedor_Endereco"><path codeLine="166" d="M1206.0324,650.6325 C1206.0324,650.6325 1179.25,671.33 1165.04,678 C1068.93,723.11 1027.76,671.55 928.04,708 C866.28,730.58 804.21,770.02 756.22,805.07 " fill="none" id="Fornecedor-Endereco" style="stroke:#181818;stroke-width:1.0;"/><polygon fill="#181818" points="745.57,812.94,755.1852,810.8076,749.591,809.9682,750.4304,804.374,745.57,812.94" style="stroke:#181818;stroke-width:1.0;"/><line style="stroke:#181818;stroke-width:1.0;" x1="749.591" x2="756.025" y1="809.9682" y2="805.21"/><polygon fill="#181818" points="1215.01,642.67,1207.867,643.6587,1206.0324,650.6325,1213.1754,649.6438,1215.01,642.67" style="stroke:#181818;stroke-width:1.0;"/><text fill="#000000" font-family="sans-serif" font-size="13" lengthAdjust="spacing" textLength="7" x="1201.486" y="664.3462">1</text><text fill="#000000" font-family="sans-serif" font-size="13" lengthAdjust="spacing" textLength="7" x="753.5464" y="803.3052">1</text></g><!--MD5=[d88692d6d486189d58e7853ead2e7008]
link Fornecedor to Telefone--><g id="link_Fornecedor_Telefone"><path codeLine="167" d="M1246.9088,654.1508 C1246.9088,654.1508 1217.4,767.56 1205.27,814.17 " fill="none" id="Fornecedor-Telefone" style="stroke:#181818;stroke-width:1.0;"/><polygon fill="#181818" points="1201.97,826.83,1208.1055,819.1257,1203.2279,821.9908,1200.3628,817.1132,1201.97,826.83" style="stroke:#181818;stroke-width:1.0;"/><line style="stroke:#181818;stroke-width:1.0;" x1="1203.2279" x2="1205.245" y1="821.9908" y2="814.245"/><polygon fill="#181818" points="1249.94,642.54,1244.5541,647.335,1246.9088,654.1508,1252.2947,649.3558,1249.94,642.54" style="stroke:#181818;stroke-width:1.0;"/><text fill="#000000" font-family="sans-serif" font-size="13" lengthAdjust="spacing" textLength="7" x="1240.5569" y="664.6191">1</text><text fill="#000000" font-family="sans-serif" font-size="13" lengthAdjust="spacing" textLength="7" x="1196.2961" y="816.1115">1</text></g><!--MD5=[479387574298a4317e63bdca6304042f]
@startuml Desenho

class Endereco {
    - id: Long
    - rua: String
    - numero: String
    - lote: String
    - bairro: String
    - complemento: String
    - cep: String
    - municipio: String
    - estado: String
    - pais: String
}

class Telefone {
    - id: Long
    - ddd: String
    - numero: String
}

class Cliente {
    - id: Long
    - nome: String
    - dataNascimento: LocalDate
    - cpf: String
    - sexo: String
    - login: String
    - senha: String
    - email: String
}

class Funcionario {
    - id: Long
    - nome: String
    - dataNascimento: date
    - cpf: String
    - sexo: String
    - login: String
    - senha: String
    - email: String
}

class Produto {
    - id: Long
    - nome: String
    - descricao: String
    - codigoDeBarra: String
    - marca: String
    - imagem: String
    - altura: Double
    - largura: Double
    - comprimento: Double
    - peso: Double
    - custoCompra: Double
    - valorVenda: Double
    - quantidade: Long
}

class Lote {
    - id : Long
    - Lote : String
}

class Pedido {
    - id: Long
    - codigoDeRastreamento : String
}

class ItemDaVenda {
    - preco: Double
    - quantidade: Long
}

class Pix {
    - id: Long
    - nomeCliente: String
    - nomeRecebedor: String
    - chaveRecebedor: String
    - valor: Double
}

class CartaoDeCredito {
    - id: Long
    - numeroCartao: String
    - mesValidade: Long
    - anoValidade: Long
    - codSeguranca : Long
    - valor: Double
}

class Boleto {
    - id: Long
    - nomeBanco: String
    - dataHoraGeracao: LocalDateTime
    - dataHoraLimite: LocalDateTime
    - valor: Double
}

class FormaDePagamento {
    - id : Long
    - nomeCliente : String
}

enum Status {
    + Aguardando Pagamento : String
    + Pago : String
    + Retirado do Estoque : String
    + Recebido pela transportadora : String
    + Entregue : String
}

enum TipoTelefone {
    + Fixo Residencial : String
    + Fixo Comercial : String
    + Celular Particular : String
    + Celular Comercial : String
    + Telefone De Outra Pessoa : String
}

class StatusDoPedido {
    - id : Long
    - dataHora: LocalDateTime
}

class Logistica {
    - id : Long
    - nomeFantasia : String
    - nomeRegistro : String
    - endSite : String
}

class Fornecedor {
    - id : Long
    - nomeFantasia : String
    - nomeRegistro : String
    - endSite : String
}

class Classificacao {
    - id : Long
    - nome : String
}

Cliente "1" *- -> "*" Endereco
Cliente "1" *- -> "*" Telefone
Funcionario "1" *- -> "1" Endereco
Funcionario "1" *- -> "1" Telefone
Pedido "1" *- -> "1" Endereco
Pedido "1" *- -> "*" ItemDaVenda
ItemDaVenda "1" o- -> "1" Produto
Cliente "*" - -> "*" Produto : ListaDesejos
Pix  - -|> FormaDePagamento
CartaoDeCredito - -|> FormaDePagamento
Boleto - -|> FormaDePagamento
Pedido "1" *- -> "*" StatusDoPedido
StatusDoPedido "*" o- -> "1" Status
Telefone "1" o- -> "1" TipoTelefone
Cliente "1" o- -> "*" Pedido
Produto "*" o- -> "1" Classificacao
Pedido "1" *- -> "1" FormaDePagamento
Pedido "1" o- -> "1" Logistica
Produto "*" *- -> "1" Lote
Fornecedor "1" - -> "*" Lote
Logistica "1" *- -> "1" Endereco
Logistica "1" *- -> "1" Telefone
Fornecedor "1" *- -> "1" Endereco
Fornecedor "1" *- -> "1" Telefone

@enduml

PlantUML version 1.2022.7(Mon Aug 22 14:01:30 BRT 2022)
(GPL source distribution)
Java Runtime: Java(TM) SE Runtime Environment
JVM: Java HotSpot(TM) 64-Bit Server VM
Default Encoding: UTF-8
Language: pt
Country: BR
--></g></svg>